<ttFont>
<head>
        <!-- Most of this table will be recalculated by the compiler -->
        <tableVersion value="1.0"/>
        <fontRevision value="1.002"/>
        <checkSumAdjustment value="0xe1dd8dee"/>
        <magicNumber value="0x5f0f3cf5"/>
        <flags value="00000000 00000011"/>
        <unitsPerEm value="1000"/>
        <created value="Fri Jan 15 16:22:52 2016"/>
        <modified value="Fri Jan 15 21:22:52 2016"/>
        <xMin value="-1661"/>
        <yMin value="-316"/>
        <xMax value="687"/>
        <yMax value="1266"/>
        <macStyle value="00000000 00000000"/>
        <lowestRecPPEM value="3"/>
        <fontDirectionHint value="2"/>
        <indexToLocFormat value="0"/>
        <glyphDataFormat value="0"/>
    </head>
                    <CharString index="0">
                        rmoveto
149 121 122 195 181 -105 110 -142 -150 -121 -121 -195 -181 105 -111 143 hvcurveto
8 548 rmoveto
109 79 -90 -158 -152 -73 -87 -109 -109 -79 90 157 153 74 87 108 hvcurveto
endchar
                    </CharString>
                    <CharString index="1">
                        rmoveto
70 68 59 102 58 hvcurveto
-45 25 rlineto
-81 -50 -40 -44 -54 hhcurveto
-51 -38 37 93 -52 hvcurveto
-53 -34 rlineto
-106 57 62 -51 68 hhcurveto
return
                    </CharString>
                    <CharString index="2">
                        85 hlineto
20 110 28 222 15 251 rrcurveto
-69 hlineto
-8 -124 -25 -313 -11 -60 rrcurveto
-5 hlineto
-13 40 -97 252 -14 40 rrcurveto
-50 hlineto
-14 -40 -97 -253 -12 -40 rrcurveto
-6 hlineto
-10 61 -26 313 -8 124 rrcurveto
-74 hlineto
17 -251 27 -222 20 -110 rrcurveto
83 hlineto
121 315 rlineto
endchar
                    </CharString>
                    <CharString index="3">
                        rmoveto
179 170 -38 36 -137 -128 -137 129 -47 -46 179 -161 rlineto
return
                    </CharString>
                    <CharString index="4">
                        210 7 79 58 72 vvcurveto
52 -48 45 -136 21 vhcurveto
175 143 -5 51 rlineto
-274 -55 hlineto
204 2 rlineto
-3 vlineto
-92 callgsubr
return
                    </CharString>
                    <CharString index="5">
                        rmoveto
hintmask 00111110
-82 callgsubr
hintmask 01011110
-97 callsubr
hintmask 10011110
20 -63 20 -62 19 -62 rrcurveto
hintmask 00111110
-98 callgsubr
                    </CharString>
                    <CharString index="6">
                        rmoveto
168 136 144 230 214 -119 130 -160 -168 -137 -143 -230 -214 119 -131 161 hvcurveto
9 654 rmoveto
128 93 -110 -189 -185 -87 -106 -127 -128 -93 110 189 185 87 106 127 hvcurveto
endchar
                    </CharString>
                    <CharString index="7">
                        -1 -65 rlineto
259 -16 105 93 90 141 -290 44 101 vvcurveto
52 55 39 202 -13 vhcurveto
-5 65 rlineto
-240 14 -86 -84 -86 -138 289 -38 -108 vvcurveto
-58 -78 -51 -210 18 vhcurveto
return
                    </CharString>
                    <CharString index="8">
                        55 -229 vlineto
139 103 76 75 86 vvcurveto
73 -61 58 -214 -2 vhcurveto
-4 -55 rlineto
171 -4 47 -32 -54 vvcurveto
-70 -81 -69 -152 -113 vhcurveto
6 -51 rlineto
return
                    </CharString>
                    <CharString index="9">
                        rmoveto
-54 45 -93 95 -49 59 -57 -63 rcurveline
59 -54 105 -75 66 -41 rrcurveto
return
                    </CharString>
                    <CharString index="10">
                        -71 -195 -66 -196 -62 -194 rrcurveto
70 hlineto
19 61 20 62 20 61 rrcurveto
234 hlineto
return
                    </CharString>
                    <CharString index="11">
                        rmoveto
106 70 96 141 138 -60 84 -104 -106 -70 -96 -141 -138 60 -84 104 hvcurveto
5 406 rmoveto
71 38 -67 -113 -108 -35 -65 -72 -71 -38 67 113 108 36 65 71 hvcurveto
endchar
                    </CharString>
                    <CharString index="12">
                        63 callsubr
-30 callgsubr
rlinecurve
-67 5 -42 callgsubr
rlinecurve
210 hlineto
return
                    </CharString>
                    <CharString index="13">
                        -77 350 rmoveto
31 30 28 56 56 31 -27 -39 -36 -29 -29 -48 -22 vhcurveto
-51 27 -45 27 40 vvcurveto
return
                    </CharString>
                    <CharString index="14">
                        -99 callsubr
endchar
                    </CharString>
                    <CharString index="15">
                        -285 206 244 54 -244 198 282 63 -356 -583 352 hlineto
endchar
                    </CharString>
                    <CharString index="16">
                        rmoveto
-247 -7 -83 82 160 vvcurveto
137 61 88 263 7 vhcurveto
-5 69 rlineto
-293 -13 -100 -137 -162 vvcurveto
-173 91 -129 306 16 vhcurveto
return
                    </CharString>
                    <CharString index="17">
                        63 5 rlineto
-3 77 -4 73 116 vvcurveto
206 -80 66 -287 9 vhcurveto
-8 -65 228 -10 68 -35 7 -133 rlinecurve
-228 16 -106 -84 -112 vvcurveto
return
                    </CharString>
                    <CharString index="18">
                        88 hlineto
23 130 32 262 17 296 rrcurveto
-70 hlineto
-10 -155 -30 -367 -13 -77 rrcurveto
-4 hlineto
-15 48 -114 305 -17 48 rrcurveto
-53 hlineto
-17 -48 -114 -304 -14 -49 rrcurveto
-6 hlineto
-13 77 -30 367 -10 155 rrcurveto
-75 hlineto
19 -296 30 -262 24 -130 rrcurveto
86 hlineto
142 379 rlineto
endchar
                    </CharString>
                    <CharString index="19">
                        -53 callsubr
hintmask 11011000
-78 callsubr
-51 45 -34 52 -29 vhcurveto
hintmask 11100100
-41 callsubr
hintmask 11011000
-94 callsubr
hintmask 11100100
-96 callgsubr
                    </CharString>
                    <CharString index="20">
                        70 -9 62 -33 -21 271 53 209 60 -9 -16 callsubr
310 74 hintmask 10110110
569 303 rmoveto
hintmask 01101110
224 -140 96 -318 -40 vhcurveto
-260 -72 -53 72 -271 vlineto
hintmask 10110110
293 -40 165 121 223 vvcurveto
-384 -245 rmoveto
212 145 vlineto
3 53 rlineto
-148 205 hlineto
220 23 90 -81 -180 vvcurveto
-172 -101 -89 -209 29 vhcurveto
endchar
                    </CharString>
                    <CharString index="21">
                        rmoveto
161 95 100 176 hvcurveto
427 -74 -436 vlineto
-140 -55 -60 -117 -115 -68 70 152 vhcurveto
414 -74 -430 vlineto
-176 92 -97 155 vhcurveto
endchar
                    </CharString>
                    <CharString index="22">
                        -211 626 rmoveto
8 hlineto
39 -114 38 -114 37 -114 rrcurveto
-235 hlineto
37 114 38 36 callgsubr
rrcurveto
endchar
                    </CharString>
                    <CharString index="23">
                        rmoveto
hintmask 00111100
-58 callgsubr
hintmask 01011100
-80 callsubr
hintmask 10011100
23 -75 24 -75 23 -75 rrcurveto
hintmask 00111100
-85 callsubr
                    </CharString>
                    <CharString index="24">
                        rmoveto
hintmask 00101011
-59 callsubr
hintmask 10000111
-198 3 -142 3 -97 vhcurveto
-31 -49 -52 -21 -61 hhcurveto
-78 -45 38 110 hvcurveto
344 vlineto
hintmask 10010011
-72 -5 rlineto
-362 vlineto
-134 68 -54 102 81 61 34 37 48 vhcurveto
endchar
                    </CharString>
                    <CharString index="25">
                        88 583 -69 hlineto
1 -469 rlineto
-7 hlineto
-276 469 rlineto
-96 -583 69 hlineto
-2 487 rlineto
7 hlineto
return
                    </CharString>
                    <CharString index="26">
                        -581 74 216 vlineto
140 3 rlineto
-140 308 rmoveto
167 23 72 -51 -90 vvcurveto
-58 -35 -47 -51 -32 vhcurveto
-153 -3 rlineto
return
                    </CharString>
                    <CharString index="27">
                        -81 -232 -75 -230 -71 -229 rrcurveto
71 hlineto
23 74 23 74 24 74 rrcurveto
273 hlineto
return
                    </CharString>
                    <CharString index="28">
                        rmoveto
-1 -71 rlineto
290 -18 118 109 106 167 -334 51 124 vvcurveto
63 64 48 233 -15 vhcurveto
-5 70 rlineto
-269 16 -97 -99 -99 -163 334 -46 -131 vvcurveto
-71 -90 -63 -243 22 vhcurveto
return
                    </CharString>
                    <CharString index="29">
                        63 29 36 36 52 vvcurveto
63 -61 43 -81 -98 -55 -60 -55 return
                    </CharString>
                    <CharString index="30">
                        rmoveto
153 74 87 108 43 38 -14 -26 31 vhcurveto
-255 -361 rlineto
-25 40 -14 55 66 vvcurveto
189 -247 rmoveto
-44 -39 14 28 -31 hvcurveto
256 362 rlineto
25 -41 15 -56 -68 vvcurveto
-152 -74 -87 -108 vhcurveto
-15 -61 rmoveto
149 121 122 195 hvcurveto
return
                    </CharString>
                    <CharString index="31">
                        rmoveto
5 -19 callsubr
-3 -146 rlineto
return
                    </CharString>
                    <CharString index="32">
                        rmoveto
hintmask 00110111
79 12 -156 250 rlineto
62 40 48 54 78 vvcurveto
119 -108 76 -279 -39 vhcurveto
hintmask 01011011
-50 callgsubr
                    </CharString>
                    <CharString index="33">
                        rmoveto
-2 89 0 106 143 vvcurveto
-74 hlineto
-110 2 -105 1 -76 vhcurveto
-269 -24 -95 121 192 vvcurveto
167 72 110 339 4 vhcurveto
-5 75 rlineto
-370 -11 -112 -167 -194 vvcurveto
-240 162 -150 351 70 vhcurveto
return
                    </CharString>
                    <CharString index="34">
                        -242 20 -81 -91 -80 -134 272 -21 -100 vvcurveto
-53 -59 -44 -212 19 vhcurveto
-3 -68 rlineto
263 -16 83 89 83 141 -272 25 93 vvcurveto
47 53 42 200 -21 vhcurveto
return
                    </CharString>
                    <CharString index="35">
                        rmoveto
-166 84 -118 281 15 vhcurveto
8 64 rlineto
-227 -7 -76 77 146 vvcurveto
123 55 79 241 5 vhcurveto
-5 73 rlineto
-269 -13 -92 -128 -150 vvcurveto
return
                    </CharString>
                    <CharString index="36">
                        457 472 rmoveto
-91 callgsubr
return
                    </CharString>
                    <CharString index="37">
                        rmoveto
5 53 -59 -1 1 154 -58 -4 1 -150 return
                    </CharString>
                    <CharString index="38">
                        6 57 rlineto
-167 482 -232 hlineto
-6 -52 166 -8 rlineto
-422 -166 -57 vlineto
endchar
                    </CharString>
                    <CharString index="39">
                        84 -76 callgsubr
return
                    </CharString>
                    <CharString index="40">
                        86 -13 61 -31 -21 539 60 -42 -20 53 -20 hstemhm
68 73 371 73 hintmask 10100110
141 295 -77 callsubr
hintmask 10011110
89 -25 72 -43 50 vhcurveto
52 71 -47 32 -47 -65 rlineto
hintmask 01100110
27 -38 -47 15 -52 hhcurveto
-149 -121 -121 -195 -88 25 -71 41 -51 hvcurveto
-53 -73 rlineto
hintmask 10100110
46 -32 48 67 rlineto
-29 39 48 -15 53 hhcurveto
endchar
                    </CharString>
                    <CharString index="41">
                        rmoveto
8 65 -260 8 -80 55 -2 132 rlinecurve
360 10 rlineto
174 18 -70 121 -138 hhcurveto
-84 -75 -54 -82 -41 hvcurveto
hintmask 0110101110000000
-39 92 -98 35 -199 6 -9 -65 rcurveline
232 -11 67 -36 6 -137 rrcurveto
-230 -6 -105 -59 -111 vvcurveto
-87 66 -50 91 102 73 53 52 50 vhcurveto
hintmask 0101011110000000
53 -65 108 -37 196 -3 rrcurveto
-179 501 rmoveto
95 43 -74 -108 hvcurveto
-293 -7 rlineto
122 6 60 67 89 hhcurveto
hintmask 1010011110000000
-379 -441 rmoveto
-67 -43 33 60 79 71 26 193 2 hvcurveto
-44 6 -39 16 -34 vhcurveto
-48 -51 -63 -35 -62 hhcurveto
endchar
                    </CharString>
                    <CharString index="42">
                        -21 0 62 206 54 198 63 return
                    </CharString>
                    <CharString index="43">
                        rmoveto
36 -25 51 57 63 89 34 59 rlinecurve
-76 37 -24 -61 -46 -96 -38 -60 rlinecurve
hintmask 11101100
211 -1 rmoveto
37 -25 52 58 62 87 33 61 rlinecurve
-79 32 -23 -62 -43 -91 -39 -60 rlinecurve
return
                    </CharString>
                    <CharString index="44">
                        rmoveto
185 87 106 127 53 46 -19 -35 37 vhcurveto
-302 -437 rlineto
-30 50 -18 67 83 vvcurveto
221 -299 rmoveto
-53 -46 19 35 -37 hvcurveto
301 437 rlineto
31 -50 18 -67 -83 vvcurveto
-185 -87 -106 -127 vhcurveto
-16 -64 rmoveto
168 136 144 230 hvcurveto
hintmask 10101110
104 -28 85 -48 59 vhcurveto
57 82 rlineto
hintmask 01110110
-46 32 -51 -74 rlineto
36 -45 -56 20 -62 hhcurveto
-168 -137 -143 -230 -105 29 -85 48 -60 hvcurveto
-55 -81 rlineto
hintmask 10110110
46 -32 50 73 rlineto
-36 45 55 -19 62 hhcurveto
endchar
                    </CharString>
                    <CharString index="45">
                        -170 325 -79 -4 210 -386 rlineto
-195 vlineto
endchar
                    </CharString>
                    <CharString index="46">
                        rmoveto
hintmask 00110111
79 14 -178 294 rlineto
71 48 55 65 93 vvcurveto
140 -123 91 -309 -47 vhcurveto
hintmask 01011011
-687 74 258 vlineto
169 4 rlineto
-169 366 rmoveto
197 28 87 -64 -104 vvcurveto
-75 -43 -55 -59 -39 vhcurveto
-182 -3 rlineto
endchar
                    </CharString>
                    <CharString index="47">
                        101 62 56 63 53 -51 34 -55 30 hvcurveto
return
                    </CharString>
                    <CharString index="48">
                        67 5 rlineto
-6 125 -3 176 235 vvcurveto
-72 hlineto
return
                    </CharString>
                    <CharString index="49">
                        -28 callgsubr
86 35 callsubr
102 74 17 56 155 55 17 74 vstemhm
325 2 callsubr
hintmask 11111001
-5 -841 -104 callgsubr
                    </CharString>
                    <CharString index="50">
                        -244 -53 callsubr
hintmask 10110110
-78 callsubr
vhcurveto
hintmask 11010101
-51 45 -34 52 -29 vhcurveto
hintmask 10111001
-41 callsubr
hintmask 10110110
-94 callsubr
hintmask 10111001
-96 callgsubr
                    </CharString>
                    <CharString index="51">
                        445 -8 callgsubr
return
                    </CharString>
                    <CharString index="52">
                        49 -9 58 473 69 hstem
69 74 156 74 78 -17 callsubr
-248 -306 -103 callgsubr
                    </CharString>
                    <CharString index="53">
                        100 18 -21 24 -21 24 -21 219 59 342 68 return
                    </CharString>
                    <CharString index="54">
                        rmoveto
-60 callsubr
return
                    </CharString>
                    <CharString index="55">
                        231 vlineto
hintmask 11010000
238 457 rlineto
-76 hlineto
-195 -386 rlineto
hintmask 10110000
-199 388 -80 -4 239 -457 rlineto
-229 vlineto
endchar
                    </CharString>
                    <CharString index="56">
                        75 -13 63 -31 -21 26 -21 534 -20 22 -20 23 -20 return
                    </CharString>
                    <CharString index="57">
                        rmoveto
25 63 rlineto
-171 60 -75 45 61 66 86 46 70 vvcurveto
hintmask 10110000
42 -31 45 -82 23 vhcurveto
hintmask 10101000
84 26 31 47 41 62 -94 55 59 vvcurveto
hintmask 11000000
51 77 47 177 58 vhcurveto
-24 65 rlineto
-221 -81 -78 -76 -75 -85 99 -47 -51 vvcurveto
hintmask 10101000
-34 -36 -28 -121 -12 vhcurveto
-3 -54 rlineto
hintmask 10110000
107 -8 47 -37 -42 -53 -91 -47 -89 vvcurveto
hintmask 10100000
-81 76 -52 218 -80 vhcurveto
endchar
                    </CharString>
                    <CharString index="58">
                        -50 12 callgsubr
75 74 66 -9 callsubr
124 -358 -103 callgsubr
                    </CharString>
                    <CharString index="59">
                        rmoveto
hintmask 10001000
221 81 77 76 75 85 -99 47 51 vvcurveto
hintmask 11010000
34 37 28 121 12 vhcurveto
2 54 rlineto
hintmask 10110000
-107 8 -47 37 42 53 91 48 88 vvcurveto
hintmask 10010000
81 -75 52 -218 80 vhcurveto
-25 -63 rlineto
170 -60 76 -45 -61 -66 -87 -46 -70 vvcurveto
hintmask 10110000
-42 31 -45 83 -23 vhcurveto
hintmask 11010000
-84 -26 -31 -47 -41 -62 93 -54 -60 vvcurveto
hintmask 10001000
-51 -77 -47 -176 -58 vhcurveto
endchar
                    </CharString>
                    <CharString index="60">
                        666 rmoveto
48 46 -179 160 rlineto
-1 hlineto
return
                    </CharString>
                    <CharString index="61">
                        rmoveto
78 47 -39 -109 hvcurveto
-341 72 364 vlineto
133 -69 55 -103 -82 -61 -35 -37 -49 vhcurveto
return
                    </CharString>
                    <CharString index="62">
                        24 16 -21 26 -21 26 -21 259 61 258 -16 callsubr
85 74 hintmask 10011110
466 -5 rmoveto
hintmask 00111110
-24 callsubr
hintmask 01011110
-583 74 264 77 vlineto
-16 -560 -103 callgsubr
                    </CharString>
                    <CharString index="63">
                        rmoveto
-91 callgsubr
endchar
                    </CharString>
                    <CharString index="64">
                        450 1 callgsubr
return
                    </CharString>
                    <CharString index="65">
                        146 rlineto
return
                    </CharString>
                    <CharString index="66">
                        -66 -28 -38 -40 -54 vvcurveto
-63 56 -45 90 vhcurveto
return
                    </CharString>
                    <CharString index="67">
                        7 57 rlineto
-148 717 -213 hlineto
-6 -53 147 -8 rlineto
-656 -147 -57 vlineto
return
                    </CharString>
                    <CharString index="68">
                        -160 -63 callgsubr
return
                    </CharString>
                    <CharString index="69">
                        -47 callsubr
hintmask 11101100
-179 -169 rlineto
hintmask 11011100
37 -37 137 128 rlineto
return
                    </CharString>
                    <CharString index="70">
                        -20 callsubr
hstemhm
134 64 14 74 hintmask 11010000
331 -173 rmoveto
hintmask 11110000
-87 17 -46 18 36 vvcurveto
24 22 32 72 46 vhcurveto
128 hlineto
5 57 rlineto
hintmask 11010000
-139 469 136 57 -346 -57 136 -469 hlineto
hintmask 11110000
-136 -57 140 hlineto
-59 -43 -23 -37 -37 vvcurveto
-57 55 -40 135 -19 vhcurveto
endchar
                    </CharString>
                    <CharString index="71">
                        7 66 -332 -2 322 412 rlineto
63 -393 vlineto
-6 -66 320 2 -323 -412 rlineto
-63 vlineto
endchar
                    </CharString>
                    <CharString index="72">
                        -5 21 -21 96 63 275 59 -59 149 hstemhm
111 74 246 74 hintmask 11011100
185 hmoveto
96 vlineto
191 11 129 64 138 vvcurveto
hintmask 11101100
128 -110 71 -210 -15 vhcurveto
hintmask 11011100
90 -74 -583 vlineto
320 295 rmoveto
-108 -87 -38 -159 10 vhcurveto
271 vlineto
163 20 83 -54 -101 vvcurveto
endchar
                    </CharString>
                    <CharString index="73">
                        -5 21 -21 192 63 276 60 -10 -16 callsubr
246 74 hintmask 11101100
185 hmoveto
192 vlineto
191 11 129 64 138 vvcurveto
hintmask 11011100
142 -136 72 -258 -38 vhcurveto
-581 vlineto
hintmask 11101100
320 392 rmoveto
-108 -87 -38 -159 9 vhcurveto
272 vlineto
163 19 83 -54 -100 vvcurveto
endchar
                    </CharString>
                    <CharString index="74">
                        -65 callsubr
-22 callgsubr
76 65 vstem
446 -173 rmoveto
-2 callsubr
-1 2 7 60 19 callgsubr
282 63 -356 -583 264 hlineto
-86 -48 -28 -42 -38 vvcurveto
17 callgsubr
endchar
                    </CharString>
                    <CharString index="75">
                        -86 66 -53 91 82 61 39 41 42 vhcurveto
return
                    </CharString>
                    <CharString index="76">
                        rmoveto
186 62 -441 hlineto
-7 -62 rlineto
189 -521 73 hlineto
return
                    </CharString>
                    <CharString index="77">
                        21 0 65 518 -20 22 -20 hstemhm
53 481 hintmask 10110000
239 hmoveto
106 hlineto
hintmask 11010000
68 193 64 196 57 194 rrcurveto
-72 hlineto
-50 -172 -54 -174 -59 -172 rrcurveto
-11 hlineto
hintmask 10110000
-56 173 -54 176 -50 171 -75 -5 rcurveline
56 -193 63 -193 67 -194 rrcurveto
endchar
                    </CharString>
                    <CharString index="78">
                        90 -13 61 487 60 return
                    </CharString>
                    <CharString index="79">
                        hintmask 11010000
433 hmoveto
-22 callsubr
return
                    </CharString>
                    <CharString index="80">
                        -252 rmoveto
159 64 77 101 125 vvcurveto
114 -65 62 -92 -85 -73 -61 -91 vhcurveto
hintmask 10111100
-133 152 -34 101 93 vhcurveto
-13 -79 -53 -56 -131 -51 rrcurveto
hintmask 11011100
2 265 rmoveto
58 42 35 52 60 44 -42 -89 vhcurveto
-2 0 -1 -2 vvcurveto
-94 -71 -104 21 93 vvcurveto
endchar
                    </CharString>
                    <CharString index="81">
                        hstem
69 74 370 74 vstem
return
                    </CharString>
                    <CharString index="82">
                        461 -21 callgsubr
return
                    </CharString>
                    <CharString index="83">
                        80 10 -224 293 209 285 rlineto
-80 hlineto
-184 -258 rlineto
-82 258 -74 hlineto
return
                    </CharString>
                    <CharString index="84">
                        34 0 66 254 58 244 66 return
                    </CharString>
                    <CharString index="85">
                        -16 callgsubr
hintmask 10110000
-5 77 rlineto
hintmask 11010000
-54 callgsubr
return
                    </CharString>
                    <CharString index="86">
                        -67 -5 rlineto
6 -126 3 -176 -235 vvcurveto
72 hlineto
return
                    </CharString>
                    <CharString index="87">
                        -66 0 57 469 57 return
                    </CharString>
                    <CharString index="88">
                        -42 callsubr
-76 hlineto
return
                    </CharString>
                    <CharString index="89">
                        2 -42 callsubr
return
                    </CharString>
                    <CharString index="90">
                        71 vstem
523 5 -95 callgsubr
return
                    </CharString>
                    <CharString index="91">
                        36 callsubr
74 return
                    </CharString>
                    <CharString index="92">
                        20 callgsubr
91 146 61 callgsubr
292 630 rmoveto
7 -42 callsubr
-75 hlineto
-6 -146 rlineto
238 -630 rmoveto
-69 callsubr
                    </CharString>
                    <CharString index="93">
                        3 -24 4 -33 1 -13 rrcurveto
endchar
                    </CharString>
                    <CharString index="94">
                        -44 0 62 203 108 210 -20 -22 callgsubr
171.5 89.5 4 callsubr
332 265 rmoveto
6 108 rlineto
-90 hlineto
-5 -108 rlineto
endchar
                    </CharString>
                    <CharString index="95">
                        11 21 -21 583 -20 22 -20 return
                    </CharString>
                    <CharString index="96">
                        161 -15 67 636 -20 hstem
112 74 355 74 vstem
return
                    </CharString>
                    <CharString index="97">
                        -79 callsubr
endchar
                    </CharString>
                    <CharString index="98">
                        75 vstem
-68 callsubr
return
                    </CharString>
                    <CharString index="99">
                        177 0 122 -101 -21 589 99 hstemhm
121 47 callgsubr
362 47 callgsubr
hintmask 01111000
return
                    </CharString>
                    <CharString index="100">
                        -46 -42 117 -69 hhcurveto
-71 callgsubr
-10 callgsubr
return
                    </CharString>
                    <CharString index="101">
                        198 -3 141 -3 98 vhcurveto
31 49 53 21 62 hhcurveto
return
                    </CharString>
                    <CharString index="102">
                        rmoveto
210 195 84 162 160 vvcurveto
157 -83 159 -207 194 vhcurveto
-49 -51 rlineto
195 -175 73 -145 -142 vvcurveto
-143 -72 -144 -200 -177 vhcurveto
endchar
                    </CharString>
                    <CharString index="103">
                        rmoveto
-210 -194 -84 -163 -160 vvcurveto
-157 83 -159 206 -193 vhcurveto
50 50 rlineto
-196 175 -72 145 142 vvcurveto
143 72 144 200 178 vhcurveto
endchar
                    </CharString>
                    <CharString index="104">
                        5 21 -21 hstem
184 65 vstem
368 35 rmoveto
-141 -64 -43 -52 -47 vvcurveto
17 callgsubr
7 60 rlineto
-2 callsubr
endchar
                    </CharString>
                    <CharString index="105">
                        -81 13 -39 18 29 vvcurveto
25 25 34 113 54 vhcurveto
return
                    </CharString>
                    <CharString index="106">
                        -244 49 202 -21 27 -21 173 50 return
                    </CharString>
                    <CharString index="107">
                        vstem
473 55 -91 callsubr
return
                    </CharString>
                    <CharString index="108">
                        102 21 -21 267 56 260 -20 -22 callgsubr
299 73 vstem
484 hmoveto
73 583 -73 -260 -299 260 -74 -583 74 267 299 hlineto
endchar
                    </CharString>
                    <CharString index="109">
                        877 -99 callgsubr
return
                    </CharString>
                    <CharString index="110">
                        3 -18 -19 1 -19 hhcurveto
-167 -144 -112 -197 -159 91 -97 119 69 return
                    </CharString>
                    <CharString index="111">
                        vstem
460 hmoveto
-23 callgsubr
return
                    </CharString>
                    <CharString index="112">
                        144 0 85 498 -20 return
                    </CharString>
                    <CharString index="113">
                        60 -53 62 173 60 return
                    </CharString>
                    <CharString index="114">
                        68.5 vstem
470 hmoveto
-82 callsubr
return
                    </CharString>
                    <CharString index="115">
                        222 0 89 599 -20 hstem
91 75 460 70 vstem
return
                    </CharString>
                    <CharString index="116">
                        -43 28 10 callgsubr
return
                    </CharString>
                    <CharString index="117">
                        32 190 11 vhcurveto
-6 73 rlineto
-214 -13 -67 -99 -142 vvcurveto
-131 hlineto
-7 -58 rlineto
138 -415 -132 -57 371 hlineto
endchar
                    </CharString>
                    <CharString index="118">
                        123 -5 -20 hstemhm
245 59 return
                    </CharString>
                    <CharString index="119">
                        -687 74 258 vlineto
137 4 rlineto
-137 366 rmoveto
168 28 67 -63 -105 vvcurveto
-75 -34 -55 -50 -39 vhcurveto
-151 -3 rlineto
return
                    </CharString>
                    <CharString index="120">
                        -13 rmoveto
155 100 147 220 217 -84 130 -154 -155 -100 -146 -221 -217 85 -130 153 hvcurveto
return
                    </CharString>
                    <CharString index="121">
                        35 21 -21 622 66 hstem
264 74 vstem
338 622 rmoveto
214 66 -497 hlineto
-7 -66 rlineto
216 -622 74 hlineto
return
                    </CharString>
                    <CharString index="122">
                        57 195 -20 23 -20 160 54 hstemhm
return
                    </CharString>
                    <CharString index="123">
                        hstem
71 71 339 71 vstem
return
                    </CharString>
                    <CharString index="124">
                        -1 -92 rlineto
58 hlineto
return
                    </CharString>
                    <CharString index="125">
                        5 630 146 hstem
247.5 75 vstem
320 630 -76 callsubr
endchar
                    </CharString>
                    <CharString index="126">
                        275 0 62 119 54 33 54 198 63 return
                    </CharString>
                    <CharString index="127">
                        82 vstem
115 428 rmoveto
39 -12 80 87 38 119 -36 120 rlinecurve
-98 -9 48 -115 -9 -108 -62 -82 rlinecurve
return
                    </CharString>
                    <CharString index="128">
                        vstem
113 -193 rmoveto
39 -13 79 88 39 119 -37 119 rlinecurve
-97 -8 48 -116 -9 -108 -62 -81 rlinecurve
return
                    </CharString>
                    <CharString index="129">
                        -6 callsubr
endchar
                    </CharString>
                    <CharString index="130">
                        -89 -9 64 426 58 151 -20 26 -20 hstemhm
147 72 return
                    </CharString>
                    <CharString index="131">
                        21 -21 489 63 -10 -20 hstemhm
113 72 return
                    </CharString>
                    <CharString index="132">
                        -3 -177 -21 737 -20 23 -20 return
                    </CharString>
                    <CharString index="133">
                        -9 0 61 566 61 return
                    </CharString>
                    <CharString index="134">
                        143 0 93 446 -20 hstem
89 75 386 71 vstem
return
                    </CharString>
                    <CharString index="135">
                        -39 13 -80 -88 -38 -119 36 -120 rlinecurve
99 9 -49 115 9 109 62 81 rlinecurve
endchar
                    </CharString>
                    <CharString index="136">
                        41 -170 -21 230 60 388 64 return
                    </CharString>
                    <CharString index="137">
                        -18 -7 62 467 69 return
                    </CharString>
                    <CharString index="138">
                        81 12 -264 345 248 337 rlineto
-81 hlineto
-223 -307 rlineto
-91 307 -74 hlineto
return
                    </CharString>
                    <CharString index="139">
                        147 141 116 191 158 -90 100 -117 -66 -54 -28 -33 -41 hvcurveto
291 vlineto
return
                    </CharString>
                    <CharString index="140">
                        5 674 65 hstem
117 337 vstem
454 739 -57 callgsubr
endchar
                    </CharString>
                    <CharString index="141">
                        47 178 54 hstem
98 58 198 59 vstem
177 return
                    </CharString>
                    <CharString index="142">
                        49 130 49 hstemhm
return
                    </CharString>
                    <CharString index="143">
                        -20 hstemhm
111 return
                    </CharString>
                    <CharString index="144">
                        hmoveto
6 112 rlineto
-107 hlineto
-5 -112 rlineto
endchar
                    </CharString>
                    <CharString index="145">
                        rmoveto
2 46 callgsubr
-3 -112 rlineto
endchar
                    </CharString>
                    <CharString index="146">
                        61.5 -57.5 62.5 -8 -20 204 -20 hstemhm
return
                    </CharString>
                    <CharString index="147">
                        75 14 -144 295 rlineto
62 47 49 65 93 vvcurveto
140 -106 91 -278 -47 vhcurveto
return
                    </CharString>
                    <CharString index="148">
                        67 5 rlineto
-7 125 -2 172 235 vvcurveto
return
                    </CharString>
                    <CharString index="149">
                        -14 0 57 425 57 20 -20 hstemhm
203 71 return
                    </CharString>
                    <CharString index="150">
                        7 -9 67 571 67 hstem
89 74 return
                    </CharString>
                    <CharString index="151">
                        0 62 521 -20 -22 callgsubr
return
                    </CharString>
                    <CharString index="152">
                        hstemhm
77 72 263 71 return
                    </CharString>
                    <CharString index="153">
                        106.5 return
                    </CharString>
                    <CharString index="154">
                        144 -10 65 -35 -21 635 65 -10 -20 hstemhm
121 74 367 74 hintmask 10101100
return
                    </CharString>
                    <CharString index="155">
                        rmoveto
-38 11 -52 -69 -18 -87 10 -69 rlinecurve
92 6 -22 61 -7 70 35 77 rlinecurve
return
                    </CharString>
                    <CharString index="156">
                        85 callsubr
hstem
351 58 vstem
120 return
                    </CharString>
                    <CharString index="157">
                        0 12 9 8 12 12 9 -8 0 hflex1
return
                    </CharString>
                    <CharString index="158">
                        53 0 67 554 67 hstem
81 462 vstem
return
                    </CharString>
                    <CharString index="159">
                        -20 26 36 callsubr
72 return
                    </CharString>
                    <CharString index="160">
                        53 353 53 hstem
return
                    </CharString>
                    <CharString index="161">
                        hstem
121 74 return
                    </CharString>
                    <CharString index="162">
                        44 callsubr
vstem
460 hmoveto
7 62 rlineto
-282 return
                    </CharString>
                    <CharString index="163">
                        rmoveto
-4 -63 rlineto
316 964 -314 -63 244 -838 hlineto
endchar
                    </CharString>
                    <CharString index="164">
                        560 -11 49 -36 -21 29 -21 return
                    </CharString>
                    <CharString index="165">
                        371 0 66 145 59 50 58 244 66 hstem
454 74 vstem
return
                    </CharString>
                    <CharString index="166">
                        0 144.5 -52.5 18 callgsubr
hstemhm
return
                    </CharString>
                    <CharString index="167">
                        hstemhm
67 callsubr
return
                    </CharString>
                    <CharString index="168">
                        73 callgsubr
hstem
return
                    </CharString>
                    <CharString index="169">
                        -1 92 rlineto
endchar
                    </CharString>
                    <CharString index="170">
                        -70 callsubr
-159 1 return
                    </CharString>
                    <CharString index="171">
                        vstem
514 hmoveto
24 callgsubr
return
                    </CharString>
                    <CharString index="172">
                        -8 -2 -5 -6 -11 hhcurveto
-13 -8 8 12 12 9 9 11 hvcurveto
return
                    </CharString>
                    <CharString index="173">
                        80 callgsubr
vstem
457 return
                    </CharString>
                    <CharString index="174">
                        110 -20 callgsubr
return
                    </CharString>
                    <CharString index="175">
                        67 564 75 hstem
74 76 return
                    </CharString>
                    <CharString index="176">
                        hstem
241 74 vstem
return
                    </CharString>
                    <CharString index="177">
                        461 49 181 -20 26 -20 40 -20 173 50 hstemhm
return
                    </CharString>
                    <CharString index="178">
                        776 rmoveto
-976 67 vlineto
hintmask 01100000
982 vlineto
endchar
                    </CharString>
                    <CharString index="179">
                        -20 29 -20 hstemhm
return
                    </CharString>
                    <CharString index="180">
                        hstemhm
53 496 return
                    </CharString>
                    <CharString index="181">
                        90 callsubr
hstem
99 77 callsubr
vstem
256 return
                    </CharString>
                    <CharString index="182">
                        43 callsubr
260 74 vstem
return
                    </CharString>
                    <CharString index="183">
                        -22 callgsubr
vstem
return
                    </CharString>
                    <CharString index="184">
                        59 199 57 return
                    </CharString>
                    <CharString index="185">
                        -168 3 2 180 -71 1 rlineto
-179 vlineto
return
                    </CharString>
                    <CharString index="186">
                        -72 -6 rlineto
-776 72 244 vlineto
85 3 rlineto
return
                    </CharString>
                    <CharString index="187">
                        -89 hhcurveto
-62 -43 -56 -111 -42 hvcurveto
49 -19 rlineto
return
                    </CharString>
                    <CharString index="188">
                        134.5 -38 callgsubr
return
                    </CharString>
                    <CharString index="189">
                        -435 -64 435 hlineto
endchar
                    </CharString>
                    <CharString index="190">
                        64 -33 -20 107 63 hstemhm
return
                    </CharString>
                    <CharString index="191">
                        -47 -9 64 423 73 return
                    </CharString>
                    <CharString index="192">
                        57 338 54 return
                    </CharString>
                    <CharString index="193">
                        5 callgsubr
hstem
111 68 return
                    </CharString>
                    <CharString index="194">
                        -159 1 -30 callgsubr
rlinecurve
return
                    </CharString>
                    <CharString index="195">
                        hintmask 001000000000000000000000000000000000000000000000
return
                    </CharString>
                    <CharString index="196">
                        hintmask 100000000000000000000000000000000000000000000000
return
                    </CharString>
                    <CharString index="197">
                        53 178 47 return
                    </CharString>
                    <CharString index="198">
                        -49 44 callsubr
return
                    </CharString>
                    <CharString index="199">
                        560 -11 57 -44 -21 29 -21 261 return
                    </CharString>
                    <CharString index="200">
                        65 -12 -20 hstemhm
112 74 235 75 return
                    </CharString>
                    <CharString index="201">
                        -162 -258 vvcurveto
-189 vlineto
endchar
                    </CharString>
                <CharString name=".notdef">
                    -66 -200 50 900 50 hstem
0 50 400 50 vstem
-200 vmoveto
500 1000 -500 hlineto
71 -50 rmoveto
358 hlineto
-179 -390 rlineto
200 316 rmoveto
-752 vlineto
-172 376 rlineto
-228 -376 rmoveto
752 vlineto
172 -376 rlineto
28 -60 rmoveto
179 -390 rlineto
-358 hlineto
endchar
                </CharString>
                <CharString name="A">
                    -54 callsubr
hstemhm
54 559 hintmask 10011100
538 -3 -84 callsubr
                </CharString>
                <CharString name="A.sc">
                    -80 callgsubr
73 callsubr
hintmask 10011100
475 -3 rmoveto
hintmask 00111100
-82 callgsubr
hintmask 01011100
-97 callsubr
hintmask 10011100
20 -63 20 -62 19 -62 rrcurveto
hintmask 00111100
-98 callgsubr
                </CharString>
                <CharString name="AE">
                    58 callsubr
446 622 -29 callgsubr
                </CharString>
                <CharString name="AE.sc">
                    19 callsubr
hstem
404 74 vstem
397 522 -79 callgsubr
                </CharString>
                <CharString name="AEacute">
                    58 callsubr
450 802 -107 callgsubr
-4 -180 -29 callgsubr
                </CharString>
                <CharString name="AEacute.sc">
                    19 callsubr
113 -20 hstem
404 74 vstem
400 696 -107 callgsubr
-3 -174 -79 callgsubr
                </CharString>
                <CharString name="Aacute">
                    -54 callsubr
hstemhm
54 559 hintmask 00111100
228 802 -107 callgsubr
hintmask 10011100
310 -805 -84 callsubr
                </CharString>
                <CharString name="Aacute.sc">
                    -80 callgsubr
111 -20 30 callgsubr
195 696 -107 callgsubr
hintmask 10011110
280 -699 -102 callsubr
                </CharString>
                <CharString name="Abreve">
                    -54 callsubr
85 61 hstemhm
54 559 hintmask 00111110
330 776 -106 callsubr
hintmask 10011110
208 -779 rmoveto
hintmask 00111110
-58 callgsubr
hintmask 01011110
-80 callsubr
hintmask 10011110
23 -75 24 -75 23 -75 rrcurveto
hintmask 00111110
-85 callsubr
                </CharString>
                <CharString name="Abreve.sc">
                    -80 callgsubr
85 61 30 callgsubr
297 670 -106 callsubr
hintmask 10011110
178 -673 -102 callsubr
                </CharString>
                <CharString name="Acircumflex">
                    -54 callsubr
hstemhm
54 559 hintmask 00111100
467 772 -90 callgsubr
hintmask 10011100
208 -903 -84 callsubr
                </CharString>
                <CharString name="Acircumflex.sc">
                    -80 callgsubr
118 -20 29 -20 73 callsubr
hintmask 00111011
435 -47 callsubr
hintmask 00111101
-179 -169 rlineto
hintmask 10011011
37 -37 137 128 rlineto
177 -797 rmoveto
hintmask 00111011
-82 callgsubr
hintmask 01011011
-97 callsubr
hintmask 10011011
20 -63 20 -62 19 -62 rrcurveto
hintmask 00111011
-98 callgsubr
                </CharString>
                <CharString name="Adieresis">
                    -54 callsubr
88 146 hstemhm
184.5 -87 callgsubr
hintmask 00111111
481 779 -102 callgsubr
hintmask 10011111
354 -782 rmoveto
hintmask 00111111
-58 callgsubr
hintmask 01011111
-80 callsubr
hintmask 10011111
23 -75 24 -75 23 -75 rrcurveto
hintmask 00111111
-85 callsubr
                </CharString>
                <CharString name="Adieresis.sc">
                    -80 callgsubr
88 146 hstemhm
151.5 -87 callgsubr
hintmask 00111111
448 673 -102 callgsubr
hintmask 10011111
324 -676 rmoveto
hintmask 00111111
-82 callgsubr
hintmask 01011111
-97 callsubr
hintmask 10011111
20 -63 20 -62 19 -62 rrcurveto
hintmask 00111111
-98 callgsubr
                </CharString>
                <CharString name="Agrave">
                    -54 callsubr
hstemhm
54 559 hintmask 00111100
429 795 -98 callsubr
hintmask 10011100
132 -764 -84 callsubr
                </CharString>
                <CharString name="Agrave.sc">
                    -80 callgsubr
104 -20 30 callgsubr
397 689 -98 callsubr
hintmask 10011110
101 -658 -102 callsubr
                </CharString>
                <CharString name="Amacron">
                    -54 callsubr
132 65 hstemhm
54 559 hintmask 00111110
500 888 -57 callgsubr
hintmask 10011110
38 -826 rmoveto
hintmask 00111110
-58 callgsubr
hintmask 01011110
-80 callsubr
hintmask 10011110
23 -75 24 -75 23 -75 rrcurveto
hintmask 00111110
-85 callsubr
                </CharString>
                <CharString name="Amacron.sc">
                    -80 callgsubr
132 65 30 callgsubr
467 782 -57 callgsubr
hintmask 10011110
8 -720 -102 callsubr
                </CharString>
                <CharString name="Aogonek">
                    100 21 -21 24 -21 219 59 342 68 hstemhm
410 64 hintmask 01111000
588 -230 rmoveto
7 60 rlineto
-81 13 -40 18 29 vvcurveto
25 26 34 113 54 vhcurveto
-73 229 -75 228 -80 231 rrcurveto
-104 hlineto
hintmask 10111000
-80 callsubr
22 -71 23 -71 21 -71 rrcurveto
-93 -51 -31 -43 -40 vvcurveto
hintmask 01111000
17 callgsubr
-261 853 rmoveto
8 hlineto
39 -114 38 -114 37 -114 rrcurveto
-235 hlineto
37 114 38 36 callgsubr
rrcurveto
endchar
                </CharString>
                <CharString name="Aogonek.sc">
                    -64 callgsubr
                </CharString>
                <CharString name="Aring">
                    -54 callsubr
64 35 callsubr
198 56 155 55 hintmask 0011111110000000
330 983 -99 callgsubr
hintmask 1001111110000000
207 -937 rmoveto
hintmask 0011111110000000
-58 callgsubr
hintmask 0101111110000000
-80 callsubr
hintmask 1001111110000000
23 -75 24 -75 23 -75 rrcurveto
hintmask 0011111110000000
-85 callsubr
                </CharString>
                <CharString name="Aring.sc">
                    -80 callgsubr
64 35 callsubr
165 56 155 55 hintmask 0011111110000000
297 2 callsubr
hintmask 1001111110000000
177 -831 rmoveto
hintmask 0011111110000000
-82 callgsubr
hintmask 0101111110000000
-97 callsubr
hintmask 1001111110000000
20 -63 20 -62 19 -62 rrcurveto
hintmask 0011111110000000
-98 callgsubr
                </CharString>
                <CharString name="Aringacute">
                    -54 callsubr
64 35 callsubr
198 56 155 55 hintmask 0011111110000000
228 1065 -107 callgsubr
102 -82 -99 callgsubr
hintmask 1001111110000000
207 -937 rmoveto
hintmask 0011111110000000
-58 callgsubr
hintmask 0101111110000000
-80 callsubr
hintmask 1001111110000000
23 -75 24 -75 23 -75 rrcurveto
hintmask 0011111110000000
-85 callsubr
                </CharString>
                <CharString name="Aringacute.sc">
                    -80 callgsubr
64 35 callsubr
165 56 155 55 hintmask 0011111110000000
195 960 -107 callgsubr
102 -83 -99 callgsubr
hintmask 1001111110000000
177 -831 rmoveto
hintmask 0011111110000000
-82 callgsubr
hintmask 0101111110000000
-97 callsubr
hintmask 1001111110000000
20 -63 20 -62 19 -62 rrcurveto
hintmask 0011111110000000
-98 callgsubr
                </CharString>
                <CharString name="Atilde">
                    -54 callsubr
86 64 54 63 hstemhm
54 559 hintmask 00111111
412 777 rmoveto
49 47 59 92 36 hvcurveto
-41 20 rlineto
-67 -28 -27 -40 -27 -7 callsubr
hintmask 10011111
126 -780 rmoveto
hintmask 00111111
-58 callgsubr
hintmask 01011111
-80 callsubr
hintmask 10011111
23 -75 24 -75 23 -75 rrcurveto
hintmask 00111111
-85 callsubr
                </CharString>
                <CharString name="Atilde.sc">
                    -73 callgsubr
                </CharString>
                <CharString name="B">
                    79 -10 63 -32 -21 316 60 258 64 -10 -20 hstemhm
121 74 279 72 -48 73 hintmask 10110101
571 194 rmoveto
96 -66 51 -103 19 vhcurveto
hintmask 01101110
82 25 62 54 91 vvcurveto
149 -170 40 -255 -31 vhcurveto
-688 vlineto
hintmask 10110101
250 -34 200 53 175 vvcurveto
-376 436 rmoveto
hintmask 10110110
170 18 109 -32 -104 vvcurveto
-98 -72 -43 -207 5 vhcurveto
hintmask 10110101
-316 vmoveto
256 vlineto
202 7 101 -25 -111 vvcurveto
-120 -116 -31 -187 24 vhcurveto
endchar
                </CharString>
                <CharString name="B.sc">
                    -59 callgsubr
                </CharString>
                <CharString name="C">
                    92 callgsubr
529 59 -69 callgsubr
endchar
                </CharString>
                <CharString name="C.sc">
                    -18 -7 62 467 69 hstem
69 74 0 callsubr
endchar
                </CharString>
                <CharString name="Cacute">
                    92 callgsubr
242 807 -107 callgsubr
287 -748 -69 callgsubr
endchar
                </CharString>
                <CharString name="Cacute.sc">
                    30 callsubr
110 -20 hstem
69 74 vstem
206 701 -107 callgsubr
267 -646 -91 callsubr
endchar
                </CharString>
                <CharString name="Ccaron">
                    92 callgsubr
352 769 -104 callsubr
178 -710 -69 callgsubr
endchar
                </CharString>
                <CharString name="Ccaron.sc">
                    91 callgsubr
316 663 -104 callsubr
158 -608 -91 callsubr
endchar
                </CharString>
                <CharString name="Ccedilla">
                    44 -241 60 173 68 callsubr
219 57 vstem
529 59 -69 callgsubr
-268 -65 rmoveto
-84 callgsubr
                </CharString>
                <CharString name="Ccedilla.sc">
                    -49 callgsubr
                </CharString>
                <CharString name="Cdotaccent">
                    44 -8 67 564 75 86 146 hstem
74 76 160.5 75 vstem
383 784 -76 callsubr
220 -725 -69 callgsubr
endchar
                </CharString>
                <CharString name="Cdotaccent.sc">
                    30 callsubr
58 callgsubr
131.5 75 vstem
347 678 -76 callsubr
200 -623 -91 callsubr
endchar
                </CharString>
                <CharString name="D">
                    47 callsubr
636 358 -11 callgsubr
                </CharString>
                <CharString name="D.sc">
                    48 callgsubr
569 303 -68 callgsubr
                </CharString>
                <CharString name="Dcaron">
                    47 callsubr
351 772 -104 callsubr
286 -414 -11 callgsubr
                </CharString>
                <CharString name="Dcaron.sc">
                    48 callgsubr
319 665 -104 callsubr
251 -362 -68 callgsubr
                </CharString>
                <CharString name="Dcroat">
                    -52 callgsubr
                </CharString>
                <CharString name="Dcroat.sc">
                    -87 callsubr
                </CharString>
                <CharString name="E">
                    -23 callsubr
54 callsubr
vstem
525 66 rmoveto
-72 callgsubr
                </CharString>
                <CharString name="E.sc">
                    -65 callsubr
76 callsubr
470 62 rmoveto
-92 callsubr
                </CharString>
                <CharString name="Eacute">
                    -23 callsubr
54 callsubr
vstem
219 802 -107 callgsubr
306 -736 rmoveto
-72 callgsubr
                </CharString>
                <CharString name="Eacute.sc">
                    -65 callsubr
113 -20 76 callsubr
185 696 -107 callgsubr
285 -634 rmoveto
-92 callsubr
                </CharString>
                <CharString name="Ebreve">
                    -23 callsubr
88 61 54 callsubr
vstem
321 776 -106 callsubr
204 -710 rmoveto
-72 callgsubr
                </CharString>
                <CharString name="Ebreve.sc">
                    -65 callsubr
87 61 76 callsubr
287 670 -106 callsubr
183 -608 rmoveto
-92 callsubr
                </CharString>
                <CharString name="Ecaron">
                    -23 callsubr
54 callsubr
vstem
329 764 -104 callsubr
197 -698 rmoveto
-72 callgsubr
                </CharString>
                <CharString name="Ecaron.sc">
                    -65 callsubr
76 callsubr
295 658 -104 callsubr
176 -596 rmoveto
-92 callsubr
                </CharString>
                <CharString name="Ecircumflex">
                    -23 callsubr
54 callsubr
vstem
458 772 -90 callgsubr
204 -834 rmoveto
-72 callgsubr
                </CharString>
                <CharString name="Ecircumflex.sc">
                    -65 callsubr
120 -20 29 -16 callsubr
hintmask 11101100
424 -47 callsubr
hintmask 11110100
-179 -169 rlineto
hintmask 11101100
37 -37 137 128 rlineto
183 -732 rmoveto
-92 callsubr
                </CharString>
                <CharString name="Edieresis">
                    -23 callsubr
91 146 hstemhm
121 74 -19.5 -87 callgsubr
hintmask 11111010
472 779 rmoveto
-18 callsubr
-75 hlineto
-1 -146 rlineto
hintmask 11110110
-148 hmoveto
2 -19 callsubr
-1 -146 rlineto
350 -713 rmoveto
hintmask 11111010
-72 callgsubr
                </CharString>
                <CharString name="Edieresis.sc">
                    -51 callgsubr
                </CharString>
                <CharString name="Edotaccent">
                    -23 callsubr
91 146 54 callsubr
92.5 75 vstem
360 779 -76 callsubr
239 -713 rmoveto
-72 callgsubr
                </CharString>
                <CharString name="Edotaccent.sc">
                    -65 callsubr
90 146 -22 callgsubr
68.5 75 vstem
326 673 -76 callsubr
218 -611 rmoveto
-92 callsubr
                </CharString>
                <CharString name="Egrave">
                    -23 callsubr
54 callsubr
vstem
420 795 -98 callsubr
128 -695 rmoveto
-72 callgsubr
                </CharString>
                <CharString name="Egrave.sc">
                    -65 callsubr
106 -20 76 callsubr
386 689 -98 callsubr
107 -593 rmoveto
-92 callsubr
                </CharString>
                <CharString name="Emacron">
                    -23 callsubr
135 65 54 callsubr
vstem
491 888 -57 callgsubr
34 -757 rmoveto
-72 callgsubr
                </CharString>
                <CharString name="Emacron.sc">
                    -65 callsubr
134 65 76 callsubr
456 782 -57 callgsubr
14 -655 rmoveto
-92 callsubr
                </CharString>
                <CharString name="Eogonek">
                    -23 callsubr
54 callsubr
120 65 vstem
500 -173 rmoveto
-2 callsubr
60 callgsubr
-400 -688 308 hlineto
-86 -48 -28 -42 -38 vvcurveto
17 callgsubr
endchar
                </CharString>
                <CharString name="Eogonek.sc">
                    -33 callsubr
                </CharString>
                <CharString name="Eth">
                    -52 callgsubr
                </CharString>
                <CharString name="Eth.sc">
                    -87 callsubr
                </CharString>
                <CharString name="Euro">
                    58 -2 -21 241 62 -56 58 114 58 258 -20 hstemhm
144 70 hintmask 10111100
546 40 rmoveto
-197 29 -87 59 -32 96 rrcurveto
247 hlineto
4 58 rlineto
-263 hlineto
-3 20 -1 21 23 vvcurveto
18 1 16 1 16 vhcurveto
266 hlineto
3 58 rlineto
-260 hlineto
26 101 79 52 208 32 -13 73 rcurveline
-236 -46 -99 -85 -32 -122 rrcurveto
-85 -63 73 hlineto
hintmask 11011100
-1 -17 -1 -18 -19 vvcurveto
-22 1 -20 2 -20 vhcurveto
-73 -62 85 hlineto
38 -130 108 -83 230 -28 rrcurveto
endchar
                </CharString>
                <CharString name="F">
                    18 21 -21 308 59 255 66 54 callsubr
vstem
478 308 rmoveto
59 -283 255 326 66 -400 -688 74 308 vlineto
endchar
                </CharString>
                <CharString name="F.sc">
                    7 callgsubr
                </CharString>
                <CharString name="G">
                    68 callgsubr
hstem
74 76 361 74 vstem
587 6 -74 callsubr
endchar
                </CharString>
                <CharString name="G.sc">
                    49 -9 58 473 69 hstem
69 74 308 -17 callsubr
endchar
                </CharString>
                <CharString name="Gbreve">
                    68 callgsubr
83 61 hstem
74 76 361 74 vstem
361 781 -106 callsubr
226 -775 -74 callsubr
endchar
                </CharString>
                <CharString name="Gbreve.sc">
                    49 -9 58 473 69 84 61 hstem
69 74 308 71 vstem
329 675 -106 callsubr
194 -670 -95 callgsubr
endchar
                </CharString>
                <CharString name="Gcommaaccent">
                    68 callgsubr
hstem
74 76 181 74 106 74 vstem
587 6 -74 callsubr
-280 -309 -103 callgsubr
                </CharString>
                <CharString name="Gcommaaccent.sc">
                    -55 callsubr
                </CharString>
                <CharString name="Gdotaccent">
                    68 callgsubr
86 146 hstem
74 76 178.5 75 107.5 74 vstem
401 784 -76 callsubr
260 -778 -74 callsubr
endchar
                </CharString>
                <CharString name="Gdotaccent.sc">
                    49 -9 58 473 69 58 callgsubr
153.5 75 79.5 71 vstem
369 678 -76 callsubr
228 -673 -95 callgsubr
endchar
                </CharString>
                <CharString name="H">
                    176 21 -21 320 58 310 -20 54 callsubr
352 74 vstem
547 hmoveto
74 688 -74 -310 -352 310 -74 -688 74 320 352 hlineto
endchar
                </CharString>
                <CharString name="H.sc">
                    1 callsubr
                </CharString>
                <CharString name="Hbar">
                    196 21 -21 305 58 131 58 -55 52 -52 191 hstemhm
131 74 352 74 hintmask 11010110
557 363 rmoveto
-352 134 352 hlineto
-497 vmoveto
74 hlineto
hintmask 11100110
494 82 58 -82 vlineto
hintmask 11001110
136 -74 vlineto
hintmask 11010110
-139 -352 vlineto
hintmask 11001110
139 -74 vlineto
hintmask 11100110
-136 -82 -58 82 -494 74 305 352 vlineto
endchar
                </CharString>
                <CharString name="Hbar.sc">
                    -40 callgsubr
                </CharString>
                <CharString name="I">
                    26 callsubr
69 callsubr
315 627 -70 callgsubr
                </CharString>
                <CharString name="I.sc">
                    -20 callsubr
54 callgsubr
286 526 -94 callgsubr
                </CharString>
                <CharString name="Iacute">
                    26 callsubr
69 callsubr
177 802 -107 callgsubr
138 -175 -70 callgsubr
                </CharString>
                <CharString name="Iacute.sc">
                    -20 callsubr
113 -20 54 callgsubr
148 696 -107 callgsubr
138 -170 -94 callgsubr
                </CharString>
                <CharString name="Ibreve">
                    26 callsubr
88 61 69 callsubr
279 776 -106 callsubr
36 -149 -70 callgsubr
                </CharString>
                <CharString name="Ibreve.sc">
                    -20 callsubr
87 61 54 callgsubr
250 670 -106 callsubr
36 -144 -94 callgsubr
                </CharString>
                <CharString name="Icircumflex">
                    26 callsubr
69 callsubr
417 772 -90 callgsubr
35 -273 -70 callgsubr
                </CharString>
                <CharString name="Icircumflex.sc">
                    -33 callgsubr
                </CharString>
                <CharString name="Idieresis">
                    26 callsubr
91 146 hstem
133.5 75.5 32 74 41.5 74.5 vstem
430 779 -102 callgsubr
182 -152 -70 callgsubr
                </CharString>
                <CharString name="Idieresis.sc">
                    -20 callsubr
90 146 hstem
103.5 75.5 33 74 40.5 74.5 vstem
400 673 -102 callgsubr
183 -147 -94 callgsubr
                </CharString>
                <CharString name="Idotaccent">
                    26 callsubr
91 146 hstemhm
241 74 -69.5 75 hintmask 11101000
318 779 -76 callsubr
hintmask 11110000
71 -152 -70 callgsubr
                </CharString>
                <CharString name="Idotaccent.sc">
                    -20 callsubr
90 146 hstemhm
212 74 -69.5 75 hintmask 11101000
289 673 -76 callsubr
hintmask 11110000
71 -147 -94 callgsubr
                </CharString>
                <CharString name="Igrave">
                    26 callsubr
69 callsubr
379 795 -98 callsubr
-41 -134 -70 callgsubr
                </CharString>
                <CharString name="Igrave.sc">
                    -20 callsubr
106 -20 54 callgsubr
349 689 -98 callsubr
-40 -129 -94 callgsubr
                </CharString>
                <CharString name="Imacron">
                    26 callsubr
135 65 69 callsubr
449 888 -57 callgsubr
-134 -196 -70 callgsubr
                </CharString>
                <CharString name="Imacron.sc">
                    -20 callsubr
134 65 54 callgsubr
419 782 -57 callgsubr
-133 -191 -94 callgsubr
                </CharString>
                <CharString name="Iogonek">
                    26 callsubr
hstemhm
158 64 19 74 hintmask 11010000
355 -173 rmoveto
hintmask 11110000
-87 17 -46 18 36 vvcurveto
24 22 32 71 46 vhcurveto
155 hlineto
5 61 rlineto
hintmask 11010000
-160 566 156 61 -386 -61 156 -566 hlineto
hintmask 11110000
-156 -61 158 hlineto
-62 -43 -23 -37 -37 vvcurveto
-57 55 -40 134 -19 vhcurveto
endchar
                </CharString>
                <CharString name="Iogonek.sc">
                    -37 callsubr
                </CharString>
                <CharString name="J">
                    -63 -12 71 568 61 hstem
317 74 vstem
110 688 rmoveto
-61 207 -407 vlineto
-139 -31 -33 -213 11 vhcurveto
-71 vlineto
241 -7 77 82 157 vvcurveto
468 vlineto
endchar
                </CharString>
                <CharString name="J.sc">
                    -3 callgsubr
                </CharString>
                <CharString name="K">
                    59 callgsubr
hintmask 10011100
525 -6 rmoveto
hintmask 00111100
31 callsubr
hintmask 01011100
-688 74 315 86 vlineto
endchar
                </CharString>
                <CharString name="K.sc">
                    -17 callgsubr
                </CharString>
                <CharString name="Kcommaaccent">
                    59 callgsubr
102 74 hintmask 10011110
525 -6 rmoveto
hintmask 00111110
31 callsubr
hintmask 01011110
-688 74 315 86 vlineto
-8 -612 -103 callgsubr
                </CharString>
                <CharString name="Kcommaaccent.sc">
                    -45 callsubr
                </CharString>
                <CharString name="L">
                    93 callgsubr
64 callsubr
endchar
                </CharString>
                <CharString name="L.sc">
                    -49 55 callsubr
521 -74 -583 hlineto
endchar
                </CharString>
                <CharString name="Lacute">
                    93 callgsubr
vstem
213 802 -107 callgsubr
301 -802 rmoveto
24 callgsubr
endchar
                </CharString>
                <CharString name="Lacute.sc">
                    -49 0 62 521 -20 133 -20 76 callsubr
169 696 -107 callgsubr
291 -696 rmoveto
-23 callgsubr
endchar
                </CharString>
                <CharString name="Lcaron">
                    7 0 66 622 -20 107 -20 54 callsubr
212 73 vstem
379 512 -62 callgsubr
135 -512 rmoveto
24 callgsubr
endchar
                </CharString>
                <CharString name="Lcaron.sc">
                    -49 0 62 521 -20 154 -20 -22 callgsubr
173 73 vstem
330 456 -62 callgsubr
130 -456 rmoveto
-23 callgsubr
endchar
                </CharString>
                <CharString name="Lcommaaccent">
                    93 callgsubr
90 74 64 callsubr
140 -291 -103 callgsubr
                </CharString>
                <CharString name="Lcommaaccent.sc">
                    -13 callgsubr
                </CharString>
                <CharString name="Ldot">
                    11 0 66 230 108 284 -20 54 callsubr
199 90 64 callsubr
360 67 callgsubr
                </CharString>
                <CharString name="Ldot.sc">
                    -13 callsubr
                </CharString>
                <CharString name="Lslash">
                    11 0 66 622 -20 54 callsubr
vstem
514 hmoveto
7 66 rlineto
-326 309 hlineto
160 85 -13 55 -147 -78 rlineto
251 -74 -290 vlineto
-92 -49 13 -55 79 42 rlineto
-336 vlineto
endchar
                </CharString>
                <CharString name="Lslash.sc">
                    -7 callgsubr
                </CharString>
                <CharString name="M">
                    296 21 -21 70 103 421 94 hstem
121 69 477 73 vstem
630 688 rmoveto
0 -167 -448 -26 -67 vhcurveto
-7 hlineto
-27 67 -167 448 0 vvcurveto
-115 -688 70 hlineto
-2 594 rlineto
7 hlineto
199 -524 rlineto
67 hlineto
199 524 rlineto
7 hlineto
-2 -594 rlineto
74 688 hlineto
endchar
                </CharString>
                <CharString name="M.sc">
                    -44 callgsubr
                </CharString>
                <CharString name="N">
                    -8 callsubr
533 hmoveto
89 688 -70 hlineto
hintmask 10111000
-39 callgsubr
endchar
                </CharString>
                <CharString name="N.sc">
                    103 0 114 373 96 hstem
111 68 310.5 7 callsubr
endchar
                </CharString>
                <CharString name="NUL">
                    -562 endchar
                </CharString>
                <CharString name="Nacute">
                    -8 callsubr
271 802 -107 callgsubr
262 -802 rmoveto
89 688 -70 hlineto
hintmask 10111000
-39 callgsubr
endchar
                </CharString>
                <CharString name="Nacute.sc">
                    5 callgsubr
113 -20 4 callgsubr
234 696 -107 callgsubr
236 -696 rmoveto
-82 callsubr
endchar
                </CharString>
                <CharString name="Ncaron">
                    -8 callsubr
381 764 -104 callsubr
153 -764 rmoveto
89 688 -70 hlineto
hintmask 10111000
-39 callgsubr
endchar
                </CharString>
                <CharString name="Ncaron.sc">
                    37 callgsubr
344 658 -104 callsubr
127 -658 rmoveto
-82 callsubr
endchar
                </CharString>
                <CharString name="Ncommaaccent">
                    177 0 122 -101 -21 589 99 hstemhm
121 47 callgsubr
152.5 74 135.5 47 callgsubr
hintmask 01111100
533 hmoveto
89 688 -70 hlineto
hintmask 10111100
-39 callgsubr
122 -880 -103 callgsubr
                </CharString>
                <CharString name="Ncommaaccent.sc">
                    -41 callgsubr
                </CharString>
                <CharString name="Ntilde">
                    177 0 122 -101 -21 589 99 89 64 54 63 hstemhm
121 47 callgsubr
362 47 callgsubr
hintmask 01111110
455 777 rmoveto
49 47 59 92 36 hvcurveto
-41 20 rlineto
-67 -28 -27 -40 -27 -7 callsubr
78 -777 rmoveto
89 688 -70 hlineto
hintmask 10111110
-39 callgsubr
endchar
                </CharString>
                <CharString name="Ntilde.sc">
                    5 callgsubr
88 83 callsubr
-14 callgsubr
hintmask 11101110
418 33 callgsubr
hintmask 11011110
-71 callgsubr
hhcurveto
hintmask 11101110
-10 callgsubr
hintmask 11011110
52 -671 rmoveto
-82 callsubr
endchar
                </CharString>
                <CharString name="O">
                    -5 callgsubr
354 -15 -101 callsubr
                </CharString>
                <CharString name="O.sc">
                    -29 callsubr
-26 callsubr
317 -13 -107 callsubr
                </CharString>
                <CharString name="OE">
                    417 0 66 254 58 244 66 hstem
74 74 352 74 vstem
148 346 rmoveto
190 120 82 232 3 vhcurveto
-554 vlineto
-243 4 -109 81 194 vvcurveto
756 -280 rmoveto
-330 254 283 58 -283 244 326 66 -365 hlineto
-297 -164 -130 -226 -227 142 -105 316 hvcurveto
365 hlineto
endchar
                </CharString>
                <CharString name="OE.sc">
                    -46 callgsubr
                </CharString>
                <CharString name="Oacute">
                    -5 callgsubr
266 812 -107 callgsubr
88 -827 -101 callsubr
                </CharString>
                <CharString name="Oacute.sc">
                    -29 callsubr
110 -20 -26 callsubr
228 705 -107 callgsubr
89 -718 -107 callsubr
                </CharString>
                <CharString name="Obreve">
                    166 -15 64 590 64 83 61 hstem
74 75 435 74 vstem
368 786 -106 callsubr
-14 -801 -101 callsubr
                </CharString>
                <CharString name="Obreve.sc">
                    -29 callsubr
84 61 -26 callsubr
330 679 -106 callsubr
-13 -692 -107 callsubr
                </CharString>
                <CharString name="Ocircumflex">
                    -5 callgsubr
506 782 -90 callgsubr
-15 -925 -101 callsubr
                </CharString>
                <CharString name="Ocircumflex.sc">
                    -29 callsubr
117 -20 -26 callsubr
467 675 -90 callgsubr
-13 -816 -107 callsubr
                </CharString>
                <CharString name="Odieresis">
                    166 -15 64 590 64 86 146 hstem
74 75 73.5 -87 callgsubr
64 74 vstem
519 789 -102 callgsubr
132 -804 -101 callsubr
                </CharString>
                <CharString name="Odieresis.sc">
                    -29 callsubr
58 callgsubr
41.5 -87 callgsubr
31 74 vstem
481 682 -102 callgsubr
133 -695 -107 callsubr
                </CharString>
                <CharString name="Ograve">
                    -5 callgsubr
468 805 -98 callsubr
-91 -786 -101 callsubr
                </CharString>
                <CharString name="Ograve.sc">
                    -29 callsubr
103 -20 -26 callsubr
429 698 -98 callsubr
-89 -677 -107 callsubr
                </CharString>
                <CharString name="Ohungarumlaut">
                    -5 callgsubr
222 806 -78 callgsubr
-79 -820 -101 callsubr
                </CharString>
                <CharString name="Ohungarumlaut.sc">
                    -29 callsubr
103 -20 21 -20 hstemhm
69 74 370 74 hintmask 11011100
184 699 -64 callsubr
-78 -711 -107 callsubr
                </CharString>
                <CharString name="Omacron">
                    166 -15 64 590 64 130 65 hstem
74 75 435 74 vstem
538 898 -57 callgsubr
-184 -848 -101 callsubr
                </CharString>
                <CharString name="Omacron.sc">
                    -29 callsubr
131 65 -26 callsubr
500 791 -57 callgsubr
-183 -739 -107 callsubr
                </CharString>
                <CharString name="Omega">
                    150 0 66 -40 -21 629 68 hstemhm
106 68 366 68 hintmask 01111000
297 5 rmoveto
-81 162 -42 145 102 vvcurveto
145 80 75 106 106 74 -76 -142 -104 -43 -147 -81 -160 vhcurveto
3 -5 rlineto
hintmask 10111000
221 66 -145 hlineto
69 131 44 129 107 vvcurveto
170 -103 99 -140 -139 -120 -98 -179 -99 39 -129 70 -131 vhcurveto
-139 -66 218 hlineto
endchar
                </CharString>
                <CharString name="Oslash">
                    39 callgsubr
149 348 -63 callsubr
                </CharString>
                <CharString name="Oslash.sc">
                    -67 callsubr
                </CharString>
                <CharString name="Oslashacute">
                    39 callgsubr
263 809 -107 callgsubr
-114 -461 -63 callsubr
                </CharString>
                <CharString name="Oslashacute.sc">
                    -74 callgsubr
                </CharString>
                <CharString name="Otilde">
                    166 -15 64 590 64 84 64 54 63 hstem
74 75 435 74 vstem
451 787 rmoveto
49 47 59 92 36 hvcurveto
-41 20 rlineto
-67 -28 -27 -40 -27 -7 callsubr
-97 -802 -101 callsubr
                </CharString>
                <CharString name="Otilde.sc">
                    -29 callsubr
85 83 callsubr
69 74 370 74 hintmask 11101110
412 680 -77 callgsubr
hintmask 11011110
-71 callgsubr
hhcurveto
hintmask 11101110
-10 callgsubr
hintmask 11011110
-95 -693 -107 callsubr
                </CharString>
                <CharString name="P">
                    58 21 -21 230 70 334 65 -12 -20 hstemhm
121 74 292 74 hintmask 11101100
195 hmoveto
230 vlineto
220 12 146 75 163 vvcurveto
hintmask 11011100
165 -153 87 -287 -45 vhcurveto
-687 vlineto
hintmask 11101100
366 465 rmoveto
-130 -104 -46 -188 11 vhcurveto
329 vlineto
194 24 98 -66 -122 vvcurveto
endchar
                </CharString>
                <CharString name="P.sc">
                    -34 callsubr
                </CharString>
                <CharString name="Q">
                    166 -14 63 -60 60 590 64 hstemhm
74 75 435 74 hintmask 01111000
595 -147 rmoveto
24 67 -220 67 1 2 rlineto
146 23 112 138 209 vvcurveto
214 -119 130 -160 -168 -137 -143 -230 vhcurveto
hintmask 10111000
-201 105 -128 147 -15 vhcurveto
-17 -43 rlineto
54 696 rmoveto
128 93 -110 -189 hvcurveto
hintmask 01111000
-187 -86 -104 -128 -129 -92 110 189 vhcurveto
hintmask 10111000
185 87 106 127 vhcurveto
endchar
                </CharString>
                <CharString name="Q.sc">
                    -48 callgsubr
                </CharString>
                <CharString name="R">
                    -32 callgsubr
284 74 hintmask 10011011
526 -11 -61 callsubr
                </CharString>
                <CharString name="R.sc">
                    -65 callgsubr
hstemhm
111 74 239 74 hintmask 10011011
465 -9 -75 callsubr
                </CharString>
                <CharString name="R_p">
                    500 69 callgsubr
65 -39 -21 29 -21 24 -21 257 57.5 77 callgsubr
61 -10 -20 112 93 callsubr
107 73 250 71 hintmask 0110001101011110
454 -11 rmoveto
hintmask 0100011100111110
40 callsubr
hintmask 0100101101011110
12 callsubr
hintmask 0110001101011110
584 -264 rmoveto
-32 -30 7 11 -32 hvcurveto
176 -2 101 -3 95 vhcurveto
28 34 42 21 42 hhcurveto
80 57 -77 -147 -154 -66 -61 -90 hvcurveto
-94 -235 rmoveto
hintmask 0101001101011110
175 vlineto
hintmask 0110001101011110
-3 19 20 -2 19 hhcurveto
147 116 96 204 165 -76 100 -109 -59 -50 -30 -34 -35 hvcurveto
hintmask 1010001011011110
-5 54 -67 -5 rlineto
6 -117 1 94 callsubr
                </CharString>
                <CharString name="Racute">
                    -32 callgsubr
284 74 hintmask 00111011
213 809 -107 callgsubr
hintmask 10011011
313 -820 -61 callsubr
                </CharString>
                <CharString name="Racute.sc">
                    -65 callgsubr
142 -16 callsubr
239 74 hintmask 0011101110000000
182 703 -107 callgsubr
hintmask 1001101110000000
283 -712 rmoveto
hintmask 0011011110000000
79 12 -156 250 rlineto
62 40 48 54 78 vvcurveto
119 -108 76 -279 -39 vhcurveto
hintmask 0101101110000000
-50 callgsubr
                </CharString>
                <CharString name="Rcaron">
                    -32 callgsubr
284 74 hintmask 00111011
323 771 -104 callsubr
hintmask 10011011
204 -782 -61 callsubr
                </CharString>
                <CharString name="Rcaron.sc">
                    -65 callgsubr
hstemhm
111 74 239 74 hintmask 00111011
293 665 -104 callsubr
hintmask 10011011
173 -674 -75 callsubr
                </CharString>
                <CharString name="Rcommaaccent">
                    -32 callgsubr
119 74 91 74 hintmask 1001101110000000
526 -11 rmoveto
hintmask 0011011110000000
79 14 -178 294 rlineto
71 48 55 65 93 vvcurveto
140 -123 91 -309 -47 vhcurveto
hintmask 0101101110000000
-687 74 258 vlineto
169 4 rlineto
-169 366 rmoveto
197 28 87 -64 -104 vvcurveto
-75 -43 -55 -59 -39 vhcurveto
-182 -3 rlineto
95 -618 -103 callgsubr
                </CharString>
                <CharString name="Rcommaaccent.sc">
                    -65 callgsubr
hstemhm
111 74 90 74 75 74 hintmask 1001101110000000
465 -9 rmoveto
hintmask 0011011110000000
79 12 -156 250 rlineto
62 40 48 54 78 vvcurveto
119 -108 76 -279 -39 vhcurveto
hintmask 0101101110000000
-81 callsubr
66 -569 -103 callgsubr
                </CharString>
                <CharString name="S">
                    75 callsubr
90 62 -10 callsubr
                </CharString>
                <CharString name="S.sc">
                    -50 -7 61 473 62 hstem
83 74 215 -9 callsubr
endchar
                </CharString>
                <CharString name="Sacute">
                    75 callsubr
201 807 -107 callgsubr
-111 -745 -10 callsubr
                </CharString>
                <CharString name="Sacute.sc">
                    -50 -7 61 473 62 112 -20 hstem
83 74 215 75 vstem
170 701 -107 callgsubr
-86 -643 rmoveto
-100 callsubr
endchar
                </CharString>
                <CharString name="Scaron">
                    75 callsubr
311 769 -104 callsubr
-220 -707 -10 callsubr
                </CharString>
                <CharString name="Scaron.sc">
                    75 callgsubr
280 663 -104 callsubr
-195 -605 rmoveto
-100 callsubr
endchar
                </CharString>
                <CharString name="Scedilla">
                    7 -248 60 179 67 571 67 hstem
89 74 160 57 43 74 vstem
90 62 -79 callsubr
118 -142 rmoveto
-84 callgsubr
                </CharString>
                <CharString name="Scedilla.sc">
                    -50 -246 60 179 61 473 62 hstemhm
83 74 130 57 28 75 hintmask 11110100
-68 callsubr
88 -136 rmoveto
hintmask 11111100
-84 callgsubr
                </CharString>
                <CharString name="Scommaaccent">
                    43 callsubr
94 74 92 74 vstem
90 62 -79 callsubr
143 -364 -103 callgsubr
                </CharString>
                <CharString name="Scommaaccent.sc">
                    -49 callsubr
                </CharString>
                <CharString name="T">
                    14 callsubr
endchar
                </CharString>
                <CharString name="T.sc">
                    -31 21 -21 521 62 hstem
232 73 vstem
305 521 56 callgsubr
                </CharString>
                <CharString name="Tcaron">
                    35 21 -21 622 66 hstem
264 74 vstem
305 764 -104 callsubr
34 -142 rmoveto
214 66 -497 hlineto
-7 -66 rlineto
216 -622 74 hlineto
endchar
                </CharString>
                <CharString name="Tcaron.sc">
                    -15 callgsubr
                </CharString>
                <CharString name="Tcommaaccent">
                    14 callsubr
-96 -291 -103 callgsubr
                </CharString>
                <CharString name="Tcommaaccent.sc">
                    -31 21 -21 521 62 hstemhm
232 73 -71 74 hintmask 11100000
305 521 -31 callsubr
hintmask 11010000
-95 -291 -103 callgsubr
                </CharString>
                <CharString name="Thorn">
                    54 21 -21 120 70 322 66 -66 176 hstemhm
121 74 292 74 hintmask 11101100
195 hmoveto
120 vlineto
220 11 146 72 161 vvcurveto
150 -130 81 -236 -20 vhcurveto
hintmask 11011100
113 -74 -688 vlineto
hintmask 11101100
366 349 rmoveto
-125 -104 -45 -188 11 vhcurveto
317 vlineto
194 24 98 -63 -119 vvcurveto
endchar
                </CharString>
                <CharString name="Thorn.sc">
                    -35 callsubr
                </CharString>
                <CharString name="U">
                    -11 callsubr
359 -15 -86 callsubr
                </CharString>
                <CharString name="U.sc">
                    -28 callgsubr
6 callgsubr
321 -13 -104 callgsubr
                </CharString>
                <CharString name="Uacute">
                    -11 callsubr
261 802 -107 callgsubr
98 -817 -86 callsubr
                </CharString>
                <CharString name="Uacute.sc">
                    -28 callgsubr
133 -20 6 callgsubr
223 696 -107 callgsubr
98 -709 -104 callgsubr
                </CharString>
                <CharString name="Ubreve">
                    161 -15 67 636 -20 108 61 hstem
112 74 355 74 vstem
363 776 -106 callsubr
-4 -791 -86 callsubr
                </CharString>
                <CharString name="Ubreve.sc">
                    -28 callgsubr
107 61 6 callgsubr
325 670 -106 callsubr
-4 -683 -104 callgsubr
                </CharString>
                <CharString name="Ucircumflex">
                    -11 callsubr
500 772 -90 callgsubr
-4 -915 -86 callsubr
                </CharString>
                <CharString name="Ucircumflex.sc">
                    -28 callgsubr
140 72 callsubr
102 74 300 74 hintmask 11011100
463 -38 callsubr
-5 -807 -104 callgsubr
                </CharString>
                <CharString name="Udieresis">
                    161 -15 67 636 -20 111 146 hstemhm
112 74 30.5 -87 callgsubr
27 74 vstemhm
513 779 -102 callgsubr
143 -794 rmoveto
hintmask 11111010
161 95 100 176 hvcurveto
427 -74 -436 vlineto
-140 -55 -60 -117 -115 -68 70 152 vhcurveto
414 -74 -430 vlineto
hintmask 11111110
-176 92 -97 155 vhcurveto
endchar
                </CharString>
                <CharString name="Udieresis.sc">
                    -28 callgsubr
110 146 hstemhm
102 74 3.5 -87 callgsubr
-1 74 hintmask 11101100
476 673 -102 callgsubr
hintmask 11110010
142 -686 -104 callgsubr
                </CharString>
                <CharString name="Ugrave">
                    -11 callsubr
462 795 -98 callsubr
-80 -776 -86 callsubr
                </CharString>
                <CharString name="Ugrave.sc">
                    -28 callgsubr
126 -20 6 callgsubr
425 689 -98 callsubr
-81 -668 -104 callgsubr
                </CharString>
                <CharString name="Uhungarumlaut">
                    -11 callsubr
217 796 -78 callgsubr
-69 -810 -86 callsubr
                </CharString>
                <CharString name="Uhungarumlaut.sc">
                    -28 callgsubr
126 -20 21 -20 hstemhm
102 74 300 74 hintmask 11011100
179 690 -64 callsubr
-69 -702 -104 callgsubr
                </CharString>
                <CharString name="Umacron">
                    161 -15 67 636 -20 155 65 hstem
112 74 355 74 vstem
532 888 -57 callgsubr
-173 -838 -86 callsubr
                </CharString>
                <CharString name="Umacron.sc">
                    -28 callgsubr
154 65 6 callgsubr
495 782 -57 callgsubr
-174 -730 -104 callgsubr
                </CharString>
                <CharString name="Uogonek">
                    161 -15 67 636 -20 hstem
112 74 89 64 202 74 vstem
453 -233 rmoveto
7 60 rlineto
-81 14 -40 18 32 vvcurveto
25 21 33 108 54 vhcurveto
94 48 53 67 143 vvcurveto
427 -74 -436 vlineto
-140 -55 -60 -117 -115 -68 70 152 vhcurveto
414 -74 -430 vlineto
-173 88 -96 152 -4 vhcurveto
-57 -40 -20 -35 -34 vvcurveto
-54 49 -38 129 -17 vhcurveto
endchar
                </CharString>
                <CharString name="Uogonek.sc">
                    -45 callgsubr
                </CharString>
                <CharString name="Uring">
                    161 -15 67 636 -20 87 49 130 49 hstem
112 74 44 56 155 55 45 74 vstem
362 983 -99 callgsubr
-4 -949 -86 callsubr
                </CharString>
                <CharString name="Uring.sc">
                    -58 callsubr
                </CharString>
                <CharString name="V">
                    82 -1 67 622 -20 23 -20 hstemhm
54 540 hintmask 10110000
379 -1 rmoveto
hintmask 11010000
78 232 71 228 66 229 rrcurveto
-71 hlineto
-60 -208 -63 -206 -68 -208 rrcurveto
-11 hlineto
hintmask 10110000
-68 208 -64 208 -60 209 -75 -6 rcurveline
66 -229 72 -226 78 -231 rrcurveto
endchar
                </CharString>
                <CharString name="V.sc">
                    -30 callsubr
                </CharString>
                <CharString name="W">
                    8 callsubr
536 hmoveto
-89 callsubr
                </CharString>
                <CharString name="W.sc">
                    144 0 85 498 57 callgsubr
476 hmoveto
-105 callsubr
                </CharString>
                <CharString name="Wacute">
                    8 callsubr
296 802 -107 callgsubr
240 -802 rmoveto
-89 callsubr
                </CharString>
                <CharString name="Wacute.sc">
                    5 callsubr
133 57 callgsubr
257 696 -107 callgsubr
219 -696 rmoveto
-105 callsubr
                </CharString>
                <CharString name="Wcircumflex">
                    8 callsubr
536 772 -90 callgsubr
137 -900 rmoveto
-89 callsubr
                </CharString>
                <CharString name="Wcircumflex.sc">
                    5 callsubr
140 72 callsubr
62 callgsubr
hintmask 11011100
497 -38 callsubr
116 -794 rmoveto
-105 callsubr
                </CharString>
                <CharString name="Wdieresis">
                    222 0 89 599 -20 111 146 hstem
91 75 86.5 -87 callgsubr
76 70 vstem
549 779 -102 callgsubr
284 -779 rmoveto
-89 callsubr
                </CharString>
                <CharString name="Wdieresis.sc">
                    5 callsubr
110 146 hstem
85 74 54.5 -87 callgsubr
44 69 vstem
510 673 -102 callgsubr
263 -673 rmoveto
-105 callsubr
                </CharString>
                <CharString name="Wgrave">
                    8 callsubr
498 795 -98 callsubr
61 -761 rmoveto
-89 callsubr
                </CharString>
                <CharString name="Wgrave.sc">
                    5 callsubr
126 57 callgsubr
459 689 -98 callsubr
40 -655 rmoveto
-105 callsubr
                </CharString>
                <CharString name="X">
                    86 18 -21 24 -21 24 -21 682 7 -4 -20 24 -20 hstemhm
57 542 hintmask 10000110
518 -3 rmoveto
hintmask 00101010
80 6 -226 342 227 343 rlineto
-81 hlineto
-187 -294 rlineto
hintmask 00100110
-194 298 rlineto
hintmask 01010010
-80 -7 225 -343 -225 -342 rlineto
80 hlineto
187 293 rlineto
endchar
                </CharString>
                <CharString name="X.sc">
                    -27 callgsubr
                </CharString>
                <CharString name="Y">
                    8 callgsubr
351 hmoveto
-52 callsubr
                </CharString>
                <CharString name="Y.sc">
                    -12 callsubr
hstemhm
253 73 hintmask 10110000
326 hmoveto
197 vlineto
hintmask 11010000
-47 callgsubr
hintmask 10110000
-62 callsubr
                </CharString>
                <CharString name="Yacute">
                    8 callgsubr
214 804 -107 callgsubr
137 -804 rmoveto
-52 callsubr
                </CharString>
                <CharString name="Yacute.sc">
                    -12 callsubr
133 -20 hstemhm
253 73 hintmask 10111000
185 698 -107 callgsubr
141 -698 -55 callgsubr
                </CharString>
                <CharString name="Ycircumflex">
                    8 callgsubr
454 774 -90 callgsubr
34 -902 rmoveto
-52 callsubr
                </CharString>
                <CharString name="Ycircumflex.sc">
                    -43 callgsubr
                </CharString>
                <CharString name="Ydieresis">
                    61 21 -21 688 -20 22 -20 111 146 hstemhm
170.5 75.5 32 73 42.5 74.5 hintmask 10111110
467 781 -102 callgsubr
181 -781 rmoveto
231 vlineto
hintmask 11011110
238 457 rlineto
-76 hlineto
-195 -386 rlineto
hintmask 10111110
-199 388 -80 -4 239 -457 rlineto
-229 vlineto
endchar
                </CharString>
                <CharString name="Ydieresis.sc">
                    -56 callgsubr
                </CharString>
                <CharString name="Ygrave">
                    8 callgsubr
416 797 -98 callsubr
-42 -763 rmoveto
-52 callsubr
                </CharString>
                <CharString name="Ygrave.sc">
                    -12 callsubr
126 -20 hstemhm
253 73 hintmask 10111000
387 691 -98 callsubr
-38 -657 -55 callgsubr
                </CharString>
                <CharString name="Z">
                    51 callsubr
537 hmoveto
-35 callgsubr
                </CharString>
                <CharString name="Z.sc">
                    -36 callgsubr
hstem
75 410 vstem
479 hmoveto
-75 callgsubr
                </CharString>
                <CharString name="Zacute">
                    51 callsubr
219 802 -107 callgsubr
318 -802 rmoveto
-35 callgsubr
                </CharString>
                <CharString name="Zacute.sc">
                    -36 callgsubr
113 -20 hstem
75 410 vstem
182 696 -107 callgsubr
297 -696 rmoveto
-75 callgsubr
                </CharString>
                <CharString name="Zcaron">
                    51 callsubr
329 764 -104 callsubr
209 -764 rmoveto
-35 callgsubr
                </CharString>
                <CharString name="Zcaron.sc">
                    -36 callgsubr
hstem
75 410 vstem
292 658 -104 callsubr
188 -658 rmoveto
-75 callgsubr
                </CharString>
                <CharString name="Zdotaccent">
                    53 0 67 554 67 91 146 hstem
287.5 75 vstem
360 779 -76 callsubr
251 -779 rmoveto
-35 callgsubr
                </CharString>
                <CharString name="Zdotaccent.sc">
                    -36 callgsubr
90 146 hstem
250.5 75 vstem
323 673 -76 callsubr
230 -673 rmoveto
-75 callgsubr
                </CharString>
                <CharString name="a">
                    -53 callgsubr
45 callsubr
hintmask 10011110
258 47 -85 callgsubr
                </CharString>
                <CharString name="a.sc">
                    -80 callgsubr
73 callsubr
hintmask 10011100
475 -3 rmoveto
hintmask 00111100
-82 callgsubr
hintmask 01011100
-97 callsubr
hintmask 10011100
20 -63 20 -62 19 -62 rrcurveto
hintmask 00111100
-98 callgsubr
                </CharString>
                <CharString name="aacute">
                    -53 callgsubr
45 callsubr
hintmask 10011110
186 658 -107 callgsubr
72 -611 -85 callgsubr
                </CharString>
                <CharString name="aacute.sc">
                    -80 callgsubr
111 -20 30 callgsubr
195 696 -107 callgsubr
hintmask 10011110
280 -699 -102 callsubr
                </CharString>
                <CharString name="abreve">
                    -53 callgsubr
83 61 45 callsubr
hintmask 10011111
288 632 -106 callsubr
-30 -585 rmoveto
-67 callgsubr
-38 -43 -58 -28 -56 hhcurveto
hintmask 01011111
169 -50 rmoveto
hintmask 00111111
-90 callsubr
hintmask 10011111
-32 callsubr
hintmask 01011111
-14 callsubr
                </CharString>
                <CharString name="abreve.sc">
                    -80 callgsubr
85 61 30 callgsubr
297 670 -106 callsubr
hintmask 10011110
178 -673 -102 callsubr
                </CharString>
                <CharString name="acircumflex">
                    -53 callgsubr
45 callsubr
hintmask 10011110
425 628 -90 callgsubr
-30 -709 -85 callgsubr
                </CharString>
                <CharString name="acircumflex.sc">
                    -80 callgsubr
118 -20 29 -20 73 callsubr
hintmask 00111011
435 -47 callsubr
hintmask 00111101
-179 -169 rlineto
hintmask 10011011
37 -37 137 128 rlineto
177 -797 rmoveto
hintmask 00111011
-82 callgsubr
hintmask 01011011
-97 callsubr
hintmask 10011011
20 -63 20 -62 19 -62 rrcurveto
hintmask 00111011
-98 callgsubr
                </CharString>
                <CharString name="acute">
                    5 618 233 hstem
176 255 vstem
176 653 -107 callgsubr
endchar
                </CharString>
                <CharString name="acute.cap">
                    5 618 233 hstem
176 255 vstem
176 653 -107 callgsubr
endchar
                </CharString>
                <CharString name="adieresis">
                    -53 callgsubr
86 146 hstemhm
77 72 -7.5 -87 callgsubr
-27 71 hintmask 1001110110000000
438 635 -102 callgsubr
117 -588 rmoveto
hintmask 1001111001000000
-67 callgsubr
hintmask 1001110110000000
-38 -43 -58 -28 -56 hhcurveto
hintmask 0101110101000000
169 -50 rmoveto
hintmask 0011111001000000
-90 callsubr
hintmask 1001111001000000
-32 callsubr
hintmask 0101110101000000
-14 callsubr
                </CharString>
                <CharString name="adieresis.sc">
                    -80 callgsubr
88 146 hstemhm
151.5 -87 callgsubr
hintmask 00111111
448 673 -102 callgsubr
hintmask 10011111
324 -676 rmoveto
hintmask 00111111
-82 callgsubr
hintmask 01011111
-97 callsubr
hintmask 10011111
20 -63 20 -62 19 -62 rrcurveto
hintmask 00111111
-98 callgsubr
                </CharString>
                <CharString name="ae">
                    9 callgsubr
815 -13 -66 callsubr
                </CharString>
                <CharString name="ae.sc">
                    19 callsubr
hstem
404 74 vstem
397 522 -79 callgsubr
                </CharString>
                <CharString name="aeacute">
                    9 callgsubr
357 660 -107 callgsubr
458 -673 -66 callsubr
                </CharString>
                <CharString name="aeacute.sc">
                    19 callsubr
113 -20 hstem
404 74 vstem
400 696 -107 callgsubr
-3 -174 -79 callgsubr
                </CharString>
                <CharString name="agrave">
                    -53 callgsubr
45 callsubr
hintmask 10011110
387 651 -98 callsubr
-106 -570 -85 callgsubr
                </CharString>
                <CharString name="agrave.sc">
                    -80 callgsubr
104 -20 30 callgsubr
397 689 -98 callsubr
hintmask 10011110
101 -658 -102 callsubr
                </CharString>
                <CharString name="amacron">
                    -53 callgsubr
130 65 45 callsubr
hintmask 10011111
457 744 -57 callgsubr
-199 -632 rmoveto
-67 callgsubr
-38 -43 -58 -28 -56 hhcurveto
hintmask 01011111
169 -50 rmoveto
hintmask 00111111
-90 callsubr
hintmask 10011111
-32 callsubr
hintmask 01011111
-14 callsubr
                </CharString>
                <CharString name="amacron.sc">
                    -80 callgsubr
132 65 30 callgsubr
467 782 -57 callgsubr
hintmask 10011110
8 -720 -102 callsubr
                </CharString>
                <CharString name="ampersand">
                    161 -13 63 580 71 hstemhm
66 72 15 72 hintmask 11010000
672 39 rmoveto
-54 52 -48 46 -44 40 45 70 40 88 32 106 -69 9 rcurveline
-22 -86 -32 -83 -37 -64 rrcurveto
-181 169 -77 68 64 vvcurveto
65 62 56 239 -9 vhcurveto
-7 71 rlineto
-277 4 -89 -102 -93 vvcurveto
-48 27 -45 55 -60 vhcurveto
hintmask 11110000
-111 -62 -58 -71 -82 vvcurveto
-87 67 -68 109 79 85 39 91 76 vhcurveto
41 -39 44 -43 48 -49 rrcurveto
-357 64 rmoveto
-74 -46 47 61 56 42 58 89 50 hvcurveto
44 -45 57 -53 71 -67 rrcurveto
-73 -61 -61 -34 -61 hhcurveto
endchar
                </CharString>
                <CharString name="ampersand.sc">
                    80 -11 59 480 66 hstemhm
59 71 7 71 hintmask 11010000
598 35 rmoveto
-47 44 -43 39 -37 34 39 59 35 73 28 89 -67 7 rcurveline
-19 -70 -27 -67 -31 -54 rrcurveto
-155 139 -66 57 52 vvcurveto
53 53 45 206 -7 vhcurveto
-7 66 rlineto
-246 3 -77 -86 -80 vvcurveto
-40 24 -38 47 -50 vhcurveto
hintmask 11100000
-98 -52 -51 -60 -70 vvcurveto
-74 59 -58 98 69 75 32 76 68 vhcurveto
35 -33 38 -36 41 -40 rrcurveto
-310 60 rmoveto
-63 -39 38 50 45 35 48 76 41 hvcurveto
38 -37 49 -43 59 -55 rrcurveto
-59 -52 -52 -28 -51 hhcurveto
endchar
                </CharString>
                <CharString name="aogonek">
                    15 -13 62 -26 -21 250 54 178 65 hstemhm
77 72 139 65 59 71 hintmask 10111110
466 -231 94 callgsubr
hintmask 01111110
25 25 34 113 54 vhcurveto
-1 2 rlineto
-3 75 -4 73 116 vvcurveto
206 -80 66 -287 9 vhcurveto
-8 -65 228 -10 68 -35 7 -133 rlinecurve
-228 16 -106 -84 -112 vvcurveto
hintmask 10111110
-86 63 -53 83 85 64 50 51 45 vhcurveto
2 -19 4 -33 2 -22 rrcurveto
-104 -53 -33 -46 -41 vvcurveto
17 callgsubr
-216 280 rmoveto
-58 -43 35 59 80 62 45 201 -21 hvcurveto
-47 1 -32 1 -33 vhcurveto
-48 -47 -57 -38 -60 hhcurveto
endchar
                </CharString>
                <CharString name="aogonek.sc">
                    -64 callgsubr
                </CharString>
                <CharString name="approxequal">
                    58 115 62 63 62 44 62 64 62 hstem
70 477 vstem
408 346 rmoveto
61 37 52 111 41 hvcurveto
-48 19 rlineto
-68 -29 -26 -52 -33 -55 -50 126 80 callsubr
70 30 27 54 34 57 52 -126 89 hhcurveto
-231 vmoveto
61 37 52 110 41 hvcurveto
-48 19 rlineto
-68 -29 -26 -51 -33 -55 -50 125 80 callsubr
71 30 27 53 34 57 52 -125 89 hhcurveto
endchar
                </CharString>
                <CharString name="aring">
                    -53 callgsubr
62 35 callsubr
77 72 6 56 155 55 -9 71 hintmask 1001111011000000
287 839 -99 callgsubr
-30 -743 rmoveto
hintmask 1001111100100000
-67 callgsubr
hintmask 1001111011000000
-38 -43 -58 -28 -56 hhcurveto
hintmask 0101111100100000
169 -50 rmoveto
hintmask 0011111100100000
-90 callsubr
hintmask 1001111100100000
-32 callsubr
hintmask 0101111100100000
-14 callsubr
                </CharString>
                <CharString name="aring.sc">
                    -80 callgsubr
64 35 callsubr
165 56 155 55 hintmask 0011111110000000
297 2 callsubr
hintmask 1001111110000000
177 -831 rmoveto
hintmask 0011111110000000
-82 callgsubr
hintmask 0101111110000000
-97 callsubr
hintmask 1001111110000000
20 -63 20 -62 19 -62 rrcurveto
hintmask 0011111110000000
-98 callgsubr
                </CharString>
                <CharString name="aringacute">
                    -53 callgsubr
62 35 callsubr
77 72 6 56 155 55 -9 71 hintmask 1001111100100000
186 929 -107 callgsubr
hintmask 1001111011000000
101 -90 -99 callgsubr
-30 -743 rmoveto
hintmask 1001111100100000
-67 callgsubr
hintmask 1001111011000000
-38 -43 -58 -28 -56 hhcurveto
hintmask 0101111100100000
169 -50 rmoveto
hintmask 0011111100100000
-90 callsubr
hintmask 1001111100100000
-32 callsubr
hintmask 0101111100100000
-14 callsubr
                </CharString>
                <CharString name="aringacute.sc">
                    -80 callgsubr
64 35 callsubr
165 56 155 55 hintmask 0011111110000000
195 960 -107 callgsubr
102 -83 -99 callgsubr
hintmask 1001111110000000
177 -831 rmoveto
hintmask 0011111110000000
-82 callgsubr
hintmask 0101111110000000
-97 callsubr
hintmask 1001111110000000
20 -63 20 -62 19 -62 rrcurveto
hintmask 0011111110000000
-98 callgsubr
                </CharString>
                <CharString name="arrow.1_E">
                    138 302 61 hstem
52 611 vstem
298 46 rmoveto
365 288 -365 287 -41 -54 280 -206 -149 2 rlineto
-336 -61 336 hlineto
148 2 -279 -204 rlineto
endchar
                </CharString>
                <CharString name="arrow.1_N">
                    138 21 -21 691 -20 hstem
320 64 vstem
384 402 rmoveto
-3 159 196 -279 53 41 -276 368 -279 -368 53 -40 195 279 -3 -161 rlineto
-401 64 vlineto
endchar
                </CharString>
                <CharString name="arrow.1_S">
                    138 18 -21 691 -20 hstem
320 64 vstem
351 -3 rmoveto
279 369 -53 40 -196 -280 3 161 rlineto
401 -64 -402 vlineto
3 -159 -196 279 -52 -40 rlineto
endchar
                </CharString>
                <CharString name="arrow.1_W">
                    138 302 61 hstem
42 610 vstem
447 98 rmoveto
-279 206 149 -2 rlineto
335 61 -336 hlineto
-149 -2 281 204 -42 54 -364 -287 364 -289 rlineto
endchar
                </CharString>
                <CharString name="asciicircum">
                    58 546 -20 hstem
67 493 vstem
501 176 rmoveto
59 42 -244 328 -17 -3 -232 -326 53 -41 187 267 rlineto
endchar
                </CharString>
                <CharString name="asciitilde">
                    58 221 70 95 70 hstem
44 535 vstem
423 221 rmoveto
67 44 71 134 45 hvcurveto
-54 20 rlineto
-88 -31 -30 -67 -38 -61 -71 165 -93 hhcurveto
-66 -48 -74 -131 -43 hvcurveto
53 -20 rlineto
89 31 30 66 38 61 74 -165 92 hhcurveto
endchar
                </CharString>
                <CharString name="asterisk">
                    20 584 -20 27 -20 hstemhm
292 50.5 hintmask 01100000
395 316 rmoveto
41 25 rlineto
hintmask 10100000
-71 158 164 58 -11 45 -173 -18 -5 174 -48 4 rlineto
hintmask 01100000
-37 -171 -165 49 -19 -43 151 -88 -97 -141 36 -31 128 115 rlineto
endchar
                </CharString>
                <CharString name="asterisk.alt">
                    33 705 -20 hstemhm
267 37.5 -8.5 37 hintmask 10100000
333 610 rmoveto
38 146 -72 12 -6 -151 rlineto
-45 -18 rmoveto
-106 106 -47 -56 127 -82 rlineto
163 -25 rmoveto
145 40 -25 68 -134 -70 rlineto
-155 -60 rmoveto
-146 -40 26 -68 133 70 rlineto
123 -19 rmoveto
107 -106 47 56 -127 81 rlineto
hintmask 11000000
-112 -42 rmoveto
-38 -146 73 -12 5 151 rlineto
endchar
                </CharString>
                <CharString name="at">
                    296 -174 64 175 62 340 63 163 64 hstem
100 67 183 69 260 68 vstem
696 -169 rmoveto
-1 63 rlineto
-415 -34 -113 155 268 vvcurveto
272 139 138 181 123 58 -56 -107 10 vhcurveto
-202 9 -126 -88 -177 vvcurveto
-125 73 -84 98 62 58 31 41 44 vhcurveto
2 -21 4 -29 1 -14 63 8 rcurveline
-5 103 -3 92 210 vvcurveto
174 -77 97 -174 -228 -168 -190 -294 -289 137 -195 459 42 vhcurveto
-144 296 rmoveto
-78 -55 56 107 125 74 74 186 -27 hvcurveto
-87 1 -135 -62 vvcurveto
-29 -37 -46 -22 -45 hhcurveto
endchar
                </CharString>
                <CharString name="atilde">
                    -53 callgsubr
84 64 54 63 -30 -20 45 callsubr
hintmask 1001111011000000
370 633 rmoveto
hintmask 1001110111000000
49 47 59 92 36 hvcurveto
-41 20 rlineto
-67 -28 -27 -40 -27 hhcurveto
hintmask 1001111011000000
-7 callsubr
-112 -586 rmoveto
-67 callgsubr
-38 -43 -58 -28 -56 hhcurveto
hintmask 0101111011000000
169 -50 rmoveto
hintmask 0011111011000000
-90 callsubr
hintmask 1001111011000000
-32 callsubr
hintmask 0101111011000000
-14 callsubr
                </CharString>
                <CharString name="atilde.sc">
                    -73 callgsubr
                </CharString>
                <CharString name="b">
                    55 -13 65 439 61 224 52 callsubr
297 71 hintmask 11011100
263 -13 rmoveto
32 callsubr
hintmask 11101100
-72 -6 rlineto
-762 vlineto
hintmask 11011100
-18 45 51 -9 56 hhcurveto
30 65 rmoveto
-33 -38 6 13 -39 hvcurveto
372 vlineto
29 39 48 19 48 41 callgsubr
endchar
                </CharString>
                <CharString name="b.sc">
                    -59 callgsubr
                </CharString>
                <CharString name="backslash">
                    78 callgsubr
47 788 rmoveto
-60 -21 rlineto
hintmask 10100000
452 -965 rlineto
hintmask 01100000
65 13 rlineto
endchar
                </CharString>
                <CharString name="backslash.tab">
                    58 -175 -21 34 -21 hstemhm
34 588 hintmask 01100000
34 766 rmoveto
hintmask 10100000
522 -962 rlineto
hintmask 01100000
66 13 -527 970 rlineto
endchar
                </CharString>
                <CharString name="bar">
                    -201 776 -20 26 -20 hstemhm
150 67 hintmask 10100000
150 71 callsubr
                </CharString>
                <CharString name="bar.tab">
                    -120 776 -20 26 -20 hstemhm
189 67 hintmask 10100000
189 71 callsubr
                </CharString>
                <CharString name="braceleft">
                    -68 258 64 callgsubr
-231 -50 callsubr
                </CharString>
                <CharString name="braceleft.cap">
                    -68 313 64 callgsubr
-176 -50 callsubr
                </CharString>
                <CharString name="braceright">
                    -68 259 70 callgsubr
-230 -48 callsubr
                </CharString>
                <CharString name="braceright.cap">
                    -68 313 70 callgsubr
-176 -48 callsubr
                </CharString>
                <CharString name="bracketleft">
                    -78 -198 63 838 63 hstem
112 70 vstem
112 -198 49 callgsubr
                </CharString>
                <CharString name="bracketleft.cap">
                    -78 -143 63 838 63 hstem
112 70 vstem
112 -143 49 callgsubr
                </CharString>
                <CharString name="bracketright">
                    -78 -197 63 838 63 hstem
307 70 vstem
65 -134 56 callsubr
                </CharString>
                <CharString name="bracketright.cap">
                    -78 -143 63 838 63 hstem
307 70 vstem
65 -80 56 callsubr
                </CharString>
                <CharString name="breve">
                    5 627 61 hstem
95 383 vstem
282 627 -106 callsubr
endchar
                </CharString>
                <CharString name="breve.cap">
                    5 627 61 hstem
95 383 vstem
282 627 -106 callsubr
endchar
                </CharString>
                <CharString name="bullet">
                    -22 194 267 hstem
148 248 vstem
396 330 rmoveto
77 -52 54 -72 -69 -55 -52 -82 -78 52 -55 71 70 55 53 83 vhcurveto
endchar
                </CharString>
                <CharString name="bullet.alt">
                    -22 217 226 hstem
161 222 vstem
382 217 rmoveto
2 226 rlineto
-222 hlineto
-2 -226 rlineto
endchar
                </CharString>
                <CharString name="c">
                    84 callsubr
hstem
72 70 vstem
72 260 -72 callsubr
endchar
                </CharString>
                <CharString name="c.sc">
                    -18 -7 62 467 69 hstem
69 74 0 callsubr
endchar
                </CharString>
                <CharString name="cacute">
                    84 callsubr
hstem
72 70 vstem
181 659 -107 callgsubr
-109 -399 -72 callsubr
endchar
                </CharString>
                <CharString name="cacute.sc">
                    30 callsubr
110 -20 hstem
69 74 vstem
206 701 -107 callgsubr
267 -646 -91 callsubr
endchar
                </CharString>
                <CharString name="caron">
                    5 693 -20 103 -20 hstem
106 359 vstem
286 615 -104 callsubr
endchar
                </CharString>
                <CharString name="caron.alt">
                    5 615 275 hstem
243 73 vstem
215 627 -62 callgsubr
endchar
                </CharString>
                <CharString name="caron.alt.cap">
                    5 615 275 hstem
243 73 vstem
215 627 -62 callgsubr
endchar
                </CharString>
                <CharString name="caron.cap">
                    5 693 -20 103 -20 hstem
106 359 vstem
286 615 -104 callsubr
endchar
                </CharString>
                <CharString name="ccaron">
                    84 callsubr
148 -20 103 -20 hstem
72 70 vstem
291 621 -104 callsubr
-218 -361 -72 callsubr
endchar
                </CharString>
                <CharString name="ccaron.sc">
                    91 callgsubr
316 663 -104 callsubr
158 -608 -91 callsubr
endchar
                </CharString>
                <CharString name="ccedilla">
                    -47 -243 60 174 64 423 73 hstem
72 70 188 57 vstem
72 260 -72 callsubr
143 -335 rmoveto
-84 callgsubr
                </CharString>
                <CharString name="ccedilla.sc">
                    -49 callgsubr
                </CharString>
                <CharString name="cdotaccent">
                    84 callsubr
85 146 hstem
72 70 107.5 75 vstem
322 636 -76 callsubr
-176 -376 -72 callsubr
endchar
                </CharString>
                <CharString name="cdotaccent.sc">
                    30 callsubr
58 callgsubr
131.5 75 vstem
347 678 -76 callsubr
200 -623 -91 callsubr
endchar
                </CharString>
                <CharString name="cedilla">
                    5 -237 60 hstem
343 57 vstem
228 -69 rmoveto
-84 callgsubr
                </CharString>
                <CharString name="cedilla.cap">
                    5 -237 60 hstem
343 57 vstem
228 -69 rmoveto
-84 callgsubr
                </CharString>
                <CharString name="cent">
                    58 40 64 359 71 154 -20 hstem
91 68 vstem
159 301 rmoveto
74 37 67 149 19 vhcurveto
-43 -326 rlineto
-103 33 -40 57 76 vvcurveto
341 -261 rmoveto
8 64 -58 2 -50 6 -42 8 rlinecurve
44 345 35 2 41 -1 46 -3 rlinecurve
9 71 -43 2 -40 -1 -36 -2 rlinecurve
23 155 rlineto
-68 hlineto
-19 -163 rlineto
-199 -31 -60 -102 -102 vvcurveto
-98 52 -82 146 -41 vhcurveto
-22 -164 rlineto
68 hlineto
17 149 43 -7 49 -5 56 -2 rlinecurve
endchar
                </CharString>
                <CharString name="check.1">
                    61 -2 -21 hstem
91 478 vstem
569 729 rmoveto
-74 28 -82 -203 -71 -229 -53 -248 rlinecurve
-4 hlineto
-130 309 -64 -32 169 -383 62 6 65 269 83 256 99 227 rlinecurve
endchar
                </CharString>
                <CharString name="check.2">
                    61 8 -21 27 -21 34 -21 552 -20 hstemhm
110 440 hintmask 01011000
410 -7 rmoveto
71 18 -151 292 220 426 -73 30 -186 -398 -98 197 -68 -28 125 -238 rlineto
hintmask 00111000
-140 -286 rlineto
hintmask 10011000
48 -19 130 251 rlineto
endchar
                </CharString>
                <CharString name="circumflex">
                    5 623 206 hstem
106 359 vstem
417 623 -90 callgsubr
endchar
                </CharString>
                <CharString name="circumflex.cap">
                    5 623 206 hstem
106 359 vstem
417 623 -90 callgsubr
endchar
                </CharString>
                <CharString name="colon">
                    -201 0 90 callgsubr
127 106 -99 106 hintmask 11010000
239 14 callgsubr
                </CharString>
                <CharString name="colon.alt">
                    -117 68 90 callgsubr
169.5 46 callsubr
-100 46 callsubr
hintmask 11010000
282 495 rmoveto
1 46 callgsubr
-2 -112 rlineto
hintmask 11100000
100 -427 38 callsubr
                </CharString>
                <CharString name="colon.tab">
                    -120 0 90 callgsubr
167 106 -99 106 hintmask 11010000
279 14 callgsubr
                </CharString>
                <CharString name="colonmonetary">
                    58 26 63 507 67 hstemhm
77 64 139 61 23 59 6 60 hintmask 11110100
378 110 rmoveto
-33 7 -29 8 -26 10 39 429 rcurveline
27 8 30 7 35 5 rrcurveto
-280 -240 rmoveto
90 36 68 98 43 vhcurveto
-35 -386 rlineto
-69 40 -30 60 85 vvcurveto
hintmask 11111000
217 -426 rmoveto
60 hlineto
10 118 rlineto
hintmask 11110100
30 -4 33 -4 35 -2 16 63 rcurveline
-41 3 -37 4 -34 5 44 489 rcurveline
29 3 31 2 33 1 -5 67 rcurveline
-28 -1 -26 -2 -24 -3 10 112 rcurveline
-60 hlineto
-10 -119 -32 -5 -30 -7 -27 -8 rlinecurve
12 139 rlineto
-60 hlineto
-14 -160 rlineto
-142 -59 -54 -100 -117 vvcurveto
-115 47 -79 103 -49 vhcurveto
-17 -172 rlineto
hintmask 11111000
61 hlineto
13 149 26 -8 29 -8 31 -6 rlinecurve
endchar
                </CharString>
                <CharString name="comma">
                    -214 -173 -21 hstem
148 82 vstem
96 23 callgsubr
                </CharString>
                <CharString name="comma.tab">
                    -120 -173 -21 hstem
195 82 vstem
143 23 callgsubr
                </CharString>
                <CharString name="commaaccent">
                    5 -302 225 hstem
249 74 vstem
225 -291 -103 callgsubr
                </CharString>
                <CharString name="commaaccent.cap">
                    5 -302 225 hstem
249 74 vstem
225 -291 -103 callgsubr
                </CharString>
                <CharString name="commaaccent.rot">
                    5 623 225 69 callsubr
339 837 48 callsubr
endchar
                </CharString>
                <CharString name="copyright">
                    358 -34 50 133 56 280 62 125 51 hstem
80 56 165 62 425 56 vstem
844 349 rmoveto
229 -159 145 -209 -216 -180 -157 -226 -230 168 -144 220 209 167 147 236 vhcurveto
-708 -6 rmoveto
198 149 131 189 178 136 -128 -199 -204 -140 -125 -177 -187 -148 126 201 vhcurveto
449 -138 rmoveto
-168 -6 -54 50 100 vvcurveto
81 38 52 179 3 vhcurveto
-6 62 rlineto
-202 -11 -71 -89 -104 vvcurveto
-119 69 -86 207 11 vhcurveto
endchar
                </CharString>
                <CharString name="d">
                    32 callgsubr
hintmask 1001001110000000
305 48 -18 callgsubr
hintmask 0101001110000000
145 -51 rmoveto
hintmask 0011001110000000
41 callsubr
244 vlineto
hintmask 1000110110000000
-71 -7 rlineto
-223 vlineto
hintmask 1001001110000000
3 callsubr
55 31 36 40 hvcurveto
endchar
                </CharString>
                <CharString name="d.sc">
                    70 -6 callgsubr
569 303 -68 callgsubr
                </CharString>
                <CharString name="dagger">
                    -40 528.5 39 callsubr
230.5 61 -60.5 70 hintmask 10011000
284 137 rmoveto
15 393 166 -3 rlineto
hintmask 00111000
3 60 rlineto
hintmask 10010100
78 callsubr
hintmask 01011000
-165 3 -3 -61 168 -3 -1 -412 12 -7 rlineto
endchar
                </CharString>
                <CharString name="daggerdbl">
                    -40 306.5 60 -56 61 157 39 callsubr
230 58.5 -58 66 -65.5 70 hintmask 0110011000000000
285 81 rmoveto
hintmask 1010011000000000
7 227 167 -3 3 60 rlineto
hintmask 1010010100000000
-168 3 5 162 166 -3 rlineto
hintmask 0100111000000000
3 60 rlineto
hintmask 0110010010000000
78 callsubr
hintmask 0101010100000000
-165 3 -3 -61 168 -3 -1 -161 -170 3 -3 -61 rlineto
hintmask 0110011000000000
173 -3 rlineto
-246 vlineto
12 -7 rlineto
endchar
                </CharString>
                <CharString name="dcaron">
                    32 callgsubr
116 73 hintmask 1001001111000000
596 627 -62 callgsubr
-291 -579 -18 callgsubr
hintmask 0101001111000000
145 -51 rmoveto
hintmask 0011001111000000
41 callsubr
244 vlineto
hintmask 1000110111000000
-71 -7 rlineto
-223 vlineto
hintmask 1001001111000000
3 callsubr
55 31 36 40 hvcurveto
endchar
                </CharString>
                <CharString name="dcaron.sc">
                    48 callgsubr
319 665 -104 callsubr
251 -362 -68 callgsubr
                </CharString>
                <CharString name="dcroat">
                    56 -13 61 -30 -21 26 -21 485 65 -4 -20 117 52 -52 133 -7 -20 hstemhm
70 71 296 71 hintmask 1001010111000000
305 48 -18 callgsubr
hintmask 0101010111000000
145 -51 rmoveto
hintmask 0011010111000000
41 callsubr
111 82 52 -82 vlineto
hintmask 1001001011000000
81 vlineto
hintmask 1000110111000000
-71 -7 rlineto
-74 -150 -52 150 -97 vlineto
hintmask 1001010111000000
3 callsubr
56 31 37 40 hvcurveto
endchar
                </CharString>
                <CharString name="dcroat.sc">
                    -87 callsubr
                </CharString>
                <CharString name="degree">
                    58 355 58 276 58 hstem
120 63 257 62 vstem
502 555 rmoveto
118 -80 74 -104 -105 -93 -79 -121 -119 80 -73 104 105 93 78 122 vhcurveto
-62 hmoveto
-87 -1 -56 -55 -73 hhcurveto
-76 -52 59 78 1 hvcurveto
84 1 55 55 74 hhcurveto
76 52 -58 -76 -1 hvcurveto
endchar
                </CharString>
                <CharString name="dieresis">
                    5 630 146 hstem
138.5 -87 callgsubr
vstem
435 630 -102 callgsubr
endchar
                </CharString>
                <CharString name="dieresis.cap">
                    5 630 146 hstem
138.5 -87 callgsubr
vstem
435 630 -102 callgsubr
endchar
                </CharString>
                <CharString name="divide">
                    58 79 95 117 64 116 96 hstem
267.5 87 vstem
354 471 rmoveto
1 96 rlineto
-87 hlineto
-1 -96 rlineto
282 -116 rmoveto
-475 -64 474 hlineto
-194 -212 rmoveto
1 95 rlineto
-87 hlineto
-1 -95 rlineto
endchar
                </CharString>
                <CharString name="dollar">
                    67 -95 189 -65 64 498 58 -58 191 -190 66 124 -20 hstemhm
112 71 282 72 hintmask 01001111
183 521 rmoveto
42 46 29 116 vhcurveto
-37 -193 rlineto
-68 40 -57 39 43 vvcurveto
282 -342 rmoveto
-46 -48 -36 -114 -4 vhcurveto
38 208 rlineto
68 -39 56 -39 -44 vvcurveto
hintmask 10001111
-195 -274 rmoveto
hintmask 01010011
22 124 rlineto
174 13 71 71 74 vvcurveto
75 -90 57 -89 51 vhcurveto
43 221 36 -3 41 -4 47 -7 rlinecurve
hintmask 01100111
8 72 -41 5 -37 3 -34 1 rlinecurve
26 124 rlineto
-68 hlineto
hintmask 01001111
-23 -124 rlineto
-175 -9 -69 -68 -72 vvcurveto
-74 91 -55 89 -51 vhcurveto
-46 -235 -41 1 -46 5 -54 9 rlinecurve
-14 -72 rlineto
-6 50 46 -4 41 hhcurveto
hintmask 10001111
-25 -122 rlineto
endchar
                </CharString>
                <CharString name="dotaccent">
                    18 callsubr
                </CharString>
                <CharString name="dotaccent.cap">
                    18 callsubr
                </CharString>
                <CharString name="dotlessi">
                    20 callgsubr
61 callgsubr
456 hmoveto
-69 callsubr
                </CharString>
                <CharString name="dotlessi.sc">
                    -63 0 57 469 57 54 callgsubr
286 526 -94 callgsubr
                </CharString>
                <CharString name="e">
                    -60 callgsubr
26 callgsubr
474 -13 -100 callgsubr
                </CharString>
                <CharString name="e.sc">
                    -65 callsubr
76 callsubr
470 62 rmoveto
-92 callsubr
                </CharString>
                <CharString name="eacute">
                    -60 callgsubr
26 callgsubr
194 663 -107 callgsubr
280 -676 -100 callgsubr
                </CharString>
                <CharString name="eacute.sc">
                    -65 callsubr
113 -20 76 callsubr
185 696 -107 callgsubr
285 -634 rmoveto
-92 callsubr
                </CharString>
                <CharString name="ebreve">
                    -60 callgsubr
85 61 26 callgsubr
296 637 -106 callsubr
178 -650 -100 callgsubr
                </CharString>
                <CharString name="ebreve.sc">
                    -65 callsubr
87 61 76 callsubr
287 670 -106 callsubr
183 -608 rmoveto
-92 callsubr
                </CharString>
                <CharString name="ecaron">
                    -60 callgsubr
151 -20 26 callgsubr
304 625 -104 callsubr
171 -638 -100 callgsubr
                </CharString>
                <CharString name="ecaron.sc">
                    -65 callsubr
76 callsubr
295 658 -104 callsubr
176 -596 rmoveto
-92 callsubr
                </CharString>
                <CharString name="ecircumflex">
                    -60 callgsubr
26 callgsubr
433 633 -90 callgsubr
178 -774 -100 callgsubr
                </CharString>
                <CharString name="ecircumflex.sc">
                    -65 callsubr
120 -20 29 -16 callsubr
hintmask 11101100
424 -47 callsubr
hintmask 11110100
-179 -169 rlineto
hintmask 11101100
37 -37 137 128 rlineto
183 -732 rmoveto
-92 callsubr
                </CharString>
                <CharString name="edieresis">
                    -60 callgsubr
88 146 hstemhm
70 72 7.5 -87 callgsubr
-14 70 hintmask 11110110
446 640 -102 callgsubr
hintmask 11111001
325 -653 -100 callgsubr
                </CharString>
                <CharString name="edieresis.sc">
                    -51 callgsubr
                </CharString>
                <CharString name="edotaccent">
                    -60 callgsubr
88 146 hstem
70 72 120.5 75 95.5 70 vstem
335 640 -76 callsubr
213 -653 -100 callgsubr
                </CharString>
                <CharString name="edotaccent.sc">
                    -65 callsubr
90 146 -22 callgsubr
68.5 75 vstem
326 673 -76 callsubr
218 -611 rmoveto
-92 callsubr
                </CharString>
                <CharString name="egrave">
                    -60 callgsubr
26 callgsubr
395 656 -98 callsubr
102 -635 -100 callgsubr
                </CharString>
                <CharString name="egrave.sc">
                    -65 callsubr
106 -20 76 callsubr
386 689 -98 callsubr
107 -593 rmoveto
-92 callsubr
                </CharString>
                <CharString name="eight">
                    58 -13 61 592 61 hstemhm
85 73 -61 71 287 72 -60 72 hintmask 11100100
299 -13 rmoveto
145 95 81 102 87 -82 52 -87 47 hvcurveto
hintmask 11011000
96 46 61 56 85 vvcurveto
96 -90 62 -117 -142 -81 -88 -86 -81 70 -52 80 -46 vhcurveto
hintmask 11100100
-99 -48 -63 -66 -84 vvcurveto
-99 90 -64 124 vhcurveto
hintmask 11011000
-131 552 rmoveto
53 49 48 95 92 51 -46 -65 -62 -49 -49 -82 -38 vhcurveto
-82 44 -74 44 71 vvcurveto
hintmask 11100100
143 -491 rmoveto
-99 -54 48 71 62 48 55 85 39 hvcurveto
90 -48 86 -46 -72 vvcurveto
-63 -61 -46 -95 vhcurveto
endchar
                </CharString>
                <CharString name="eight.den">
                    -11 49 360 50 hstemhm
24 -31 callgsubr
hintmask 11100100
170 -11 -88 callsubr
                </CharString>
                <CharString name="eight.den_afrc">
                    24 -1 callsubr
hstemhm
141 -31 callgsubr
hintmask 10111001
287 -57 callsubr
                </CharString>
                <CharString name="eight.den_afrc2">
                    443 -1 callsubr
hstemhm
350 -31 callgsubr
hintmask 10111001
496 -57 callsubr
                </CharString>
                <CharString name="eight.inf">
                    -54 -178 49 360 50 hstemhm
102 -31 callgsubr
hintmask 11100100
248 -178 -88 callsubr
                </CharString>
                <CharString name="eight.num">
                    239 49 360 50 hstemhm
102 -31 callgsubr
hintmask 11100100
248 239 -88 callsubr
                </CharString>
                <CharString name="eight.num_afrc">
                    24 70 callsubr
141 -31 callgsubr
hintmask 1001110010000000
287 461 rmoveto
101 62 56 63 hvcurveto
hintmask 1010110010000000
53 -51 34 -55 30 vhcurveto
hintmask 1100101100000000
-78 callsubr
-51 45 -34 52 -29 vhcurveto
hintmask 1100110010000000
-66 -28 -38 -40 -54 vvcurveto
hintmask 1001110010000000
-63 56 -45 90 vhcurveto
hintmask 1001101100000000
-94 callsubr
hintmask 1100110010000000
-96 callgsubr
                </CharString>
                <CharString name="eight.num_afrc2">
                    443 70 callsubr
350 -31 callgsubr
hintmask 1001110010000000
496 461 rmoveto
101 62 56 63 hvcurveto
hintmask 1010110010000000
53 -51 34 -55 30 vhcurveto
hintmask 1100101100000000
-78 callsubr
-51 45 -34 52 -29 vhcurveto
hintmask 1100110010000000
-66 -28 -38 -40 -54 vvcurveto
hintmask 1001110010000000
-63 56 -45 90 vhcurveto
hintmask 1001101100000000
-94 callsubr
hintmask 1100110010000000
-96 callgsubr
                </CharString>
                <CharString name="eight.small">
                    -11 49 360 50 hstemhm
63 -31 callgsubr
hintmask 11100100
209 -11 -88 callsubr
                </CharString>
                <CharString name="eight.sup">
                    -54 350 49 181 -20 26 -20 193 50 hstemhm
102 -31 callgsubr
hintmask 10111001
248 350 -53 callsubr
hintmask 11010110
-78 callsubr
-51 45 -34 52 -29 vhcurveto
hintmask 11011001
-66 -28 -38 -40 -54 vvcurveto
hintmask 10111001
-63 56 -45 90 vhcurveto
hintmask 10110110
-94 callsubr
hintmask 11011001
-96 callgsubr
                </CharString>
                <CharString name="ellipsis">
                    468 0 35 callgsubr
233 46 callsubr
233 106 vstem
908 hmoveto
5 46 callgsubr
-5 -112 rlineto
-233 hmoveto
5 46 callgsubr
-6 -112 rlineto
-233 37 callsubr
                </CharString>
                <CharString name="emacron">
                    -60 callgsubr
132 65 26 callgsubr
465 749 -57 callgsubr
9 -697 -100 callgsubr
                </CharString>
                <CharString name="emacron.sc">
                    -65 callsubr
134 65 76 callsubr
456 782 -57 callgsubr
14 -655 rmoveto
-92 callsubr
                </CharString>
                <CharString name="emdash">
                    276 294 57 hstem
83 680 vstem
763 351 rmoveto
-680 -57 674 hlineto
endchar
                </CharString>
                <CharString name="emspace">
                    428 endchar
                </CharString>
                <CharString name="endash">
                    18 294 57 hstem
83 423 vstem
506 351 rmoveto
-423 -57 417 hlineto
endchar
                </CharString>
                <CharString name="endash.tab">
                    58 294 57 hstem
81 465 vstem
546 351 rmoveto
-465 -57 459 hlineto
endchar
                </CharString>
                <CharString name="enspace">
                    -67 endchar
                </CharString>
                <CharString name="eogonek">
                    10 -13 65 -44 -21 25 -21 263 50.5 183.5 64 hstemhm
70 72 128 64 99 70 hintmask 00111111
447 -233 rmoveto
8 60 rlineto
-81 13 -40 16 28 vvcurveto
hintmask 01011111
22 27 32 113 49 vhcurveto
hintmask 10011111
9 65 -249 8 -83 53 -9 136 rlinecurve
358 10 rlineto
174 19 -71 119 -138 hhcurveto
-132 -108 -126 -162 hvcurveto
hintmask 00111111
-157 72 -96 245 -20 vhcurveto
-88 -46 -29 -39 -38 vvcurveto
-50 49 -35 128 -16 vhcurveto
-152 721 rmoveto
94 43 -71 -108 1 hvcurveto
-291 -9 rlineto
122 6 59 66 88 hhcurveto
endchar
                </CharString>
                <CharString name="eogonek.sc">
                    -33 callsubr
                </CharString>
                <CharString name="equal">
                    71 callgsubr
481 rmoveto
-435 -64 435 hlineto
-179 vmoveto
82 callsubr
                </CharString>
                <CharString name="eth">
                    44 -14 62 402 60 178 -20 116 -20 hstem
69 70 329 68 vstem
294 -14 rmoveto
129 113 99 190 141 -53 124 -114 111 hvcurveto
108 57 -20 48 -129 -68 -39 33 -45 32 -50 31 rlinecurve
-39 -51 42 -25 37 -26 32 -26 rlinecurve
-125 -66 20 -48 147 77 39 -36 32 -38 24 -39 rlinecurve
-167 26 -167 -94 -197 vvcurveto
-158 100 -97 125 vhcurveto
10 62 rmoveto
-91 -74 79 124 151 104 93 197 -66 hvcurveto
19 -51 9 -53 -55 vvcurveto
-145 -65 -77 -99 vhcurveto
endchar
                </CharString>
                <CharString name="eth.sc">
                    -87 callsubr
                </CharString>
                <CharString name="exclam">
                    -199 0 107 hstemhm
130 102 -69 47 hintmask 10100000
210 254 rmoveto
2 109 22 271 4 115 rrcurveto
-92 hlineto
2 -115 15 -271 -109 vvcurveto
hintmask 11000000
68 -254 rmoveto
2 107 rlineto
-102 hlineto
-2 -107 rlineto
endchar
                </CharString>
                <CharString name="exclamdown">
                    -199 581 107 hstemhm
135 101.5 -79.5 47 hintmask 11000000
136 688 rmoveto
-2 -107 rlineto
101 hlineto
3 107 rlineto
hintmask 10100000
-81 -253 rmoveto
-3 -110 -21 -271 -5 -115 rrcurveto
92 hlineto
-2 115 -14 271 110 vvcurveto
endchar
                </CharString>
                <CharString name="f">
                    82 callgsubr
72 vstem
455 57 rmoveto
-173 415 183 58 -183 17 hlineto
121 25 10 callsubr
                </CharString>
                <CharString name="f.lig">
                    82 callgsubr
71 vstem
455 57 rmoveto
-174 415 184 58 -184 17 hlineto
121 26 10 callsubr
                </CharString>
                <CharString name="f.sc">
                    7 callgsubr
                </CharString>
                <CharString name="figurespace">
                    -16 endchar
                </CharString>
                <CharString name="five">
                    58 8 -21 635 66 hstem
463 67 vstem
530 227 rmoveto
89 -78 78 -259 24 vhcurveto
15 204 rlineto
294 hlineto
7 66 rlineto
-363 hlineto
-24 -323 rlineto
258 -19 83 -55 -67 vvcurveto
-88 -94 -53 -263 -26 vhcurveto
6 -70 rlineto
288 24 130 94 122 vvcurveto
endchar
                </CharString>
                <CharString name="five.den">
                    10 -21 394 55 hstem
56.5 -38 callgsubr
vstem
328 143 -105 callgsubr
                </CharString>
                <CharString name="five.den_afrc">
                    16 callgsubr
hstem
77 callgsubr
-38 callgsubr
vstem
445 -90 -105 callgsubr
                </CharString>
                <CharString name="five.den_afrc2">
                    443 25 callgsubr
hstem
382.5 -38 callgsubr
vstem
654 -90 -105 callgsubr
                </CharString>
                <CharString name="five.inf">
                    -54 216 55 hstem
81 callsubr
vstem
406 -24 -105 callgsubr
                </CharString>
                <CharString name="five.num">
                    633 55 hstem
81 callsubr
vstem
406 393 -105 callgsubr
                </CharString>
                <CharString name="five.num_afrc">
                    24 855 55 hstem
77 callgsubr
-38 callgsubr
vstem
-56 callsubr
endchar
                </CharString>
                <CharString name="five.num_afrc2">
                    443 855 55 hstem
382.5 -38 callgsubr
vstem
654 -8 callgsubr
endchar
                </CharString>
                <CharString name="five.small">
                    10 -21 394 55 hstem
95.5 -38 callgsubr
vstem
367 143 -105 callgsubr
                </CharString>
                <CharString name="five.sup">
                    -54 744 55 hstem
81 callsubr
vstem
406 504 -105 callgsubr
                </CharString>
                <CharString name="fiveeighths">
                    57 callsubr
409 50 185 55 19 -20 hstemhm
81 callsubr
310 -31 callgsubr
hintmask 0101011110010000
368 76 callgsubr
rlineto
hintmask 0011101110010000
10 callgsubr
82 384 -106 callgsubr
hintmask 1001101110010000
456 -404 -53 callsubr
hintmask 1001101101100000
-78 callsubr
-51 45 -34 52 -29 vhcurveto
hintmask 1001101110010000
-41 callsubr
hintmask 1001101101100000
-94 callsubr
hintmask 1001101110010000
-96 callgsubr
                </CharString>
                <CharString name="fiveeighths.afrc">
                    24 -1 callsubr
97 52 491 55 hstemhm
141 60 -53 62 -36.5 53 156.5 60 -55 57 -57 62 hintmask 1011110010100000
-56 callsubr
-374 -303 -63 callgsubr
hintmask 1011111000010000
216 -608 -53 callsubr
hintmask 1011110101000000
-78 callsubr
vhcurveto
hintmask 1101110100100000
-51 45 -34 52 -29 vhcurveto
hintmask 1011111000100000
-66 -28 -38 -40 -54 vvcurveto
hintmask 1011111000010000
-63 56 -45 90 vhcurveto
hintmask 1011110101000000
-94 callsubr
hintmask 1011111000010000
-96 callgsubr
                </CharString>
                <CharString name="fivesixths">
                    88 callgsubr
365 55 19 -20 hstemhm
81 callsubr
307 77 callsubr
hintmask 0101011111000000
373 76 callgsubr
rlineto
hintmask 0011101111000000
10 callgsubr
77 384 -106 callgsubr
hintmask 1001101111000000
464 -403 -101 callgsubr
                </CharString>
                <CharString name="fivesixths.afrc">
                    24 -243 90 callsubr
277 52 491 55 hstemhm
138 59 -23.5 -38 callgsubr
-49 57 hintmask 11110110
-56 callsubr
-374 -303 -63 callgsubr
hintmask 11111001
224 -607 -101 callgsubr
                </CharString>
                <CharString name="four">
                    58 21 -21 146 67 477 7 0 -20 hstemhm
98 56 264 69 hintmask 11011100
570 146 rmoveto
7 67 rlineto
-90 251 hlineto
-69 -6 rlineto
-245 -264 vlineto
hintmask 11101100
5 71 68 290 30 116 -80 7 rcurveline
-53 -210 -29 -216 3 -125 rrcurveto
320 -146 69 146 hlineto
endchar
                </CharString>
                <CharString name="four.den">
                    59 callsubr
32 -20 callgsubr
hintmask 01110000
352 92 -95 callsubr
hintmask 10110000
17 callsubr
hintmask 01110000
62 callsubr
                </CharString>
                <CharString name="four.den_afrc">
                    24 -141 85 callgsubr
149 -20 callgsubr
vstem
469 -141 -95 callsubr
17 callsubr
-1 92 rlineto
endchar
                </CharString>
                <CharString name="four.den_afrc2">
                    443 -141 85 callgsubr
358 -20 callgsubr
vstem
678 -141 -95 callsubr
17 callsubr
-1 92 rlineto
endchar
                </CharString>
                <CharString name="four.inf">
                    -54 -75 18 callgsubr
21.5 -21 60 callsubr
hintmask 10010000
430 -75 -70 callsubr
rlineto
hintmask 01110000
87 callsubr
-67 5 rlineto
hintmask 10110000
-42 callgsubr
rrcurveto
38 callgsubr
                </CharString>
                <CharString name="four.num">
                    342 18 callgsubr
153.5 -20 163 -20 25 -20 60 callsubr
hintmask 11011100
430 342 63 callsubr
rlineto
hintmask 11101100
-30 callgsubr
rrcurveto
hintmask 11011100
28 callgsubr
                </CharString>
                <CharString name="four.num_afrc">
                    24 564 85 callgsubr
149 -20 callgsubr
vstem
469 564 -95 callsubr
17 callsubr
-1 92 rlineto
endchar
                </CharString>
                <CharString name="four.num_afrc2">
                    443 564 85 callgsubr
358 -20 callgsubr
vstem
678 564 -95 callsubr
17 callsubr
-1 92 rlineto
endchar
                </CharString>
                <CharString name="four.small">
                    59 callsubr
71 -20 callgsubr
hintmask 01110000
391 92 -95 callsubr
hintmask 10110000
17 callsubr
hintmask 01110000
62 callsubr
                </CharString>
                <CharString name="four.sup">
                    -54 453 85 callgsubr
67 callsubr
vstem
430 453 -95 callsubr
17 callsubr
-1 92 rlineto
endchar
                </CharString>
                <CharString name="fourfifths">
                    83 callgsubr
361 18 callgsubr
-11.5 55 110 -20 163 -20 25 -20 31 -20 60 callsubr
372 -38 callgsubr
hintmask 0101100111110000
368 76 callgsubr
rlineto
hintmask 1001100111110000
10 callgsubr
696 134 -106 callgsubr
hintmask 1010110011110000
-590 199 63 callsubr
-30 callgsubr
rlinecurve
hintmask 1010101011110000
28 callgsubr
                </CharString>
                <CharString name="fourfifths.afrc">
                    16 callgsubr
107 52 200 18 callgsubr
hstemhm
149 51 -26.5 53 132 57 -27.5 57 hintmask 1111101100000000
469 564 -70 callsubr
rlineto
hintmask 1111110100000000
87 callsubr
-67 5 -42 callgsubr
rlinecurve
210 hlineto
17 callsubr
-1 92 rlineto
-344 -252 -63 callgsubr
hintmask 1111101010000000
374 -454 -105 callgsubr
                </CharString>
                <CharString name="fourperemspace">
                    -314 endchar
                </CharString>
                <CharString name="fraction">
                    22 callgsubr
                </CharString>
                <CharString name="fraction.afrc">
                    24 312 52 hstem
71 448 vstem
71 312 -63 callgsubr
endchar
                </CharString>
                <CharString name="fraction.afrc2">
                    443 312 52 hstem
72 871 vstem
72 312 rmoveto
871 52 -871 hlineto
endchar
                </CharString>
                <CharString name="fraction.tab">
                    22 callgsubr
                </CharString>
                <CharString name="g">
                    29 callsubr
hstem
70 71 291 72 vstem
145 -191 -83 callgsubr
                </CharString>
                <CharString name="g.sc">
                    49 -9 58 473 69 hstem
69 74 308 -17 callsubr
endchar
                </CharString>
                <CharString name="gbreve">
                    29 callsubr
85 61 hstem
70 71 291 72 vstem
315 636 -106 callsubr
-170 -827 -83 callgsubr
                </CharString>
                <CharString name="gbreve.sc">
                    49 -9 58 473 69 84 61 hstem
69 74 308 71 vstem
329 675 -106 callsubr
194 -670 -95 callgsubr
endchar
                </CharString>
                <CharString name="gcommaaccent">
                    29 callsubr
hstem
70 71 132 74 85 72 vstem
371 846 48 callsubr
-226 -1037 -83 callgsubr
                </CharString>
                <CharString name="gcommaaccent.sc">
                    -55 callsubr
                </CharString>
                <CharString name="gdotaccent">
                    29 callsubr
88 146 hstem
70 71 140.5 75 75.5 72 vstem
354 639 -76 callsubr
-135 -830 -83 callgsubr
                </CharString>
                <CharString name="gdotaccent.sc">
                    49 -9 58 473 69 58 callgsubr
153.5 75 79.5 71 vstem
369 678 -76 callsubr
228 -673 -95 callgsubr
endchar
                </CharString>
                <CharString name="germandbls">
                    76 -6 64 -37 -21 719 64 hstemhm
109 71 124 71 57 73 18 71 hintmask 10111110
375 393 rmoveto
hintmask 01111100
63 130 57 121 vvcurveto
73 -51 76 -114 -148 -83 -115 -152 vhcurveto
-516 71 533 vlineto
122 47 64 93 77 35 -48 -50 vhcurveto
-94 -128 -56 -87 vvcurveto
hintmask 10111110
-124 219 -33 -87 vvcurveto
-53 -59 -42 -156 17 vhcurveto
-2 -68 rlineto
213 -13 75 89 78 130 -219 35 80 vvcurveto
endchar
                </CharString>
                <CharString name="germandbls.sc">
                    435 52 callgsubr
122 74 215 75 vstem
570 -76 callgsubr
-486 hmoveto
-100 callsubr
endchar
                </CharString>
                <CharString name="grave">
                    5 782 -20 hstem
148 253 vstem
401 646 -98 callsubr
endchar
                </CharString>
                <CharString name="grave.cap">
                    5 782 -20 hstem
148 253 vstem
401 646 -98 callsubr
endchar
                </CharString>
                <CharString name="greater">
                    58 75 500 hstem
459 63 vstem
133 75 rmoveto
389 210 rlineto
78 vlineto
-379 212 -33 -62 349 -185 rlineto
-8 vlineto
-355 -185 rlineto
endchar
                </CharString>
                <CharString name="greaterequal">
                    58 27 64 450 -20 hstem
447 70.5 vstem
106 222 rmoveto
21 -58 391 165 -1 73 -384 197 -27 -58 341 -170 rlineto
-7 vlineto
-353 -273 rmoveto
-64 435 64 vlineto
endchar
                </CharString>
                <CharString name="guillemotleft">
                    197 5 -21 573 -20 hstem
82 50 270.5 49.5 vstem
314 -16 -4 callgsubr
                </CharString>
                <CharString name="guillemotleft.cap">
                    197 57 573 hstem
82 50 270.5 49.5 vstem
314 57 -4 callgsubr
                </CharString>
                <CharString name="guillemotright">
                    197 6 -21 572 44 callgsubr
270.5 50.5 vstem
444 -15 rmoveto
235 244 5 83 -234 245 -52 -50 233 -238 -237 -233 rlineto
-270 -51 -24 callgsubr
                </CharString>
                <CharString name="guillemotright.cap">
                    197 580 44 callgsubr
270.5 50.5 vstem
444 58 rmoveto
235 244 5 83 -234 245 -52 -50 233 -238 -237 -233 rlineto
-270 -51 -24 callgsubr
                </CharString>
                <CharString name="guilsinglleft">
                    -123 5 -21 573 -20 hstem
82 50 vstem
314 -16 -12 callgsubr
endchar
                </CharString>
                <CharString name="guilsinglleft.cap">
                    -123 57 573 hstem
82 50 vstem
314 57 -12 callgsubr
endchar
                </CharString>
                <CharString name="guilsinglright">
                    -123 6 -21 572 44 callgsubr
vstem
124 -15 -24 callgsubr
                </CharString>
                <CharString name="guilsinglright.cap">
                    -123 580 44 callgsubr
vstem
124 58 -24 callgsubr
                </CharString>
                <CharString name="h">
                    75 21 -21 489 63 224 52 callsubr
283 72 hintmask 11011100
340 489 rmoveto
79 47 -39 -109 hvcurveto
-341 72 364 vlineto
133 -69 55 -103 -77 -59 -31 -34 -47 vhcurveto
295 vlineto
hintmask 11101100
-72 -6 rlineto
-776 72 440 vlineto
hintmask 11011100
30 47 51 19 59 hhcurveto
endchar
                </CharString>
                <CharString name="h.sc">
                    1 callsubr
                </CharString>
                <CharString name="hairspace">
                    -488 endchar
                </CharString>
                <CharString name="hbar">
                    75 21 -21 489 63 93 52 -52 137 -6 36 callsubr
72 284 71 hintmask 11101110
340 489 rmoveto
79 48 -39 -109 hvcurveto
-341 71 364 vlineto
133 -69 55 -103 -77 -59 -31 -34 -47 vhcurveto
158 150 52 -150 vlineto
hintmask 11010110
85 vlineto
hintmask 11101110
-72 -6 rlineto
-79 -81 -52 81 -645 72 440 vlineto
30 47 51 19 59 hhcurveto
endchar
                </CharString>
                <CharString name="hbar.sc">
                    -40 callgsubr
                </CharString>
                <CharString name="hcoslug">
                    128 -100 100 6 12 -11 11 -11 18 -18 25 -25 41 -36 14 -13 10 -3 14 -11 9 0 16 -9 15 -15 20 -19 34 -19 19 -15 15 7 8 -1 13 -7 12 6 10 -9 43 -42 11 hstemhm
50 82 13 10 -10 22 -5 12 6 9 -2 16 -1 16 -2 9 12 13 -3 14 -14 56 -41 12 -1 9 4 16 -8 14 5 13 -6 7 8 17 -12 14 8 7 -5 15 -13 8 hintmask 001000000000001000001010001000100000100000010000
644 700 rmoveto
-594 hlineto
hintmask 100000000000000000001010000000001000000001000000
-800 594 vlineto
-397 528 rmoveto
-23 15 -14 23 -22 vhcurveto
11 17 7 16 17 vvcurveto
23 -12 15 -17 -16 -11 -12 -17 vhcurveto
65 -86 rmoveto
16 -16 12 -15 13 -15 19 33 5 24 -23 23 -9 -10 -14 -11 -19 -13 rrcurveto
-51 -123 rmoveto
15 12 3 9 11 hvcurveto
-28 35 -28 30 -18 17 rrcurveto
-11 -11 -5 -14 -15 vvcurveto
-31 22 -23 30 vhcurveto
121 45 rmoveto
-29 25 17 -12 20 hhcurveto
21 12 12 17 10 hvcurveto
7 -2 rlineto
-58 -2 -35 -36 -43 hhcurveto
-30 -22 11 34 -33 hvcurveto
-31 -28 -34 -14 -42 hhcurveto
-60 -49 40 53 42 29 31 53 18 hvcurveto
-21 22 -10 18 29 vvcurveto
43 42 42 67 62 33 -39 -35 -13 -3 -11 -6 -10 vhcurveto
27 1 20 -11 2 -27 rrcurveto
24 16 19 14 25 hhcurveto
28 22 -21 -31 -31 -22 -23 -28 -18 -16 10 15 -9 hvcurveto
-15 -9 -16 -13 -15 -20 rrcurveto
hintmask 000000000000000000001000000000000001000000000000
-96 -140 rmoveto
-11 13 -7 vlineto
hintmask 000000000000000000100000000000000001000000000000
-13 -20 hlineto
-3 1 -2 3 2 2 2 5 1 vhcurveto
5 -2 rlineto
hintmask 100000000000000000100000000000000100000000000000
-2 -9 -4 -4 -8 -8 -4 5 0 hflex1
20 -7 7 7 9 vlineto
hintmask 000000000000001000000000010000000000000000000000
-100 -28 rmoveto
hintmask 000000000000000000100000010001000000000000000000
50 callsubr
hintmask 000000000000001000000000000001000000000000000000
-12 -9 -9 -12 vhcurveto
hintmask 000000000000001000000000010000000000000000000000
-12 -9 8 13 hvcurveto
hintmask 000000000000000000100010000100000000000000100000
29 hmoveto
50 callgsubr
51 callgsubr
176 -1 rmoveto
0 8 -2 5 -5 -6 -2 -6 0 hflex1
0 -8 2 -5 6 5 2 5 0 hflex1
-160 -12 rmoveto
6 hlineto
hintmask 000000000000000000100000000001000000000000000000
25 -6 7 vlineto
hintmask 000000000000000000001000000000100000000000000000
17 -10 hlineto
hintmask 000000000000000000001000000000000100000000000000
7 3 4 4 7 hhcurveto
9 3 -6 -8 hvcurveto
hintmask 000000000000000000100000000000000100000000000000
-19 6 -7 vlineto
hintmask 100000000000000000100000000000100000000000000000
-22 7 4 18 hlineto
4 -2 3 -4 -4 -3 -4 -6 vhcurveto
-15 4 -7 vlineto
hintmask 000000000000001000000010000000000000000000000000
-22 hlineto
hintmask 000000000000000010000010000000000000000000000000
-94 7 rmoveto
7 hlineto
hintmask 000000000000000000010010000000000000000000000000
41 -7 7 vlineto
hintmask 000000000000000000001000000100000000000000000000
51 hlineto
hintmask 000000000000000000100000000100000000000000000000
-20 -8 vlineto
hintmask 000000000000000000010001000000000000000000000000
11 -2 -2 2 -7 hhcurveto
-12 -18 4 hlineto
5 0 1 7 1 hvcurveto
7 hlineto
hintmask 000000000000000010000000010000000000000000000000
-23 -7 vlineto
7 -1 0 1 -5 hhcurveto
-4 hlineto
hintmask 000000000000000010000001000000000000000000000000
-16 10 -7 vlineto
hintmask 000000000000001000000010000000000000000000000000
-30 hlineto
hintmask 000000000000000000100000000000000001000000000000
177 14 rmoveto
7 hlineto
hintmask 000000000000000000000100000000000000010000000000
-6 4 3 -3 5 hhcurveto
3 2 2 2 hvcurveto
hintmask 000000000000000000000100000000000001000000000000
8 -24 -5 16 vvcurveto
6 5 6 9 5 4 -2 -3 2 vhcurveto
2 5 rlineto
6 hlineto
hintmask 100000000000000001000000000000000000000100000000
-13 -7 vlineto
4 -3 -3 3 -4 hhcurveto
-3 -2 -2 -2 hvcurveto
-8 24 6 -16 vvcurveto
-7 -5 -6 -9 vhcurveto
hintmask 100000000000000000000000000000000000010000000000
-7 -3 3 2 -3 hvcurveto
-1 -4 rlineto
-7 hlineto
hintmask 000000000000000000000100000000000000000100000000
50 51 rmoveto
-6 7 hlineto
hintmask 000000000000000000001000000000000000000000100000
18 hlineto
hintmask 100000000000000000000100000000000000000000100000
-27 vlineto
6 2 5 3 6 hhcurveto
9 6 -8 -12 -9 -4 -12 -12 -7 -4 3 5 -3 hvcurveto
-4 -8 rlineto
-6 hlineto
53 -8 rmoveto
4 3 3 5 1 hvcurveto
-4 10 -12 23 0 vvcurveto
-5 7 hlineto
hintmask 000000000000000000001000000000000000000000000000
25 -7 -6 hlineto
hintmask 100000000000100000001000000000000000000000100000
9 -20 8 20 rlineto
-5 7 17 -7 -5 hlineto
-13 -31 rlineto
-10 -4 -5 -6 -9 hhcurveto
-7 -4 4 5 4 3 3 4 hvcurveto
hintmask 100000000000000000000100000000000000000000100000
7 1 -7 -3 -3 hvcurveto
hintmask 000000000010000000000000000000000000000000000000
59 -32 rmoveto
-7 -5 vlineto
hintmask 000000100000000000000000000000000000000000000000
-3 -6 -3 -4 -3 -4 rrcurveto
2 -3 2 -2 2 2 1 1 1 hflex1
5 -1 rlineto
89 callsubr
-7 -2 -3 -5 -8 hhcurveto
-5 0 -3 1 -4 5 -4 -4 -5 -2 -6 flex1
-12 -6 6 8 hvcurveto
hintmask 000000100000000000000000000000000000000000000000
8 6 5 7 2 vhcurveto
-4 4 -2 3 5 vvcurveto
7 7 7 10 9 5 -6 -6 vhcurveto
-6 -4 -3 -7 -3 vhcurveto
5 -5 3 -4 4 -4 2 2 3 4 1 3 rrcurveto
-6 7 hlineto
hintmask 100000000001000000000000000000000000100000000000
-152 6 rmoveto
14 5 hlineto
-3 -3 2 4 2 1 1 0 hvcurveto
0 -1 1 -2 -3 -3 -2 -10 vhcurveto
175 -15 rmoveto
89 callgsubr
18 13 12 14 vhcurveto
7 5 -3 -4 4 hvcurveto
1 6 rlineto
8 hlineto
-22 -8 vlineto
hintmask 000000000010000000000000000000000000000000000000
12 -4 -3 4 -8 hhcurveto
-8 -6 -6 -16 hvcurveto
hintmask 010000000000000000000000000000000000000000000000
-15 6 -7 10 8 5 7 9 1 vhcurveto
8 hlineto
89 callsubr
-14 -1 -8 -9 -15 hhcurveto
hintmask 100000000001000000000000000000000000100000000000
-18 -11 11 17 hvcurveto
hintmask 000001000000000000000000000000000000000000000000
-38 6 rmoveto
3 2 2 3 4 vvcurveto
3 -2 3 -4 -3 -2 -2 -3 -3 2 -3 4 -4 vhcurveto
hintmask 001000000000000000000000000000010000000000000000
-184 -15 rmoveto
hintmask 010000000000000000000000000000010000000000000000
81 callgsubr
hintmask 100000000000010000000000000010000010000000000000
65 callsubr
hintmask 001000000000000000000000000000000010000000000000
14 6 -9 -13 -1 hvcurveto
hintmask 100000000010000000000000001000010000000000000000
-84 2 rmoveto
50 callsubr
-12 -9 -9 -12 -12 -9 8 13 vhcurveto
336 hmoveto
89 callgsubr
50 callsubr
89 callsubr
-12 -9 -9 -12 vhcurveto
hintmask 100000000010000000000000001000010000000000000000
-12 -9 8 13 hvcurveto
hintmask 001000000000000000000000000000000000000010000000
-185 -2 rmoveto
hintmask 010000000000000000000000000000000000000010000000
81 callgsubr
hintmask 100000000000010000000000000000000000001000010000
65 callsubr
hintmask 001000000000000000000000000000000000000000010000
14 6 -9 -13 -1 hvcurveto
hintmask 000000010000000000000000000000010000000000000000
-119 5 rmoveto
hintmask 000000000100000000000000000000010000000000000000
14 hlineto
hintmask 000000010000000000000000000000010000000000000000
87 callgsubr
hintmask 001000000000000000000000000010000000000000000000
-29 -3 rmoveto
hintmask 000000000010000000000000000010000000000000000000
50 callgsubr
hintmask 001000000000000000000000000010000000000000000000
51 callgsubr
88 callsubr
336 hmoveto
89 callgsubr
50 callgsubr
88 callsubr
51 callgsubr
hintmask 000000010000000000000000000000000000000010000000
-214 3 rmoveto
hintmask 000000000100000000000000000000000000000010000000
14 hlineto
hintmask 000000010000000000000000000000000000000010000000
87 callgsubr
hintmask 001000000000000000000000000000000010000000000000
-64 -16 rmoveto
6 hlineto
hintmask 000000000100000000000000000000000010000000000000
25 -7 7 7 1 vlineto
hintmask 001000000000000100000000000000000010001000000000
13 9 6 10 3 4 -1 -1 2 vhcurveto
10 2 rlineto
-52 6 -7 vlineto
hintmask 100000000000000000000000000000000000100000000000
-23 7 5 hlineto
hintmask 000010000000000000000000000000000000100000000000
25 -14 vlineto
hintmask 001000000000000000000000000000000000100000000000
-25 5 -7 vlineto
hintmask 100000000000000000000000000000000010000000000000
-23 hlineto
hintmask 001000000000000000000000000000000000001000000000
92 7 rmoveto
6 hlineto
hintmask 000000000100000000000000000000000000000000010000
25 -6 7 vlineto
hintmask 000000000000010000000000000000000000000000000000
18 -10 hlineto
8 3 4 3 5 hhcurveto
5 3 -3 -5 -4 -3 -3 -4 -3 -3 2 4 hvcurveto
1 vlineto
-2 -3 -4 -5 -2 hvcurveto
88 callsubr
-16 8 -7 vlineto
hintmask 100000000000000000000000000000000000001000000000
-26 hlineto
hintmask 000100000000000000000000000000000000000000000000
69 9 rmoveto
-5 6 -4 5 -5 5 rrcurveto
-2 -2 -2 -3 -4 vvcurveto
-6 4 -4 6 2 3 1 2 3 vhcurveto
hintmask 001000000000000000000010000000000000000000000000
-313 -2 rmoveto
8 hlineto
hintmask 000000000010000000000010000000000000000000000000
41 -8 7 vlineto
hintmask 000000000000001000000000100000000000000000000000
29 -7 -8 hlineto
hintmask 000000000010000000000000100000000000000000000000
-16 22 16 -8 7 vlineto
hintmask 001000000000001000000000001000000000000000000000
29 -7 -8 -41 8 -7 hlineto
hintmask 100000000000000000000000100000000000000000000000
-29 7 8 hlineto
hintmask 000100000000000000000000100000000000000000000000
18 -22 vlineto
hintmask 001000000000000000000000100000000000000000000000
-18 8 -7 vlineto
hintmask 100000000000000000000010000000000000000000000000
-29 hlineto
459 6 rmoveto
0 -4 -3 -3 -4 -4 -3 3 0 hflex1
0 4 3 3 4 4 3 -3 0 hflex1
endchar
                </CharString>
                <CharString name="hungarumlaut">
                    5 621 243 hstem
138 395 vstem
138 647 -78 callgsubr
endchar
                </CharString>
                <CharString name="hungarumlaut.cap">
                    5 621 243 hstem
138 395 vstem
138 647 -78 callgsubr
endchar
                </CharString>
                <CharString name="hyphen">
                    -99 291 64 hstem
83 305 vstem
388 355 rmoveto
-305 -64 299 hlineto
endchar
                </CharString>
                <CharString name="hyphen.tab">
                    58 291 64 hstem
131 365 vstem
496 355 rmoveto
-365 -64 359 hlineto
endchar
                </CharString>
                <CharString name="i">
                    -15 callsubr
                </CharString>
                <CharString name="i.dot">
                    -15 callsubr
                </CharString>
                <CharString name="i.sc">
                    -20 callsubr
54 callgsubr
286 526 -94 callgsubr
                </CharString>
                <CharString name="iacute">
                    20 callgsubr
61 callgsubr
132 653 -107 callgsubr
324 -653 rmoveto
-69 callsubr
                </CharString>
                <CharString name="iacute.sc">
                    -20 callsubr
113 -20 54 callgsubr
148 696 -107 callgsubr
138 -170 -94 callgsubr
                </CharString>
                <CharString name="ibreve">
                    20 callgsubr
88 61 61 callgsubr
234 627 -106 callsubr
222 -627 rmoveto
-69 callsubr
                </CharString>
                <CharString name="ibreve.sc">
                    -20 callsubr
87 61 54 callgsubr
250 670 -106 callsubr
36 -144 -94 callgsubr
                </CharString>
                <CharString name="icircumflex">
                    20 callgsubr
61 callgsubr
372 623 -90 callgsubr
221 -751 rmoveto
-69 callsubr
                </CharString>
                <CharString name="icircumflex.sc">
                    -33 callgsubr
                </CharString>
                <CharString name="idieresis">
                    20 callgsubr
91 146 hstemhm
88.5 75.5 59 72 16.5 74.5 vstemhm
385 630 -102 callgsubr
368 -630 rmoveto
6 57 rlineto
hintmask 11111000
-167 482 -232 hlineto
-6 -52 166 -8 rlineto
-422 -166 -57 vlineto
endchar
                </CharString>
                <CharString name="idieresis.sc">
                    -20 callsubr
90 146 hstem
103.5 75.5 33 74 40.5 74.5 vstem
400 673 -102 callgsubr
183 -147 -94 callgsubr
                </CharString>
                <CharString name="idotaccent.sc">
                    -20 callsubr
90 146 hstemhm
212 74 -69.5 75 hintmask 11101000
289 673 -76 callsubr
hintmask 11110000
71 -147 -94 callgsubr
                </CharString>
                <CharString name="igrave">
                    20 callgsubr
243 -20 61 callgsubr
333 646 -98 callsubr
146 -612 rmoveto
-69 callsubr
                </CharString>
                <CharString name="igrave.sc">
                    -20 callsubr
106 -20 54 callgsubr
349 689 -98 callsubr
-40 -129 -94 callgsubr
                </CharString>
                <CharString name="imacron">
                    20 callgsubr
135 65 61 callgsubr
404 739 -57 callgsubr
52 -674 rmoveto
-69 callsubr
                </CharString>
                <CharString name="imacron.sc">
                    -20 callsubr
134 65 54 callgsubr
419 782 -57 callgsubr
-133 -191 -94 callgsubr
                </CharString>
                <CharString name="iogonek">
                    20 callgsubr
91 146 hstemhm
135 64 24 72 hintmask 11101000
292 630 rmoveto
7 -42 callsubr
-75 hlineto
-6 -146 rlineto
114 -803 rmoveto
hintmask 11111000
-87 17 -46 18 36 vvcurveto
24 22 32 72 46 vhcurveto
163 hlineto
6 57 rlineto
hintmask 11101000
-167 482 -232 hlineto
-6 -52 166 -8 rlineto
-422 vlineto
hintmask 11111000
-166 -57 163 hlineto
-61 -43 -24 -37 -37 vvcurveto
-57 55 -40 135 -19 vhcurveto
endchar
                </CharString>
                <CharString name="iogonek.sc">
                    -37 callsubr
                </CharString>
                <CharString name="j">
                    -144 -194 73 604 56 91 146 hstemhm
220.5 74.5 -70 72 hintmask 11110000
293 630 rmoveto
4 -42 callsubr
-75 hlineto
-3 -146 rlineto
hintmask 11101000
78 -582 rmoveto
491 -233 vlineto
-6 -52 167 -8 rlineto
-448 vlineto
-112 -21 -29 -166 -11 vhcurveto
-2 -73 rlineto
199 12 62 95 135 vvcurveto
endchar
                </CharString>
                <CharString name="j.sc">
                    -3 callgsubr
                </CharString>
                <CharString name="k">
                    13 callgsubr
hintmask 1001010110000000
455 -6 rmoveto
hintmask 0011100110000000
21 callgsubr
hintmask 0101011010000000
79 callsubr
endchar
                </CharString>
                <CharString name="k.sc">
                    -17 callgsubr
                </CharString>
                <CharString name="kcommaaccent">
                    13 callgsubr
93 74 hintmask 1001010111000000
455 -6 rmoveto
hintmask 0011100111000000
21 callgsubr
hintmask 0101011011000000
79 callsubr
-16 -544 -103 callgsubr
                </CharString>
                <CharString name="kcommaaccent.sc">
                    -45 callsubr
                </CharString>
                <CharString name="l">
                    86 callgsubr
27 callgsubr
endchar
                </CharString>
                <CharString name="l.sc">
                    -49 55 callsubr
521 -74 -583 hlineto
endchar
                </CharString>
                <CharString name="lacute">
                    86 callgsubr
132 887 -107 callgsubr
281 -887 rmoveto
-40 callsubr
endchar
                </CharString>
                <CharString name="lacute.sc">
                    -49 0 62 521 -20 133 -20 76 callsubr
169 696 -107 callgsubr
291 -696 rmoveto
-23 callgsubr
endchar
                </CharString>
                <CharString name="lcaron">
                    29 callgsubr
115 73 vstem
359 627 -62 callgsubr
54 -627 rmoveto
-40 callsubr
endchar
                </CharString>
                <CharString name="lcaron.sc">
                    -49 0 62 521 -20 154 -20 -22 callgsubr
173 73 vstem
330 456 -62 callgsubr
130 -456 rmoveto
-23 callgsubr
endchar
                </CharString>
                <CharString name="lcommaaccent">
                    -99 0 57 660 57 hstemhm
200 72 -68 74 hintmask 11100000
27 callgsubr
hintmask 11010000
127 -291 -103 callgsubr
                </CharString>
                <CharString name="lcommaaccent.sc">
                    -13 callgsubr
                </CharString>
                <CharString name="ldot">
                    -99 0 57 239 108 313 57 hstem
200 72 144 90 vstem
27 callgsubr
450 67 callgsubr
                </CharString>
                <CharString name="ldot.sc">
                    -13 callsubr
                </CharString>
                <CharString name="less">
                    58 72 503 hstem
100 64 vstem
490 575 rmoveto
-390 -213 rlineto
-78 vlineto
380 -212 33 62 -349 185 rlineto
9 vlineto
354 187 rlineto
endchar
                </CharString>
                <CharString name="lessequal">
                    58 27 64 hstem
105.5 70.5 vstem
106 402 rmoveto
-1 -73 391 -165 21 59 -341 143 rlineto
7 vlineto
341 170 -27 56 rlineto
39 -508 rmoveto
82 callsubr
                </CharString>
                <CharString name="lslash">
                    86 callgsubr
413 hmoveto
7 57 rlineto
-148 335 hlineto
122 65 -13 54 -109 -58 rlineto
321 -213 vlineto
-6 -53 147 -8 rlineto
-298 vlineto
-125 -66 13 -54 112 59 rlineto
-297 -147 -57 vlineto
endchar
                </CharString>
                <CharString name="lslash.sc">
                    -7 callgsubr
                </CharString>
                <CharString name="m">
                    348 24 callsubr
242 72 239 72 hintmask 11011100
322 489 rmoveto
69 36 -34 -92 hvcurveto
-363 72 388 vlineto
19 -2 17 -3 16 vhcurveto
30 42 45 19 53 hhcurveto
70 34 -34 -98 hvcurveto
-357 72 382 vlineto
117 -55 53 -93 -78 -57 -36 -39 -45 vhcurveto
51 -23 -47 24 -63 hhcurveto
-74 -55 -33 -38 -44 hvcurveto
hintmask 10111100
-5 61 -21 callsubr
hintmask 11011100
199 -3 142 -3 98 vhcurveto
30 43 46 20 54 hhcurveto
endchar
                </CharString>
                <CharString name="m.sc">
                    -44 callgsubr
                </CharString>
                <CharString name="macron">
                    33 callsubr
                </CharString>
                <CharString name="macron.cap">
                    33 callsubr
                </CharString>
                <CharString name="minus">
                    58 291 64 hstem
94 435 vstem
529 355 rmoveto
82 callsubr
                </CharString>
                <CharString name="mu">
                    75 69 callgsubr
63 -31 -21 26 -21 534 -20 22 -20 23 -20 31 callgsubr
hintmask 0110000111000000
177 -183 rmoveto
-5 206 rlineto
-25 27 38 -11 46 hhcurveto
78 58 34 36 46 hvcurveto
hintmask 0101000111000000
5 -59 rlineto
hintmask 0100101011000000
-59 callsubr
hintmask 0110000111000000
-198 3 -142 3 -97 vhcurveto
-31 -49 -52 -21 -61 hhcurveto
-77 -46 37 101 hvcurveto
354 vlineto
hintmask 1010010011000000
-72 -5 rlineto
-726 vlineto
endchar
                </CharString>
                <CharString name="multiply">
                    58 538 -20 hstem
96 431 vstem
480 107 rmoveto
47 47 -169 169 164 165 -45 46 -165 -165 -169 169 -47 -47 169 -169 -164 -165 45 -46 165 165 rlineto
endchar
                </CharString>
                <CharString name="n">
                    77 24 callsubr
283 72 hintmask 11011000
343 489 -46 callsubr
hintmask 10111000
-5 62 -21 callsubr
hintmask 11011000
22 callsubr
                </CharString>
                <CharString name="n.sc">
                    103 0 114 373 96 hstem
111 68 310.5 7 callsubr
endchar
                </CharString>
                <CharString name="nacute">
                    77 24 callsubr
283 72 hintmask 11011000
217 665 -107 callgsubr
126 -176 -46 callsubr
hintmask 10111000
-5 62 -21 callsubr
hintmask 11011000
22 callsubr
                </CharString>
                <CharString name="nacute.sc">
                    5 callgsubr
113 -20 4 callgsubr
234 696 -107 callgsubr
236 -696 rmoveto
-82 callsubr
endchar
                </CharString>
                <CharString name="naira">
                    58 0 124 -103 -21 198 62 -58 60 156 63 74 133 0 -20 hstemhm
112 64 281.5 61.5 hintmask 0101110110000000
175 555 rmoveto
6 hlineto
37 -77 rlineto
-43 hlineto
147 -216 rmoveto
-146 hlineto
-1 156 rlineto
72 hlineto
212 -156 rmoveto
-71 hlineto
-75 156 rlineto
145 hlineto
-9 -418 rmoveto
70 hlineto
hintmask 0110101110000000
198 80 62 -80 158 80 63 -80 207 -62 vlineto
1 -210 rlineto
-174 hlineto
-101 210 rlineto
-71 -207 -80 -63 80 -158 -80 -62 80 -198 64 hlineto
hintmask 1001101110000000
202 175 vlineto
103 -78 rmoveto
-37 78 rlineto
42 -78 hlineto
endchar
                </CharString>
                <CharString name="ncaron">
                    77 21 -21 489 63 -10 -20 183 -20 hstemhm
113 72 283 72 hintmask 11011100
327 627 -104 callsubr
17 -138 -46 callsubr
hintmask 10111100
-5 62 -21 callsubr
hintmask 11011100
22 callsubr
                </CharString>
                <CharString name="ncaron.sc">
                    37 callgsubr
344 658 -104 callsubr
127 -658 rmoveto
-82 callsubr
endchar
                </CharString>
                <CharString name="ncommaaccent">
                    77 24 callsubr
114 74 95 72 hintmask 11011100
343 489 -46 callsubr
hintmask 10111100
-5 62 -21 callsubr
hintmask 11011100
-6 callsubr
-68 -780 -103 callgsubr
                </CharString>
                <CharString name="ncommaaccent.sc">
                    -41 callgsubr
                </CharString>
                <CharString name="nine">
                    58 -3 -21 294 59 308 63 hstem
80 69 323 70 vstem
199 -24 rmoveto
233 112 110 155 192 vvcurveto
173 -95 92 -134 -124 -109 -89 -144 -198 226 -65 159 144 vhcurveto
-23 -124 -85 -101 -190 -82 rrcurveto
-18 436 rmoveto
99 69 61 86 96 72 -69 -144 vhcurveto
-7 0 -7 -7 vvcurveto
-151 -125 -172 37 162 vvcurveto
endchar
                </CharString>
                <CharString name="nine.den">
                    2 -21 187 47 178 54 hstem
20 58 198 59 vstem
99 -19 -93 callgsubr
                </CharString>
                <CharString name="nine.den_afrc">
                    24 79 callgsubr
137 58 198 59 hintmask 11011100
216 -27 callsubr
                </CharString>
                <CharString name="nine.den_afrc2">
                    443 79 callgsubr
346 58 198 59 hintmask 11011100
425 -27 callsubr
                </CharString>
                <CharString name="nine.inf">
                    -54 -165 -21 187 34 callsubr
-186 -93 callgsubr
                </CharString>
                <CharString name="nine.num">
                    418 34 callsubr
231 -93 callgsubr
                </CharString>
                <CharString name="nine.num_afrc">
                    24 640 47 178 54 hstem
137 58 198 59 vstem
216 453 -93 callgsubr
                </CharString>
                <CharString name="nine.num_afrc2">
                    443 640 47 178 54 hstem
346 58 198 59 vstem
425 453 -93 callgsubr
                </CharString>
                <CharString name="nine.small">
                    2 -21 187 47 178 54 hstem
59 58 198 59 vstem
138 -19 -93 callgsubr
                </CharString>
                <CharString name="nine.sup">
                    -54 529 34 callsubr
342 -93 callgsubr
                </CharString>
                <CharString name="notequal">
                    71 callgsubr
174 rmoveto
64 -219 vlineto
67 179 rlineto
152 64 -128 hlineto
54 142 -56 21 -61 -163 rlineto
-244 -64 220 hlineto
-68 -179 rlineto
-152 -64 128 hlineto
-54 -144 56 -20 62 164 rlineto
endchar
                </CharString>
                <CharString name="ntilde">
                    77 21 -21 489 63 -10 -20 118 64 54 63 hstemhm
113 72 283 72 hintmask 11011110
401 640 rmoveto
49 47 59 92 36 hvcurveto
-41 20 rlineto
-67 -28 -27 -40 -27 -7 callsubr
-58 -151 -46 callsubr
hintmask 10111110
-5 62 -21 callsubr
hintmask 11011110
22 callsubr
                </CharString>
                <CharString name="ntilde.sc">
                    5 callgsubr
88 83 callsubr
-14 callgsubr
hintmask 11101110
418 33 callgsubr
hintmask 11011110
-71 callgsubr
hhcurveto
hintmask 11101110
-10 callgsubr
hintmask 11011110
52 -671 rmoveto
-82 callsubr
endchar
                </CharString>
                <CharString name="numbersign">
                    58 21 -21 200 65 160 65 198 -20 hstem
52 519 vstem
376 265 rmoveto
-147 hlineto
16 160 rlineto
147 hlineto
-43 -425 rmoveto
57 hlineto
20 200 rlineto
116 hlineto
7 65 rlineto
-116 hlineto
16 160 rlineto
116 hlineto
6 65 rlineto
-115 hlineto
20 198 rlineto
-57 hlineto
-20 -198 rlineto
-147 hlineto
20 198 rlineto
-56 hlineto
-20 -198 rlineto
-115 hlineto
-7 -65 rlineto
115 hlineto
-16 -160 rlineto
-115 hlineto
-6 -65 rlineto
114 hlineto
-20 -200 rlineto
56 hlineto
20 200 rlineto
147 hlineto
endchar
                </CharString>
                <CharString name="numero">
                    606 0 80 -80 133 -114 61 115 60 317 116 -53 62 -9 -20 hstemhm
121 69 320.5 68.5 102 71 283 70 hintmask 0011010111100000
882 195 rmoveto
125 98 103 156 152 -82 91 -120 -124 -98 -104 -155 -153 81 -90 120 hvcurveto
12 60 rmoveto
-86 -56 68 129 116 52 67 87 88 56 -66 -128 -117 -55 -69 -86 hvcurveto
hintmask 1001001111100000
-399 -255 rmoveto
84 688 -69 hlineto
hintmask 0101001111100000
1 -555 rlineto
-5 hlineto
-294 555 rlineto
-91 hlineto
hintmask 1001100111100000
-688 70 vlineto
-2 572 rlineto
5 hlineto
hintmask 0011010111100000
893 -553 rmoveto
61 -388 -61 vlineto
endchar
                </CharString>
                <CharString name="o">
                    -1 callgsubr
300 -13 -97 callgsubr
                </CharString>
                <CharString name="o.sc">
                    -29 callsubr
-26 callsubr
317 -13 -107 callsubr
                </CharString>
                <CharString name="oacute">
                    -1 callgsubr
208 663 -107 callgsubr
92 -676 -97 callgsubr
                </CharString>
                <CharString name="oacute.sc">
                    -29 callsubr
110 -20 -26 callsubr
228 705 -107 callgsubr
89 -718 -107 callsubr
                </CharString>
                <CharString name="obreve">
                    57 -13 61 443 61 85 61 16 callsubr
310 637 -106 callsubr
-10 -650 -97 callgsubr
                </CharString>
                <CharString name="obreve.sc">
                    -29 callsubr
84 61 -26 callsubr
330 679 -106 callsubr
-13 -692 -107 callsubr
                </CharString>
                <CharString name="ocircumflex">
                    -1 callgsubr
448 633 -90 callgsubr
-11 -774 -97 callgsubr
                </CharString>
                <CharString name="ocircumflex.sc">
                    -29 callsubr
117 -20 -26 callsubr
467 675 -90 callgsubr
-13 -816 -107 callsubr
                </CharString>
                <CharString name="odieresis">
                    57 -13 61 443 61 88 146 hstemhm
71 71 22.5 -87 callgsubr
19 71 hintmask 11101100
461 640 -102 callgsubr
hintmask 11111110
136 -653 -97 callgsubr
                </CharString>
                <CharString name="odieresis.sc">
                    -29 callsubr
58 callgsubr
41.5 -87 callgsubr
31 74 vstem
481 682 -102 callgsubr
133 -695 -107 callsubr
                </CharString>
                <CharString name="oe">
                    418 -13 61 -61 65 202 50.5 183.5 64 -61 61 hstemhm
70 71 337 72 288 71 hintmask 10101111
880 -13 rmoveto
hintmask 01101111
8 65 -247 8 -82 53 -9 136 rlinecurve
356 10 rlineto
174 18 -70 119 -136 hhcurveto
-86 -73 -53 -83 -41 hvcurveto
87 -36 -73 49 -89 hhcurveto
-134 -116 -117 -175 hvcurveto
hintmask 10101111
-170 98 -103 129 90 81 52 89 43 vhcurveto
44 -89 107 -48 218 -4 rrcurveto
-567 61 rmoveto
-101 -71 82 145 139 68 77 100 100 69 -82 -146 -138 -67 -77 -98 hvcurveto
hintmask 10110111
388 440 rmoveto
94 43 -71 -108 hvcurveto
-288 -9 rlineto
122 6 58 66 87 hhcurveto
endchar
                </CharString>
                <CharString name="oe.sc">
                    -46 callgsubr
                </CharString>
                <CharString name="ogonek">
                    -3 callsubr
                </CharString>
                <CharString name="ogonek.cap">
                    -3 callsubr
                </CharString>
                <CharString name="ograve">
                    -1 callgsubr
410 656 -98 callsubr
-87 -635 -97 callgsubr
                </CharString>
                <CharString name="ograve.sc">
                    -29 callsubr
103 -20 -26 callsubr
429 698 -98 callsubr
-89 -677 -107 callsubr
                </CharString>
                <CharString name="ohungarumlaut">
                    -1 callgsubr
164 657 -78 callgsubr
-75 -669 -97 callgsubr
                </CharString>
                <CharString name="ohungarumlaut.sc">
                    -29 callsubr
103 -20 21 -20 hstemhm
69 74 370 74 hintmask 11011100
184 699 -64 callsubr
-78 -711 -107 callsubr
                </CharString>
                <CharString name="omacron">
                    57 -13 61 443 61 132 65 16 callsubr
480 749 -57 callgsubr
-180 -697 -97 callgsubr
                </CharString>
                <CharString name="omacron.sc">
                    -29 callsubr
131 65 -26 callsubr
500 791 -57 callgsubr
-183 -739 -107 callsubr
                </CharString>
                <CharString name="one">
                    58 0 64 491 163 -6 -20 26 -20 hstemhm
305 72 hintmask 10011000
541 hmoveto
7 64 rlineto
-171 654 hlineto
hintmask 10101000
-72 -6 rlineto
hintmask 11001000
-85 vlineto
-187 -23 2 -54 185 10 rlineto
-496 -194 -64 vlineto
endchar
                </CharString>
                <CharString name="one.den">
                    0 -37 callgsubr
hstem
167 59 vstem
340 15 callgsubr
                </CharString>
                <CharString name="one.den_afrc">
                    24 -233 66 callsubr
-233 -44 callsubr
                </CharString>
                <CharString name="one.den_afrc2">
                    443 -233 -37 callgsubr
hstem
493 59 vstem
666 -233 -44 callsubr
                </CharString>
                <CharString name="one.inf">
                    -54 -167 -37 callgsubr
hstem
245 59 vstem
418 -167 -44 callsubr
                </CharString>
                <CharString name="one.num">
                    250 53 280 11 callsubr
hintmask 10110000
418 250 rmoveto
5 53 rlineto
-119 hlineto
hintmask 11010000
403 vlineto
hintmask 10110000
-59 -5 rlineto
hintmask 11010000
-62 vlineto
-123 -15 1 -44 122 6 rlineto
-283 -132 -53 vlineto
endchar
                </CharString>
                <CharString name="one.num_afrc">
                    24 472 53 280 120.5 hstem
284 59 vstem
-71 callsubr
endchar
                </CharString>
                <CharString name="one.num_afrc2">
                    443 472 -37 callgsubr
hstem
493 59 vstem
666 472 -44 callsubr
                </CharString>
                <CharString name="one.small">
                    0 -37 callgsubr
hstem
206 59 vstem
379 15 callgsubr
                </CharString>
                <CharString name="one.sup">
                    -54 361 -37 callgsubr
hstem
245 59 vstem
418 361 -44 callsubr
                </CharString>
                <CharString name="oneeighth">
                    57 callsubr
261 53 95 50 135 11 callsubr
412 -31 callgsubr
hintmask 0101101110010000
373 -19 callgsubr
rlineto
hintmask 0011110110010000
9 callsubr
89 0 callgsubr
hintmask 1001101110010000
-59 -5 rlineto
hintmask 1001110110010000
-62 vlineto
-123 -15 1 -44 122 6 rlineto
-283 -132 -53 vlineto
749 -261 -53 callsubr
hintmask 1001101101100000
-78 callsubr
-51 45 -34 52 -29 vhcurveto
hintmask 1001101110010000
-66 -28 -38 -40 -54 vvcurveto
hintmask 1001110110010000
-63 56 -45 90 vhcurveto
hintmask 1001101101100000
-94 callsubr
hintmask 1001101110010000
-96 callgsubr
                </CharString>
                <CharString name="oneeighth.afrc">
                    24 -1 callsubr
97 52 108 -37 callgsubr
hstemhm
141 60 -53 62 74 59 40 60 -55 62 hintmask 1011111101010000
-81 callgsubr
216 -608 -53 callsubr
hintmask 1011111011100000
-78 callsubr
vhcurveto
hintmask 1101111011010000
-51 45 -34 52 -29 vhcurveto
hintmask 1011111101010000
-41 callsubr
hintmask 1011111011100000
-94 callsubr
hintmask 1011111101010000
-96 callgsubr
                </CharString>
                <CharString name="onefifth">
                    83 callgsubr
269 53 80 55 145 11 callsubr
444.5 -38 callgsubr
hintmask 0111011110000000
373 -19 callgsubr
rlineto
hintmask 1011101110000000
9 callsubr
89 0 callgsubr
hintmask 1011011110000000
-59 -5 rlineto
hintmask 1011101110000000
-62 vlineto
-123 -15 1 -44 122 6 rlineto
-283 -132 -53 vlineto
907 -107 -105 callgsubr
                </CharString>
                <CharString name="onefifth.afrc">
                    16 callgsubr
107 42 callgsubr
77 callgsubr
53 57.5 59 45 57 vstem
-81 callgsubr
374 -454 -105 callgsubr
                </CharString>
                <CharString name="onehalf">
                    560 0 55 -53 -21 269 53 90 55 135 11 callsubr
646 61 hintmask 01110111
368 -19 callgsubr
rlineto
hintmask 01111011
9 callsubr
94 0 callgsubr
hintmask 10110111
-59 -5 rlineto
hintmask 10111011
-62 vlineto
-123 -15 1 -44 122 6 rlineto
-283 -132 -53 vlineto
912 -250 -86 callgsubr
                </CharString>
                <CharString name="onehalf.afrc">
                    24 -233 73 callgsubr
97 52 108 80 callgsubr
32 61 vstem
-81 callgsubr
379 -597 -86 callgsubr
                </CharString>
                <CharString name="onequarter">
                    40 callgsubr
105.5 53 280 11 callsubr
420 -20 callgsubr
hintmask 0111011010000000
373 -19 callgsubr
rlineto
hintmask 0111101010000000
9 callsubr
89 0 callgsubr
hintmask 0111011010000000
-59 -5 rlineto
hintmask 0111101110000000
-62 vlineto
-123 -15 1 -44 122 6 rlineto
-283 -132 -53 vlineto
931 -158 -95 callsubr
hintmask 1001011010000000
17 callsubr
hintmask 0111011010000000
62 callsubr
                </CharString>
                <CharString name="onequarter.afrc">
                    24 -141 18 callgsubr
400.5 52 108 -37 callgsubr
hstemhm
149 51 84 59 15.5 57 hintmask 11110100
-81 callgsubr
hintmask 11111110
398 -505 -95 callsubr
17 callsubr
-1 92 rlineto
endchar
                </CharString>
                <CharString name="onesixth">
                    88 callgsubr
-18 53 280 11 callsubr
409 77 callsubr
hintmask 0100101111000000
384 -19 callgsubr
rlineto
hintmask 0010110111000000
9 callsubr
78 0 callgsubr
hintmask 1000101111000000
-59 -5 rlineto
hintmask 1000110111000000
-62 vlineto
-123 -15 1 -44 122 6 rlineto
-283 -132 -53 vlineto
757 -260 rmoveto
86 72 60 92 hvcurveto
hintmask 1001001111000000
132 -153 35 -100 -95 vhcurveto
12 80 55 56 130 52 -23 53 rcurveline
-158 -64 -78 -101 -124 vvcurveto
hintmask 1000110111000000
-115 65 -61 92 vhcurveto
7 53 rmoveto
-61 -44 42 89 hvcurveto
4 vlineto
hintmask 1001001111000000
93 72 106 -21 -93 vvcurveto
hintmask 1000110111000000
-58 -42 -35 -52 vhcurveto
endchar
                </CharString>
                <CharString name="onesixth.afrc">
                    24 -243 90 callsubr
277 42 callgsubr
138 59 87 59 53 57 vstem
-81 callgsubr
224 -607 -101 callgsubr
                </CharString>
                <CharString name="onethird">
                    92 callsubr
53 81 54 145 11 callsubr
661 58 hintmask 0101101110000000
368 -19 callgsubr
rlineto
hintmask 0011110110000000
9 callsubr
94 0 callgsubr
hintmask 1001101110000000
-59 -5 rlineto
hintmask 1001110110000000
-62 vlineto
-123 -15 1 -44 122 6 rlineto
-283 -132 -53 vlineto
621 -261 rmoveto
-103 callsubr
endchar
                </CharString>
                <CharString name="onethird.afrc">
                    24 -244 85 callsubr
107 52 108 80 callgsubr
47 58 vstem
-81 callgsubr
88 -608 rmoveto
-103 callsubr
endchar
                </CharString>
                <CharString name="ordfeminine">
                    5 135 53 86 51 146 47 118 58 hstem
117 62 199 61 vstem
259 325 rmoveto
-47 -33 19 47 58 50 34 149 -15 hvcurveto
-40 1 -30 1 -28 vhcurveto
-26 -33 -45 -19 -43 hhcurveto
130 -43 rmoveto
55 4 rlineto
-2 57 -3 54 90 vvcurveto
151 -64 48 -223 8 vhcurveto
-6 -58 169 -7 54 -21 8 -90 rlinecurve
-175 11 -85 -65 -85 vvcurveto
-66 53 -39 72 60 48 27 29 33 vhcurveto
2 -17 3 -22 1 -9 rrcurveto
-276 -94 rmoveto
-53 341 53 vlineto
endchar
                </CharString>
                <CharString name="ordmasculine">
                    5 135 53 86 53 316 53 hstem
100 61 251 62 vstem
100 478 rmoveto
-129 74 -75 103 108 89 86 132 128 -76 76 -104 -106 -88 -87 -131 vhcurveto
187 -151 rmoveto
-76 -50 54 109 98 47 55 77 78 49 -54 -108 -99 -48 -55 -77 hvcurveto
175 -192 rmoveto
53 -351 -53 vlineto
endchar
                </CharString>
                <CharString name="oslash">
                    55 callgsubr
141 275 -61 callgsubr
                </CharString>
                <CharString name="oslash.sc">
                    -67 callsubr
                </CharString>
                <CharString name="oslashacute">
                    55 callgsubr
207 660 -107 callgsubr
-66 -385 -61 callgsubr
                </CharString>
                <CharString name="oslashacute.sc">
                    -74 callgsubr
                </CharString>
                <CharString name="otilde">
                    57 -13 61 443 61 86 64 54 63 16 callsubr
393 638 rmoveto
49 47 59 92 36 hvcurveto
-41 20 rlineto
-67 -28 -27 -40 -27 -7 callsubr
-93 -651 -97 callgsubr
                </CharString>
                <CharString name="otilde.sc">
                    -29 callsubr
85 83 callsubr
69 74 370 74 hintmask 11101110
412 680 -77 callgsubr
hintmask 11011110
-71 callgsubr
hhcurveto
hintmask 11101110
-10 callgsubr
hintmask 11011110
-95 -693 -107 callsubr
                </CharString>
                <CharString name="p">
                    55 69 callgsubr
65 -39 -21 499 61 -10 -20 hstemhm
113 72 295 71 hintmask 01101011
293 52 rmoveto
-33 -37 5 13 -38 hvcurveto
175 -2 101 -2 95 vhcurveto
30 40 48 20 49 41 callgsubr
-108 -235 rmoveto
hintmask 01011011
175 vlineto
hintmask 01101011
-3 22 23 -2 22 hhcurveto
161 138 114 193 158 -90 100 -117 -69 -56 -30 -36 -42 hvcurveto
hintmask 10100111
-5 56 -66 -5 rlineto
5 -117 2 94 callsubr
                </CharString>
                <CharString name="p.sc">
                    -34 callsubr
                </CharString>
                <CharString name="paragraph">
                    182 115 63 447 74 hstem
77 74 207 68 129 70 vstem
555 178 rmoveto
-46 1 -44 4 -39 6 rrcurveto
431 vlineto
39 5 43 1 47 -1 rrcurveto
-404 -223 rmoveto
93 67 79 140 34 vhcurveto
-404 vlineto
-132 37 -75 71 90 vvcurveto
275 -522 rmoveto
243 vlineto
40 -6 43 -3 46 1 rrcurveto
-215 vlineto
70 9 rlineto
790 vlineto
-339 2 -209 -131 -181 vvcurveto
-122 105 -93 174 -39 vhcurveto
-264 vlineto
endchar
                </CharString>
                <CharString name="parenleft">
                    -82 -227 1026 hstem
85 71 vstem
379 799 -4 callsubr
                </CharString>
                <CharString name="parenleft.cap">
                    -82 -173 1026 hstem
85 71 vstem
379 853 -4 callsubr
                </CharString>
                <CharString name="parenright">
                    -82 -227 1027 hstem
328 71 vstem
105 -227 -5 callsubr
                </CharString>
                <CharString name="parenright.cap">
                    -82 -174 1027 hstem
328 71 vstem
105 -174 -5 callsubr
                </CharString>
                <CharString name="percent">
                    338 -13 55 -31 -21 248 55 104 55 197 55 -6 -20 hstemhm
110 62 143 62 154 62 143 62 hintmask 1011101111000000
249 704 rmoveto
-76 -63 -64 -95 -92 55 -56 73 76 63 63 95 92 -55 57 -73 hvcurveto
hintmask 0111011111000000
461 -6 rmoveto
-557 -672 43 -36 557 673 rlineto
hintmask 1011101111000000
-508 -14 rmoveto
39 31 -37 -61 -60 -32 -39 -41 -40 -30 37 61 60 32 39 41 hvcurveto
414 -662 rmoveto
76 63 63 95 92 -55 56 -73 -76 -63 -62 -96 -92 55 -56 73 hvcurveto
4 55 rmoveto
-40 -30 37 60 61 32 38 41 40 30 -37 -60 -61 -32 -38 -41 hvcurveto
endchar
                </CharString>
                <CharString name="period">
                    -211 0 35 callgsubr
vstem
229 37 callsubr
                </CharString>
                <CharString name="period.tab">
                    -120 0 112 hstem
170.5 46 callsubr
vstem
274 37 callsubr
                </CharString>
                <CharString name="periodcentered">
                    -211 266 35 callgsubr
vstem
231 266 38 callsubr
                </CharString>
                <CharString name="periodcentered.tab">
                    -117 266 112 hstem
171.5 46 callsubr
vstem
277 266 38 callsubr
                </CharString>
                <CharString name="peso">
                    58 21 -21 213 68 137 63 -56 55 154 64 -11 -20 hstemhm
119 72 hintmask 11011010
191 480 rmoveto
150 vlineto
166 22 92 -62 12 -110 rrcurveto
-270 -199 rmoveto
144 269 vlineto
-14 -111 -96 -42 -159 9 rrcurveto
hintmask 11100110
412 137 rmoveto
63 -69 vlineto
-7 161 -143 90 -265 -45 rrcurveto
-206 -87 -63 87 -418 72 213 vlineto
183 10 129 63 26 132 rrcurveto
endchar
                </CharString>
                <CharString name="plus">
                    58 291 64 hstem
278 66 vstem
548 291 rmoveto
1 64 rlineto
-205 210 -66 -210 -204 -64 204 -211 66 211 hlineto
endchar
                </CharString>
                <CharString name="plusminus">
                    58 75 64 191 64 201 -20 hstem
278 66 vstem
537 75 rmoveto
1 64 rlineto
-194 191 196 64 -196 201 -66 -201 -195 -64 195 -191 -193 -64 hlineto
endchar
                </CharString>
                <CharString name="published">
                    354 -34 50 243 53 169 52 139 51 hstem
80 55 214 60 154 59 163 -34 callgsubr
273 -188 rmoveto
0 0 47 1 61 vhcurveto
124 6 89 41 96 vvcurveto
97 -100 53 -173 -26 vhcurveto
-375 vlineto
214 243 rmoveto
-66 -56 -23 -98 7 vhcurveto
62 0 66 38 vvcurveto
102 15 52 -38 -61 vvcurveto
endchar
                </CharString>
                <CharString name="q">
                    57 -168 -21 27 -21 169 61 440 65 hstemhm
70 71 300 71 hintmask 10111100
441 -189 rmoveto
hintmask 01111100
71 6 rlineto
708 vlineto
18 -45 -43 9 -55 hhcurveto
-152 -147 -115 -195 -158 92 -98 118 67 54 29 36 40 hvcurveto
-136 -4 rmoveto
-93 -71 73 143 145 85 79 112 33 33 -6 -13 37 hvcurveto
-368 vlineto
-30 -39 -49 -23 -48 hhcurveto
endchar
                </CharString>
                <CharString name="q.sc">
                    -48 callgsubr
                </CharString>
                <CharString name="question">
                    13 0 107 hstem
193 101 132 77 vstem
94 682 rmoveto
268 -19 64 -48 -55 vvcurveto
-83 -193 -64 -8 -163 vhcurveto
50 -2 rlineto
13 149 215 56 122 vvcurveto
85 -91 71 -310 20 vhcurveto
191 -751 rmoveto
2 107 rlineto
-101 hlineto
-2 -107 rlineto
endchar
                </CharString>
                <CharString name="questiondown">
                    13 581 107 hstem
76 76 133 101 vstem
286 688 rmoveto
-2 -107 rlineto
101 hlineto
2 107 rlineto
98 -682 rmoveto
-268 19 -65 48 55 vvcurveto
83 194 64 8 163 vhcurveto
-50 2 rlineto
-13 -148 -215 -56 -123 vvcurveto
-85 91 -71 310 -20 vhcurveto
endchar
                </CharString>
                <CharString name="quotedbl">
                    61 431 310 hstem
162.5 91.5 146.5 92.5 vstem
450 66 callgsubr
-190 hmoveto
44 277 -4 33 rlineto
-91 hlineto
3 -310 rlineto
endchar
                </CharString>
                <CharString name="quotedblbase">
                    17 -172 -21 hstem
166 81 139 82 21 callsubr
220 hmoveto
39 -13 80 88 38 119 -36 119 rlinecurve
-99 -8 49 -116 -9 -108 -62 -81 rlinecurve
endchar
                </CharString>
                <CharString name="quotedblleft">
                    17 430 327 hstem
123 82 139 81 vstem
478 744 rmoveto
-39 13 -80 -88 -38 -119 37 -120 rlinecurve
98 9 -49 115 9 109 62 81 rlinecurve
-220 hmoveto
28 callsubr
                </CharString>
                <CharString name="quotedblright">
                    12 416 326 hstem
168 82 138 20 callsubr
221 hmoveto
38 -12 80 87 38 119 -36 120 rlinecurve
-98 -9 48 -115 -8 -108 -62 -82 rlinecurve
endchar
                </CharString>
                <CharString name="quoteleft">
                    -203 430 327 hstem
123 82 vstem
258 744 rmoveto
28 callsubr
                </CharString>
                <CharString name="quoteright">
                    -207 416 326 hstem
168 20 callsubr
endchar
                </CharString>
                <CharString name="quotesinglbase">
                    -203 -172 -21 hstem
166 81 21 callsubr
endchar
                </CharString>
                <CharString name="quotesingle">
                    -245 431 310 hstem
133.5 92.5 vstem
183 66 callgsubr
endchar
                </CharString>
                <CharString name="r">
                    42 callsubr
-28 callsubr
endchar
                </CharString>
                <CharString name="r.sc">
                    -65 callgsubr
hstemhm
111 74 239 74 hintmask 10011011
465 -9 -75 callsubr
                </CharString>
                <CharString name="racute">
                    42 callsubr
hintmask 11010000
195 666 -107 callgsubr
238 -666 rmoveto
-22 callsubr
endchar
                </CharString>
                <CharString name="racute.sc">
                    -65 callgsubr
142 -16 callsubr
239 74 hintmask 0011101110000000
182 703 -107 callgsubr
hintmask 1001101110000000
283 -712 rmoveto
hintmask 0011011110000000
79 12 -156 250 rlineto
62 40 48 54 78 vvcurveto
119 -108 76 -279 -39 vhcurveto
hintmask 0101101110000000
-50 callgsubr
                </CharString>
                <CharString name="rcaron">
                    -14 0 57 425 57 20 -20 167 -20 hstemhm
203 71 hintmask 11011000
306 628 -104 callsubr
128 -628 rmoveto
-16 callgsubr
hintmask 10111000
-5 77 rlineto
hintmask 11011000
-54 callgsubr
endchar
                </CharString>
                <CharString name="rcaron.sc">
                    -65 callgsubr
hstemhm
111 74 239 74 hintmask 00111011
293 665 -104 callsubr
hintmask 10011011
173 -674 -75 callsubr
                </CharString>
                <CharString name="rcommaaccent">
                    42 callsubr
-63 74 -28 callsubr
hintmask 11001000
116 -291 -103 callgsubr
                </CharString>
                <CharString name="rcommaaccent.sc">
                    -65 callgsubr
hstemhm
111 74 90 74 75 74 hintmask 1001101110000000
465 -9 rmoveto
hintmask 0011011110000000
79 12 -156 250 rlineto
62 40 48 54 78 vvcurveto
119 -108 76 -279 -39 vhcurveto
hintmask 0101101110000000
-81 callsubr
66 -569 -103 callgsubr
                </CharString>
                <CharString name="registered">
                    124 219 41 183.5 36.5 91 41 92 41 hstem
84 44 130 49 99 47 110 44 vstem
607 489 rmoveto
160 -109 96 -150 -156 -108 -110 -160 -159 102 -97 157 149 115 110 160 vhcurveto
-44 -4 rmoveto
-142 -96 -83 -124 -125 -90 80 139 138 92 87 127 126 90 -77 -142 vhcurveto
-147 -130 rmoveto
51 8 -68 101 rlineto
30 18 24 24 32 vvcurveto
55 -64 32 -131 -18 vhcurveto
-250 49 86 vlineto
54 1 rlineto
-54 127 rmoveto
64 6 35 -17 -31 vvcurveto
-19 -14 -16 -19 -13 vhcurveto
-66 -2 rlineto
endchar
                </CharString>
                <CharString name="registered.alt">
                    354 -34 50 268 49 149 52 138 51 hstem
80 55 202 59 147 60 182 -34 callgsubr
428 -192 rmoveto
62 9 -92 156 rlineto
39 26 31 37 49 vvcurveto
84 -84 45 -182 -26 vhcurveto
-375 59 131 vlineto
89 2 rlineto
-89 194 rmoveto
95 14 52 -27 -53 vvcurveto
-32 -18 -26 -30 -21 vhcurveto
-99 -2 rlineto
endchar
                </CharString>
                <CharString name="ring">
                    5 606 49 130 49 hstem
162 56 155 55 vstem
294 834 -99 callgsubr
endchar
                </CharString>
                <CharString name="ring.cap">
                    5 606 49 130 49 hstem
162 56 155 55 vstem
294 834 -99 callgsubr
endchar
                </CharString>
                <CharString name="ruble">
                    58 0 197 -58 58 103 61 270 66 -10 -20 hstemhm
150 74 266 74 hintmask 01110110
490 501 rmoveto
-108 -84 -31 -182 -1 vhcurveto
266 vlineto
172 17 94 -44 -99 vvcurveto
-21 -362 rmoveto
6 58 rlineto
-251 105 hlineto
218 10 122 60 139 vvcurveto
hintmask 01101110
148 -149 64 -265 -36 vhcurveto
-326 -99 -61 99 -101 -99 -60 99 vlineto
hintmask 10110110
-139 74 vlineto
hintmask 01110110
139 vlineto
endchar
                </CharString>
                <CharString name="rupee">
                    397 -6 64 -48 -21 32 -21 24 -21 257 57.5 164.5 67 -3 -20 108 93 callsubr
79 74 162 73 hintmask 0100110101111000
454 -11 rmoveto
hintmask 0001110011111000
40 callsubr
hintmask 0010101101111000
12 callsubr
678 230 rmoveto
hintmask 1000110101111000
-217 20 -72 -90 -77 -132 236 -31 -96 vvcurveto
-53 -49 -44 -187 19 vhcurveto
-2 -68 rlineto
237 -16 74 85 81 139 -235 36 90 vvcurveto
47 43 42 174 -21 vhcurveto
endchar
                </CharString>
                <CharString name="rupeeindia">
                    58 5 -21 431 58 151 64 hstem
92 463 vstem
539 23 rmoveto
-157 126 -86 63 -97 29 138 26 86 66 17 82 rrcurveto
109 58 -107 hlineto
-9 66 -48 55 -82 30 rrcurveto
247 hlineto
5 64 rlineto
-455 hlineto
-6 -62 180 -18 78 -60 15 -75 rlinecurve
-270 -58 270 hlineto
-15 -74 -74 -53 -171 -13 -15 -58 rcurveline
143 -41 68 -52 170 -140 rrcurveto
endchar
                </CharString>
                <CharString name="s">
                    -57 -6 43 callgsubr
200 72 hintmask 10111000
411 546 rmoveto
hintmask 11011000
-73 callsubr
endchar
                </CharString>
                <CharString name="s.sc">
                    -50 -7 61 473 62 hstem
83 74 215 -9 callsubr
endchar
                </CharString>
                <CharString name="sacute">
                    -57 -6 43 callgsubr
200 72 hintmask 11011000
165 658 -107 callgsubr
hintmask 10111000
246 -112 rmoveto
hintmask 11011000
-73 callsubr
endchar
                </CharString>
                <CharString name="sacute.sc">
                    -50 -7 61 473 62 112 -20 hstem
83 74 215 75 vstem
170 701 -107 callgsubr
-86 -643 rmoveto
-100 callsubr
endchar
                </CharString>
                <CharString name="scaron">
                    -57 -6 64 424 67 -3 -20 172 -20 103 -20 hstemhm
88 72 200 72 hintmask 11011110
275 620 -104 callsubr
hintmask 10111110
137 -74 rmoveto
hintmask 11011110
-73 callsubr
endchar
                </CharString>
                <CharString name="scaron.sc">
                    75 callgsubr
280 663 -104 callsubr
-195 -605 rmoveto
-100 callsubr
endchar
                </CharString>
                <CharString name="scedilla">
                    -57 -247 60 181 43 callgsubr
125 57 18 72 hintmask 11011010
411 546 rmoveto
hintmask 11101010
-73 callsubr
-243 -556 rmoveto
hintmask 11101110
-84 callgsubr
                </CharString>
                <CharString name="scedilla.sc">
                    -50 -246 60 179 61 473 62 hstemhm
83 74 130 57 28 75 hintmask 11110100
-68 callsubr
88 -136 rmoveto
hintmask 11111100
-84 callgsubr
                </CharString>
                <CharString name="schwa">
                    10 -13 64 184.5 51 200.5 64 hstem
71 71 291 71 vstem
264 -13 rmoveto
132 108 126 162 175 -88 97 -316 4 hvcurveto
-8 -64 247 -8 84 -53 10 -134 rlinecurve
-359 -11 rlineto
-174 -18 70 -120 138 hhcurveto
15 64 rmoveto
-94 -42 71 109 -1 hvcurveto
291 9 rlineto
-124 -6 -59 -65 -89 hhcurveto
endchar
                </CharString>
                <CharString name="scommaaccent">
                    -57 -6 43 callgsubr
66 74 60 72 hintmask 10111100
411 546 rmoveto
hintmask 11011100
-73 callsubr
-211 -777 -103 callgsubr
                </CharString>
                <CharString name="scommaaccent.sc">
                    -49 callsubr
                </CharString>
                <CharString name="section">
                    61 -117 67 679 67 hstemhm
80 66 -19 75 222 75 -20 66 hintmask 11100100
146 308 rmoveto
37 50 34 63 23 vhcurveto
100 -43 120 -29 -60 vvcurveto
-37 -50 -34 -62 -23 vhcurveto
-100 42 -121 30 60 vvcurveto
hintmask 11101000
353 -257 rmoveto
43 -33 31 -47 26 vhcurveto
hintmask 11010100
73 32 53 48 57 137 -343 19 92 vvcurveto
47 61 55 249 -9 vhcurveto
-5 67 rlineto
-280 10 -100 -98 -80 vvcurveto
-43 33 -32 47 -26 vhcurveto
hintmask 11101000
-73 -31 -54 -48 -57 -137 344 -20 -92 vvcurveto
-46 -64 -56 -248 10 vhcurveto
-4 -67 rlineto
289 -10 102 97 81 vvcurveto
endchar
                </CharString>
                <CharString name="semicolon">
                    -201 -173 -21 621 112 hstemhm
135.5 46 callsubr
-78 82 hintmask 11100000
241 -2 callgsubr
                </CharString>
                <CharString name="semicolon.tab">
                    -120 -173 -21 621 112 hstemhm
175.5 46 callsubr
-78 82 hintmask 11100000
281 -2 callgsubr
                </CharString>
                <CharString name="servicemark">
                    394 297 55 -15 80 209 62 -47 54 hstemhm
80 64 145 63 96 55.5 284 58.5 hintmask 01101111
623 337 2 callgsubr
hintmask 10011111
-423 -274 rmoveto
-55 vlineto
190 -3 77 59 57 88 -208 39 54 vvcurveto
26 40 27 140 -3 vhcurveto
-5 54 rlineto
-168 5 -71 -60 -56 -85 209 -40 -53 vvcurveto
-28 -47 -31 -157 5 vhcurveto
endchar
                </CharString>
                <CharString name="seven">
                    58 15 -21 31 -21 617 67 hstemhm
476 73 hintmask 10110000
249 -6 rmoveto
74 213 102 215 124 203 rrcurveto
63 -447 vlineto
-6 -67 rlineto
379 hlineto
2 -4 rlineto
hintmask 01110000
-126 -199 -101 -207 -74 -207 rrcurveto
endchar
                </CharString>
                <CharString name="seven.den">
                    13 -21 29 -21 383 55 hstemhm
32 307 -63 63 hintmask 10110000
146 -8 rmoveto
hintmask 01101000
-89 callgsubr
endchar
                </CharString>
                <CharString name="seven.den_afrc">
                    24 150 55 hstemhm
149 45 callgsubr
263 -241 rmoveto
hintmask 10100000
-89 callgsubr
endchar
                </CharString>
                <CharString name="seven.den_afrc2">
                    443 150 55 hstemhm
358 45 callgsubr
472 -241 rmoveto
hintmask 10100000
-89 callgsubr
endchar
                </CharString>
                <CharString name="seven.inf">
                    -54 216 55 hstemhm
110 45 callgsubr
224 -175 rmoveto
hintmask 10100000
-89 callgsubr
endchar
                </CharString>
                <CharString name="seven.num">
                    633 55 hstemhm
110 45 callgsubr
224 242 rmoveto
hintmask 10100000
-89 callgsubr
endchar
                </CharString>
                <CharString name="seven.num_afrc">
                    24 855 55 hstemhm
149 45 callgsubr
263 464 rmoveto
hintmask 10100000
-89 callgsubr
endchar
                </CharString>
                <CharString name="seven.num_afrc2">
                    443 855 55 hstemhm
358 45 callgsubr
472 464 rmoveto
hintmask 10100000
-89 callgsubr
endchar
                </CharString>
                <CharString name="seven.small">
                    13 -21 29 -21 383 55 hstemhm
71 307 -63 63 hintmask 10110000
185 -8 rmoveto
hintmask 01101000
-89 callgsubr
endchar
                </CharString>
                <CharString name="seven.sup">
                    -54 744 55 hstemhm
110 45 callgsubr
224 353 rmoveto
hintmask 10100000
-89 callgsubr
endchar
                </CharString>
                <CharString name="seveneighths">
                    57 callsubr
409 50 185 55 19 -20 hstemhm
354 63 299 -31 callgsubr
hintmask 0101010100100000
341 76 callgsubr
rlineto
hintmask 0011101100100000
10 callgsubr
-73 233 rmoveto
-89 callgsubr
hintmask 1001100100100000
700 -261 -53 callsubr
hintmask 1001100011000000
-78 callsubr
-51 45 -34 52 -29 vhcurveto
hintmask 1001100100100000
-41 callsubr
hintmask 1001100011000000
-94 callsubr
hintmask 1001100100100000
-96 callgsubr
                </CharString>
                <CharString name="seveneighths.afrc">
                    24 -1 callsubr
97 52 491 55 hstemhm
141 -31 callgsubr
-57 63 hintmask 1011111001000000
263 464 rmoveto
hintmask 1011111000100000
-89 callgsubr
-130 -39 callsubr
216 -608 rmoveto
hintmask 1011111001000000
-60 callsubr
hintmask 1011110110000000
-78 callsubr
vhcurveto
hintmask 1101110101000000
-51 45 -34 52 -29 vhcurveto
hintmask 1011111001000000
-66 -28 -38 -40 -54 vvcurveto
hintmask 1011111000100000
-63 56 -45 90 vhcurveto
hintmask 1011110110000000
-94 callsubr
hintmask 1011111001000000
-96 callgsubr
                </CharString>
                <CharString name="six">
                    58 -12 64 307 59 295 -20 hstem
82 70 323 69 vstem
311 -12 rmoveto
124 109 89 144 199 -226 64 -159 -144 hvcurveto
22 124 85 101 190 82 -33 66 rcurveline
-232 -112 -109 -156 -192 vvcurveto
-173 94 -92 135 vhcurveto
9 64 rmoveto
-97 -71 68 144 hvcurveto
7 0 7 7 vvcurveto
151 125 172 -37 -162 vvcurveto
-99 -69 -60 -86 vhcurveto
endchar
                </CharString>
                <CharString name="six.den">
                    -10 90 callsubr
hstem
21 77 callsubr
vstem
178 -10 -101 callgsubr
                </CharString>
                <CharString name="six.den_afrc">
                    24 -243 90 callsubr
hstem
138 77 callsubr
vstem
295 -243 -101 callgsubr
                </CharString>
                <CharString name="six.den_afrc2">
                    443 -243 90 callsubr
hstem
347 77 callsubr
vstem
504 -243 -101 callgsubr
                </CharString>
                <CharString name="six.inf">
                    -54 -177 74 callsubr
-177 -101 callgsubr
                </CharString>
                <CharString name="six.num">
                    240 90 callsubr
187 -20 hstem
99 77 callsubr
vstem
256 240 -101 callgsubr
                </CharString>
                <CharString name="six.num_afrc">
                    24 462 53 171 -20 27 47 hstemhm
138 77 callsubr
hintmask 10111000
295 -26 callgsubr
                </CharString>
                <CharString name="six.num_afrc2">
                    443 462 53 171 -20 27 47 hstemhm
347 77 callsubr
hintmask 10111000
504 -26 callgsubr
                </CharString>
                <CharString name="six.small">
                    -10 90 callsubr
hstem
60 77 callsubr
vstem
217 -10 -101 callgsubr
                </CharString>
                <CharString name="six.sup">
                    -54 351 74 callsubr
351 -101 callgsubr
                </CharString>
                <CharString name="slash">
                    78 callgsubr
443 788 rmoveto
-456 -973 rlineto
hintmask 10100000
64 -13 453 965 rlineto
endchar
                </CharString>
                <CharString name="slash.tab">
                    58 -177 -21 35 -21 hstemhm
-13 588 hintmask 01100000
575 763 rmoveto
-61 24 -527 -971 rlineto
hintmask 10100000
67 -14 rlineto
endchar
                </CharString>
                <CharString name="space">
                    -270 endchar
                </CharString>
                <CharString name="sterling">
                    58 0 63 246 63 334 -20 hstem
72 468 vstem
532 64 rmoveto
-307 -2 27 247 rlineto
212 hlineto
6 63 rlineto
-211 hlineto
23 207 31 39 227 12 -6 76 rcurveline
-264 -21 -58 -86 -26 -227 rrcurveto
-100 hlineto
-7 -63 rlineto
101 hlineto
-25 -247 -83 -1 rlineto
-61 460 vlineto
endchar
                </CharString>
                <CharString name="t">
                    23 callsubr
-9 callgsubr
endchar
                </CharString>
                <CharString name="t.sc">
                    -31 21 -21 521 62 hstem
232 73 vstem
305 521 56 callgsubr
                </CharString>
                <CharString name="tcaron">
                    23 callsubr
111 73 hintmask 11011100
302 656 -62 callgsubr
109 -665 rmoveto
7 64 rlineto
-150 3 -49 26 96 vvcurveto
301 191 58 -191 157 vlineto
hintmask 11101100
-72 -6 rlineto
-151 -90 vlineto
-7 -58 rlineto
97 -314 hlineto
hintmask 11011100
-128 66 -50 198 2 vhcurveto
endchar
                </CharString>
                <CharString name="tcaron.sc">
                    -15 callgsubr
                </CharString>
                <CharString name="tcommaaccent">
                    23 callsubr
23 74 -9 callgsubr
hintmask 11011100
-193 -291 -103 callgsubr
                </CharString>
                <CharString name="tcommaaccent.sc">
                    -31 21 -21 521 62 hstemhm
232 73 -71 74 hintmask 11100000
305 521 -31 callsubr
hintmask 11010000
-95 -291 -103 callgsubr
                </CharString>
                <CharString name="thinspace">
                    -430 endchar
                </CharString>
                <CharString name="thorn">
                    54 69 callgsubr
65 -37 -21 497 61 224 52 callsubr
297 71 hintmask 0110101110000000
293 52 rmoveto
-34 -37 5 13 -39 hvcurveto
373 vlineto
29 39 48 19 48 41 callgsubr
-110 -235 rmoveto
hintmask 0101101110000000
177 vlineto
hintmask 0110101110000000
-5 26 26 -2 28 hhcurveto
32 callsubr
hintmask 1010110110000000
-72 -6 rlineto
-965 vlineto
endchar
                </CharString>
                <CharString name="thorn.sc">
                    -35 callsubr
                </CharString>
                <CharString name="three">
                    58 -13 70 565 66 hstem
468 67 vstem
110 -13 rmoveto
301 16 124 84 113 vvcurveto
81 -72 72 -214 32 vhcurveto
273 237 -6 66 rlineto
-404 -66 331 hlineto
-281 -244 -1 -37 rlineto
232 -26 75 -59 -65 vvcurveto
-71 -93 -49 -270 -14 vhcurveto
endchar
                </CharString>
                <CharString name="three.den">
                    -11 85 callsubr
hstem
273 58 vstem
42 -11 rmoveto
-103 callsubr
endchar
                </CharString>
                <CharString name="three.den_afrc">
                    24 -244 85 callsubr
hstem
390 58 vstem
159 -244 rmoveto
-103 callsubr
endchar
                </CharString>
                <CharString name="three.den_afrc2">
                    443 -244 85 callsubr
hstem
599 58 vstem
368 -244 rmoveto
-103 callsubr
endchar
                </CharString>
                <CharString name="three.inf">
                    -54 -178 49 callsubr
-178 rmoveto
-103 callsubr
endchar
                </CharString>
                <CharString name="three.num">
                    239 49 callsubr
239 rmoveto
-103 callsubr
endchar
                </CharString>
                <CharString name="three.num_afrc">
                    24 461 15 callsubr
390 58 hintmask 10111000
159 -25 callsubr
hintmask 11011000
34 callgsubr
                </CharString>
                <CharString name="three.num_afrc2">
                    443 461 15 callsubr
599 58 hintmask 10111000
368 -25 callsubr
hintmask 11011000
34 callgsubr
                </CharString>
                <CharString name="three.small">
                    -11 85 callsubr
hstem
312 58 vstem
81 -11 rmoveto
-103 callsubr
endchar
                </CharString>
</ttFont>
